<?xml version="1.0" standalone="no"?>
<!DOCTYPE svg PUBLIC "-//W3C//DTD SVG 1.1//EN" "http://www.w3.org/Graphics/SVG/1.1/DTD/svg11.dtd" >
<!--
2013-9-30: Created.
-->
<svg>
<metadata>
Created by iconfont
</metadata>
<defs>

<font id="iconfont" horiz-adv-x="1024" >
  <font-face
    font-family="iconfont"
    font-weight="500"
    font-stretch="normal"
    units-per-em="1024"
    ascent="896"
    descent="-128"
  />
    <missing-glyph />
    
    <glyph glyph-name="lujing534" unicode="&#59131;" d="M183.724403 778.946726h166.166103c17.527025 0 28.117559 17.527025 24.773179 38.64616L357.136661 877.296249a25.268643 25.268643 0 0 1-24.77318 18.579885H201.313361a25.268643 25.268643 0 0 1-24.77318-18.579885l-17.527024-59.703363a29.170419 29.170419 0 0 1 24.711246-38.64616z m359.211105-118.23l-59.703363 44.467858a87.077726 87.077726 0 0 1-51.466281 16.412231H166.44511a47.936103 47.936103 0 0 1-47.998035-46.821309v-715.015898a88.687983 88.687983 0 0 1 88.935715-87.758989h609.358286a88.687983 88.687983 0 0 1 88.935715 87.758989V323.73955a120.831184 120.831184 0 0 1-42.114405 91.289167L617.812444 602.252022m-262.162174-614.436788a98.163724 98.163724 0 0 0-98.28759 98.28759 171.058805 171.058805 0 0 0 31.585804 91.289167l61.932949 114.699822c2.353452 2.353452 3.530178 4.706904 5.821697 4.706904a7.803552 7.803552 0 0 0 5.821697-4.706904l60.880089-114.699822a247.360199 247.360199 0 0 0 30.409078-91.289167 99.092719 99.092719 0 0 0-98.039858-98.28759z m424.798098 305.453305a49.546359 49.546359 0 0 0-39.760953-19.880476 53.881666 53.881666 0 0 0-31.585804 10.528601L437.587562 491.082379a49.546359 49.546359 0 0 0-9.351876 70.231964 51.714013 51.714013 0 0 0 71.408691 9.351875l272.504976-207.165714a49.546359 49.546359 0 0 0 8.422881-70.231965z"  horiz-adv-x="1024" />

    
    <glyph glyph-name="jianqu24" unicode="&#59133;" d="M1095.144856-96.850764h-18.689542a48.717406 48.717406 0 0 0-40.244813 21.056884l-55.694835 80.988015a97.247916 97.247916 0 0 1-80.489627 42.238365H316.227049a97.746304 97.746304 0 0 1-80.988015-42.674454l-54.386567-80.178135a48.53051 48.53051 0 0 0-40.36941-21.368376h-19.748616a19.873213 19.873213 0 0 0-19.499422 16.010708L32.083714 291.704812a47.346839 47.346839 0 0 0 7.164324 35.074041l54.324268 81.486402A240.534404 240.534404 0 0 1 123.350976 471.747399l107.963254 358.714607A48.904301 48.904301 0 0 0 277.975786 864.850764H936.346049a48.343615 48.343615 0 0 0 46.599257-34.388758l107.900955-357.842428a239.599927 239.599927 0 0 1 29.965566-63.419846l54.137373-81.424104a47.533735 47.533735 0 0 0 7.226623-35.136339L1112.713025-82.086025a17.755065 17.755065 0 0 0-17.568169-14.764739zM408.80258 388.641236a43.110543 43.110543 0 1 1 0-86.158788h292.802822l-21.991361-21.991361a43.110543 43.110543 0 0 1 30.526252-73.636795 42.736752 42.736752 0 0 1 30.463954 12.459695l95.628156 95.628156a43.048245 43.048245 0 0 1-30.526252 73.574496z m95.565857 277.290503a42.799051 42.799051 0 0 1-30.463953-12.459694L378.338626 557.906187a43.110543 43.110543 0 0 1 30.526252-73.574496h396.654377a43.110543 43.110543 0 1 1 0 86.158788h-292.802823l21.991361 22.053659a43.110543 43.110543 0 0 1-30.463953 73.574497z"  horiz-adv-x="1214" />

    
    <glyph glyph-name="lujing533" unicode="&#59134;" d="M826.937139 480.055061C757.049 604.698327 722.889838 584.855873 705.182332 567.964669s-7.346732-97.45408-56.51332-147.123008c-29.449719-29.072963-47.785151-33.091688-57.706378-30.140437-17.267959 5.902502-11.428249 26.121712-11.42825 26.121712C664.115986 713.580656 452.693378 895.239582 419.915653 895.239582a38.99419 38.99419 0 0 1-44.519937-26.875223c-7.723487-23.170461-6.593221-64.362392-29.072963-147.123009a525.887834 525.887834 0 0 0-118.426801-220.653116 378.38807 378.38807 0 1 1 661.959349-268.438268 441.306233 441.306233 0 0 1-63.232125 247.842303z"  horiz-adv-x="1024" />

    
    <glyph glyph-name="lujing535" unicode="&#59135;" d="M1004.026691 707.590285a484.13978 484.13978 0 0 1-200.132698 184.717947 44.884129 44.884129 0 0 1-53.239184-18.264538 46.69763 46.69763 0 0 1 12.953573-63.925881 390.809288 390.809288 0 0 0 162.761641-150.06714 45.337504 45.337504 0 0 1 38.860718-23.122127v2.72025a44.754594 44.754594 0 0 1 20.01327 5.440501 46.568094 46.568094 0 0 1 18.78268 62.500988z m-945.610807-69.949293a45.337504 45.337504 0 0 1 38.860718 22.409681 390.485449 390.485449 0 0 0 161.919659 146.699211 45.337504 45.337504 0 0 1 6.865393 3.367929 46.632862 46.632862 0 0 1 15.932895 63.278203 44.884129 44.884129 0 0 1-62.177149 16.191966 482.779655 482.779655 0 0 1-200.132698-184.717947 46.827165 46.827165 0 0 1-5.310965-20.401877 45.790879 45.790879 0 0 1 44.042147-47.474844v0.712446z m790.686078 36.205236a447.869776 447.869776 0 0 1-640.489403 34.909879 467.75351 467.75351 0 0 1-34.262199-652.212386q11.593448-12.953573 24.223181-25.389002l-62.047614-75.389793a46.762397 46.762397 0 0 1-9.974251-64.767864 44.819362 44.819362 0 0 1 63.342971-10.168555 45.855647 45.855647 0 0 1 13.34218 15.609056l66.710899 77.721436a447.286865 447.286865 0 0 1 471.574814-7.448305l51.814291-67.941488a45.726112 45.726112 0 0 1 64.055417-8.160751 46.69763 46.69763 0 0 1 10.751465 64.379256 43.588772 43.588772 0 0 1-2.72025 3.497465l-50.713237 63.148667a467.75351 467.75351 0 0 1 34.326968 652.212385z m-427.791739-584.270896l45.337505 230.897433H333.096393l269.49908 321.896282-45.337504-230.897434h133.421798l-269.49908-321.896281z"  horiz-adv-x="1024" />

    
    <glyph glyph-name="henggang" unicode="&#59132;" d="M6784 0H384C179.2 0 0 179.2 0 384s179.2 384 384 384h6400c204.8 0 384-179.2 384-384s-179.2-384-384-384z"  horiz-adv-x="7168" />

    
    <glyph glyph-name="lujing1090" unicode="&#59125;" d="M512 896a512 512 0 1 1 512-512A513.498877 513.498877 0 0 1 512 896z m0-799.989734a64 64 0 1 0 0 128 64 64 0 1 0 0-128z m0 192c-51.208213 0-64 281.604107-64 320a60.468399 60.468399 0 0 0 64 64 60.468399 60.468399 0 0 0 64-64c0-32.010266-12.81232-320-64-320z"  horiz-adv-x="1024" />

    
    <glyph glyph-name="lujing1094" unicode="&#59126;" d="M4362.15133 896l-99.507663-99.507663 342.154354-342.08398H0v-140.746341h4590.301148l-342.083981-342.08398 99.507663-99.507663 519.21325 519.21325z"  horiz-adv-x="4867" />

    
    <glyph glyph-name="zu1664" unicode="&#59127;" d="M375.682175 759.506753h272.471102a68.289573 68.289573 0 1 1 0 136.493247H375.682175a68.289573 68.289573 0 1 1 0-136.493247zM837.130712 814.052512h-72.756313a150.666555 150.666555 0 0 0-76.793557-122.835332H336.770004A150.322959 150.322959 0 0 0 260.062345 814.052512H186.962437a77.308951 77.308951 0 0 1-71.897324-81.947487v-778.157537a77.308951 77.308951 0 0 1 71.897324-81.947488h650.425971a77.308951 77.308951 0 0 1 71.897324 81.947488V732.105025a77.308951 77.308951 0 0 1-71.897324 81.947487zM692.305278 158.730308h-360.775103a41.23144 41.23144 0 0 0 0 81.947487h360.775103a41.23144 41.23144 0 0 0 0-81.947487z m0 245.756564h-360.775103a41.23144 41.23144 0 0 0 0 81.947488h360.775103a41.23144 41.23144 0 0 0 0-81.947488z"  horiz-adv-x="1024" />

    
    <glyph glyph-name="zujian202" unicode="&#59128;" d="M437.22586 179.304176a10.720576 10.720576 0 0 0-7.92027-2.967489 9.508504 9.508504 0 0 0-6.938072 2.967489l-164.549356 170.505231a5.496124 5.496124 0 0 0-0.982197 7.92027l23.781708 31.722875q2.967489 4.952781 6.938073 1.985292l133.745983-103.088896a12.058036 12.058036 0 0 1 15.861438 0L768.247169 563.928367q3.970584 3.970584 6.938073 0l22.799511-21.817314a4.952781 4.952781 0 0 0 0-7.920269z m-126.891501 676.04415A497.848526 497.848526 0 0 1 148.752492 745.321357a525.705306 525.705306 0 0 1-109.044772-164.549355 532.664277 532.664277 0 0 1-39.705839-203.210304 500.836912 500.836912 0 0 1 39.705839-196.27223 514.086124 514.086124 0 0 1 270.626639-269.581748 493.689861 493.689861 0 0 1 195.290033-39.705839 532.664277 532.664277 0 0 1 203.210304 39.705839 511.035044 511.035044 0 0 1 164.549355 109.044772 500.878708 500.878708 0 0 1 110.026969 160.578771 490.304416 490.304416 0 0 1 40.646241 196.272231 521.358562 521.358562 0 0 1-40.646241 203.168508A508.213839 508.213839 0 0 1 708.834696 855.348326 516.593861 516.593861 0 0 1 505.624392 895.994567a483.324548 483.324548 0 0 1-195.269136-40.646241z"  horiz-adv-x="1024" />

    
    <glyph glyph-name="zu1665" unicode="&#59129;" d="M375.682175 759.506753h272.471102a68.289573 68.289573 0 1 1 0 136.493247H375.682175a68.289573 68.289573 0 1 1 0-136.493247zM837.130712 814.052512h-72.756313a150.666555 150.666555 0 0 0-76.793557-122.835332H336.770004A150.322959 150.322959 0 0 0 260.062345 814.052512H186.962437a77.308951 77.308951 0 0 1-71.897324-81.947487v-778.157537a77.308951 77.308951 0 0 1 71.897324-81.947488h650.425971a77.308951 77.308951 0 0 1 71.897324 81.947488V732.105025a77.308951 77.308951 0 0 1-71.897324 81.947487zM692.305278 158.730308h-360.775103a41.23144 41.23144 0 0 0 0 81.947487h360.775103a41.23144 41.23144 0 0 0 0-81.947487z m0 245.756564h-360.775103a41.23144 41.23144 0 0 0 0 81.947488h360.775103a41.23144 41.23144 0 0 0 0-81.947488z"  horiz-adv-x="1024" />

    
    <glyph glyph-name="lujing1095" unicode="&#59130;" d="M4362.15133 896l-99.507663-99.507663 342.154354-342.08398H0v-140.746341h4590.301148l-342.083981-342.08398 99.507663-99.507663 519.21325 519.21325z"  horiz-adv-x="4867" />

    
    <glyph glyph-name="xiangyou" unicode="&#59124;" d="M312.999325-127.913572L225.534099-35.694801l398.087778 419.694801L225.44767 803.521945 312.912897 895.740716 798.465901 383.740716z"  horiz-adv-x="1024" />

    
    <glyph glyph-name="duigou" unicode="&#59123;" d="M422.071949-128a5927.426287 5927.426287 0 0 0 340.089349 553.773807A3224.287797 3224.287797 0 0 0 1077.571597 797.2838l-36.115684 98.7162a2773.564072 2773.564072 0 0 1-375.723489-313.002586 2665.337409 2665.337409 0 0 1-301.806724-381.622385L105.457794 436.247355 0 327.177992l421.349636-455.177992z"  horiz-adv-x="1077" />

    
    <glyph glyph-name="tishi" unicode="&#59122;" d="M521.227828 895.917927a511.991894 511.991894 0 1 1 502.771379-512.59984A506.621704 506.621704 0 0 1 521.227828 895.917927z m63.935659-169.312973l-23.203274-487.572728h-80.147554l-23.203274 487.572728z m-11.6523-665.092973a78.121067 78.121067 0 0 0-52.182035-20.264868 69.407173 69.407173 0 0 0-50.66217 21.379436 67.482011 67.482011 0 0 0-22.088707 52.080711 65.556848 65.556848 0 0 0 22.088707 52.080711 69.204525 69.204525 0 0 0 50.66217 20.264868 71.838958 71.838958 0 0 0 52.182035-20.264868 70.217768 70.217768 0 0 0 20.974139-52.080711 72.852201 72.852201 0 0 0-20.974139-53.195279z m0 0"  horiz-adv-x="1024" />

    
    <glyph glyph-name="fuwu" unicode="&#59114;" d="M512 896a511.952181 511.952181 0 1 1 511.952181-511.952181A512.526011 512.526011 0 0 1 512 896z m0-974.554964a462.602783 462.602783 0 1 0 462.507145 462.602783 463.080975 463.080975 0 0 0-462.507145-462.602783zM838.31811 570.255721a24.674699 24.674699 0 0 1-34.908004 0L453.564958 220.410573l-193.189503 193.189502a24.674699 24.674699 0 1 1-34.908004-34.908004l210.404409-210.404409a24.770337 24.770337 0 0 1 34.908004 0l367.251331 367.251331a24.674699 24.674699 0 0 1 0.286915 34.716728z"  horiz-adv-x="1024" />

    
    <glyph glyph-name="jiaobanchexiangqingye-shoucang" unicode="&#59115;" d="M537.983225 711.182079l93.115618-188.677355 18.971016-38.485614 42.399405-6.142478 208.246311-30.277524-150.680964-146.767173-30.71239-29.951374 7.284-42.236331 35.550271-207.37658-186.231235 97.844782-38.050748 19.949464-38.050749-19.949464-186.231234-97.844782 35.55027 207.37658 7.229643 42.236331-30.658032 29.951374-150.300456 146.604099 208.191952 30.277524 42.453764 6.142478 18.971016 38.485614 92.952542 188.840429m0 184.219981l-166.227412-337.020916L0 504.40344l269.018792-262.224015-63.54475-370.179425 332.509183 174.761652 332.454826-174.761652-63.490392 370.179425 268.964434 262.224015-371.701455 53.977704-166.227413 337.020916z"  horiz-adv-x="1076" />

    
    <glyph glyph-name="jiaobanchexiangqingye-tiche" unicode="&#59116;" d="M511.987219 384.012781m-511.987219 0a511.987219 511.987219 0 1 1 1023.974439 0 511.987219 511.987219 0 1 1-1023.974439 0ZM677.367015 695.985023a191.503158 191.503158 0 0 1-145.135468-316.649909L457.542248 304.645815l-71.187439 71.213-65.359527-65.359526 71.187439-71.213001-33.229325-33.229325-71.213 71.187439L222.380869 211.910437l71.213-71.213001-0.869074-0.894635 65.359526-65.333966 250.958089 250.98365a191.707646 191.707646 0 1 1 68.375727 370.634782z m0-300.111929a108.455406 108.455406 0 1 0 108.455406 108.455405 108.455406 108.455406 0 0 0-108.455406-108.455405z"  horiz-adv-x="1024" />

    
    <glyph glyph-name="jiaobanchexiangqingye-xiadan" unicode="&#59117;" d="M511.987219 384.012781m-511.987219 0a511.987219 511.987219 0 1 1 1023.974439 0 511.987219 511.987219 0 1 1-1023.974439 0ZM313.608148 55.400315a75.762862 75.762862 0 0 0-75.762862 75.7373V626.20344a75.762862 75.762862 0 0 0 75.762862 75.762861h175.27191v-149.225231l-64.720501 64.720501-32.692544-32.666983 119.881181-119.881181 121.159232 121.082549-32.692544 32.692544-64.720501-64.746062V701.966301h175.27191a75.762862 75.762862 0 0 0 75.762862-75.762861v-495.065825a75.762862 75.762862 0 0 0-75.762862-75.7373z m196.436434 476.176231h2.556102l-1.329173-1.329173zM376.769427 328.059709h270.486707v-46.214323H376.769427zM376.769427 225.738948h270.486707v-46.214323H376.769427z"  horiz-adv-x="1024" />

    
    <glyph glyph-name="jiaobanchexiangqingye-dianhua" unicode="&#59118;" d="M1009.047908 91.621399l-245.284672 192.604688a38.989435 38.989435 0 0 1-51.742989-3.071264l-95.67768-95.67768a736.686902 736.686902 0 0 0-302.805802 302.805802l95.67768 95.67768a39.041491 39.041491 0 0 1 3.071264 51.742989L219.681021 880.936231a39.093546 39.093546 0 0 1-28.37015 14.887822 38.468882 38.468882 0 0 1-29.983865-11.400115L11.563848 734.608724a38.520938 38.520938 0 0 1-10.411064-35.189397c5.621975-166.577027 113.168268-373.913371 282.764503-543.509606 170.741453-170.741453 380.003843-278.808299 546.945258-283.076836a39.249712 39.249712 0 0 1 4.164425-0.832885 38.833269 38.833269 0 0 1 27.589321 11.452171l149.867269 149.815213a39.093546 39.093546 0 0 1-3.487707 58.30196z m-188.23204-139.560315c-145.754899 8.537073-328.677297 106.088744-481.667885 259.131387S88.605723 546.897236 80.06865 692.808301l105.307915 105.35997 144.089128-183.390896-86.984441-87.036497a38.989435 38.989435 0 0 1-11.816558-46.849789 799.56973 799.56973 0 0 1 378.338073-378.338072 39.71821 39.71821 0 0 1 45.184018 10.411064l88.494046 88.494045 183.442951-144.089128zM577.249021 662.928547a38.989435 38.989435 0 0 1-38.104495-39.926431 40.446984 40.446984 0 0 1 39.926431-38.156551 130.138302 130.138302 0 0 0 96.874953-38.781214 131.491741 131.491741 0 0 0 38.781214-93.699577 39.041491 39.041491 0 1 1 78.082981 0 209.15828 209.15828 0 0 1-61.6335 148.826162 212.750097 212.750097 0 0 1-153.927584 61.737611zM575.947638 738.929316a285.939878 285.939878 0 0 0 292.030351-290.104304 39.093546 39.093546 0 0 1 38.468882-39.666155h0.572608a39.093546 39.093546 0 0 1 39.041491 38.468882 364.12697 364.12697 0 0 1-371.727047 369.592779 39.041491 39.041491 0 0 1 1.613715-78.082981z"  horiz-adv-x="1024" />

    
    <glyph glyph-name="jiaobanchexiangqingye-qianhetong" unicode="&#59119;" d="M511.987219 384.012781m-511.987219 0a511.987219 511.987219 0 1 1 1023.974439 0 511.987219 511.987219 0 1 1-1023.974439 0ZM292.954844 230.007638h447.241157v-92.428646H292.954844zM319.43606 119.379546h394.278725v-46.214323H319.43606zM413.551734 360.445521l-46.316568-57.563416a26.557899 26.557899 0 0 1 20.704426-43.223684h257.271661a26.557899 26.557899 0 0 1 20.704426 43.223684l-46.316568 57.563416a191.349792 191.349792 0 1 1-206.072938 0z"  horiz-adv-x="1024" />

    
    <glyph glyph-name="jiaobanchexiangqingye-jiantou" unicode="&#59120;" d="M251.163682 452.493547H68.434466a68.434441 68.434441 0 0 1 0-136.868883h182.515581a68.434441 68.434441 0 0 1 0 136.868883zM1934.964273 452.493547h-420.932345a68.434441 68.434441 0 0 1 0-136.868883h420.932345a68.434441 68.434441 0 0 1 0 136.868883zM1093.099583 452.493547H672.096027a68.434441 68.434441 0 0 1 0-136.868883h421.003556a68.434441 68.434441 0 0 1 0 136.868883zM2538.554622 315.624664a68.434441 68.434441 0 0 1 0 136.868883h-182.515581a68.434441 68.434441 0 0 1 0-136.868883zM2473.46713 650.034796a68.434441 68.434441 0 0 1 96.776697 96.776697L2441.208231 875.918301a68.434441 68.434441 0 0 1-96.847909-96.776697zM2899.882776 417.314969L2770.84718 546.350565a68.434441 68.434441 0 0 1-96.776697-96.776697l80.682853-80.682854-80.682853-80.682853a68.434441 68.434441 0 0 1 96.776697-96.776697l129.106807 129.035596a68.36323 68.36323 0 0 1 0 96.776697zM2503.732102 118.012203l-129.035596-129.106807a68.434441 68.434441 0 1 1 96.776697-96.776698l129.106808 129.035597a68.434441 68.434441 0 0 1-96.776698 96.776697z"  horiz-adv-x="2920" />

    
    <glyph glyph-name="zhuanfa" unicode="&#59121;" d="M512.06197-35.044299a419.044299 419.044299 0 1 0 0 838.088598V896a512 512 0 1 1 512-512h-92.9557a419.540063 419.540063 0 0 0-419.0443-419.044299zM466.451707 375.881869v-69.035101h92.9557V375.572016a226.564028 226.564028 0 0 0 226.316147 226.316147h94.938755L728.524812 449.812636l65.750666-65.750666 248.997337 248.997338L794.275478 882.118615l-65.750666-65.750665 121.586057-121.524087h-64.387315a319.64367 319.64367 0 0 1-319.271847-318.961994z"  horiz-adv-x="1043" />

    
    <glyph glyph-name="taishifuwu-changyonggongneng-moren" unicode="&#59102;" d="M1023.817062 289.831873a86.804389 86.804389 0 0 1-24.788187 61.924733L515.887904 833.799945a225.654823 225.654823 0 0 1-68.693463 43.905275 202.330145 202.330145 0 0 1-78.846557 18.293865H86.713834a83.511493 83.511493 0 0 1-60.8271-25.885818A83.511493 83.511493 0 0 1 0.000915 809.286166v-280.444948a198.122556 198.122556 0 0 1 18.293865-78.846558 195.378477 195.378477 0 0 1 43.905275-68.693462l482.958033-483.140971a82.322392 82.322392 0 0 1 60.8271-24.788187 86.804389 86.804389 0 0 1 61.924733 24.788187l331.118954 331.118954a86.987327 86.987327 0 0 1 24.788187 60.552692zM277.061498 617.566462a82.322392 82.322392 0 0 0-60.827101-24.788187 85.615288 85.615288 0 1 0 0 171.230575 84.609125 84.609125 0 0 0 85.615288-85.615287 78.297742 78.297742 0 0 0-24.788187-60.735631z m981.008503-265.809856L774.92903 833.891414a225.654823 225.654823 0 0 1-68.693462 43.905276 202.330145 202.330145 0 0 1-78.846558 18.293865H475.275524a198.122556 198.122556 0 0 0 78.846557-18.293865 195.378477 195.378477 0 0 0 68.693463-43.905276l483.140971-482.043339a86.804389 86.804389 0 0 0 24.788187-61.924732 82.322392 82.322392 0 0 0-24.788187-60.827101l-316.483862-317.581494a245.961013 245.961013 0 0 1 36.038913-30.367816 70.614318 70.614318 0 0 1 39.423279-9.146932 86.804389 86.804389 0 0 1 61.924733 24.788187l331.118954 332.216586a82.322392 82.322392 0 0 1 24.788187 60.8271 86.804389 86.804389 0 0 1-24.696718 62.016202z m0 0"  horiz-adv-x="1282" />

    
    <glyph glyph-name="taishifuwu-yiwancheng-moren" unicode="&#59103;" d="M512.042746 896a511.992581 511.992581 0 1 1 511.957255-511.957254A512.557812 512.557812 0 0 1 512.042746 896z m0-941.708842a429.71626 429.71626 0 1 0 429.680934 429.716261 430.210837 430.210837 0 0 0-429.680934-429.716261zM498.123953 310.138897l-139.435226 139.435225-58.183383-58.183384 197.618609-197.653936 288.550017 288.726652-58.183384 58.183384zM151.001955 326.530573a421.909018 421.909018 0 1 1 843.818037 0 421.909018 421.909018 0 1 1-843.818037 0Z"  horiz-adv-x="1024" />

    
    <glyph glyph-name="taishifuwu-dingdanguanli-xuanzhong" unicode="&#59104;" d="M603.448128 160.691337l161.868663-161.357576 86.008699-114.994652 45.705811-12.266097 126.968699 126.895687-12.339109 46.508948-114.556577 84.913512-170.703173 170.703173-120.908663-120.470589a120.981676 120.981676 0 0 0-2.117362-19.932406z m281.390089-94.916221a53.737184 53.737184 0 1 0-50.086559-25.481355 53.664171 53.664171 0 0 0 50.086559 25.773405zM533.94025 493.044135l-94.916221 94.551159a157.560927 157.560927 0 0 1 19.494331 69.799929A250.651836 250.651836 0 0 1 220.497683 894.8318c-0.438075 0-14.237433-13.945383-21.903744-21.392656 97.690695-97.25262 89.659323-81.481925 89.659323-141.060107a166.468449 166.468449 0 0 0-125.216399-124.924349c-61.476506 0-41.83615-10.148734-141.571195 89.221248-7.66631-7.66631-21.465668-21.173619-21.53868-21.903743a252.769198 252.769198 0 0 1 238.166702-237.217541 158.145027 158.145027 0 0 1 68.923779 18.691195L393.172193 370.31016a142.228307 142.228307 0 0 0 19.713368 2.190375l121.054689 120.5436z m388.207344-206.990374l64.83508-63.009768s93.528984 258.464171-17.522995 369.151087l-146.024955 145.659893c-10.075722 10.002709-38.258538 0.87615-45.632799 10.513797a181.362995 181.362995 0 0 0-29.204991 55.781533 149.821604 149.821604 0 0 1-45.924848 60.527344L695.808913 871.54082C680.476292 886.727415 672.590945 896 663.31836 896c-7.739323 0-16.50082-6.425098-31.395365-21.173619L543.139822 786.043209c-32.563565-32.41754-24.824242-35.630089 3.212549-63.593869l6.863173-6.79016c20.443494-20.443494 43.807487-46.216898 67.901604-46.216898h0.87615a105.21098 105.21098 0 0 0 73.815615-46.216899 81.92 81.92 0 0 0-18.764207-87.614973l-238.458752-237.290553a75.859964 75.859964 0 0 1-22.414831 3.431587 47.239073 47.239073 0 0 1-34.534902-13.799358l-7.66631-7.301248-247.074225-246.709162-7.301247-7.301248c-48.480285-48.261248 40.010838-152.523066 104.480855-152.523066a47.239073 47.239073 0 0 1 34.680927 13.799358l7.301248 7.301248 247.074224 246.417112 7.666311 7.301248a53.518146 53.518146 0 0 1 10.075721 56.87672l267.006632 266.203494a104.261818 104.261818 0 0 0 42.639286 26.722567 7.301248 7.301248 0 0 0 3.723637-0.87615c96.741533-55.343458 77.685276-211.736185 77.685276-211.736185z"  horiz-adv-x="1024" />

    
    <glyph glyph-name="taishifuwu-jinhangzhong-xuanzhong" unicode="&#59105;" d="M627.692733 397.946763l-5.302952-2.297945a136.674745 136.674745 0 0 0-112.210461 0.883825c-78.130157 35.070188-131.230381 137.452512-131.230382 253.092215V850.005731h381.812533v-197.976869c0.176765-116.841706-53.877991-219.931089-133.068738-254.082099zM639.783463 292.488728l-6.434248 1.979768a226.648162 226.648162 0 0 1-135.43739-0.777766 228.062282 228.062282 0 0 1-158.416848-217.421025v-172.098464h461.144692v170.118695a228.062282 228.062282 0 0 1-160.856206 218.198792zM817.008113 660.761056V813.662834h65.403073V896H141.482755v-82.337166h65.438426v-155.16437a300.041015 300.041015 0 0 1 177.366062-274.480787 300.111721 300.111721 0 0 1-177.366062-274.516141v-155.16437H141.482755v-82.337166h741.03449v82.337166h-65.509132v152.901778a299.546073 299.546073 0 0 1-182.38619 276.743379 299.475367 299.475367 0 0 1 182.38619 276.778733zM734.670948 107.274297v-152.901778h-445.447955v155.16437a219.188676 219.188676 0 0 0 283.142275 209.501951l7.38878-2.262593a217.915968 217.915968 0 0 0 155.022959-209.50195z m-154.987606 343.984809l-7.353427-2.262593a219.188676 219.188676 0 0 0-283.177628 209.501951V813.662834h445.447955v-152.901778a217.951321 217.951321 0 0 0-154.810841-209.50195zM401.044571 76.234352h221.946211v-82.337166H401.044571z"  horiz-adv-x="1024" />

    
    <glyph glyph-name="taishifuwu-jiantou-xuanzhong" unicode="&#59106;" d="M1558.381588 434.042478L1158.530758 878.919646a48.415418 48.415418 0 0 1-73.712473 0 62.697966 62.697966 0 0 1 0-82.003614l318.997082-354.88501H52.05691a58.340578 58.340578 0 0 1 0-116.015444h1335.297215l-318.997082-354.885011a62.697966 62.697966 0 0 1 0-82.003613 48.415418 48.415418 0 0 1 73.712473 0l395.553961 440.096145a57.553828 57.553828 0 0 1 35.76689 54.830461c0 1.512982 0 2.904925-0.363115 4.357387a61.366542 61.366542 0 0 1-14.645664 45.631531z"  horiz-adv-x="1573" />

    
    <glyph glyph-name="taishifuwu-huangxing" unicode="&#59107;" d="M819.435282-128a87.054378 87.054378 0 0 0-36.468726 9.672709l-249.725811 124.830227-251.817207-124.830227a76.53204 76.53204 0 0 0-80.780188 5.685984 79.473066 79.473066 0 0 0-30.782742 76.85882l52.284912 268.87516L24.051059 417.462344a84.962982 84.962982 0 0 0-21.110033 80.780189 76.335971 76.335971 0 0 0 63.264744 53.722747l274.495787 49.997447L463.767169 851.884606a78.427368 78.427368 0 0 0 69.146796 44.115394 76.335971 76.335971 0 0 0 69.212152-44.115394l122.869543-249.725811 274.495788-48.036763a74.375287 74.375287 0 0 0 61.565483-53.722747 78.427368 78.427368 0 0 0-19.214705-80.780189l-197.571611-186.591779 49.997447-268.87516a77.773806 77.773806 0 0 0-30.782742-76.85882 67.970385 67.970385 0 0 0-44.050038-15.293337z"  horiz-adv-x="1065" />

    
    <glyph glyph-name="taishifuwu-daichuli-xuanzhong" unicode="&#59108;" d="M941.631982 384.08625a433.54662 433.54662 0 1 0-131.990467 309.474167l-121.350635 22.622897-15.058366-80.912207 257.582895-48.073656 46.977861 251.785778-80.947555 15.093714-20.572697-110.428018a511.807705 511.807705 0 1 1 147.685102-359.527327zM455.239688 590.838323v-339.944382h347.473565v82.326138h-265.112079V590.838323zM140.852111 326.574603a422.164474 422.164474 0 1 1 844.328949 0 422.164474 422.164474 0 1 1-844.328949 0Z"  horiz-adv-x="1024" />

    
    <glyph glyph-name="taishifuwu-jiantou" unicode="&#59109;" d="M1558.381588 434.042478L1158.530758 878.919646a48.415418 48.415418 0 0 1-73.712473 0 62.697966 62.697966 0 0 1 0-82.003614l318.997082-354.88501H52.05691a58.340578 58.340578 0 0 1 0-116.015444h1335.297215l-318.997082-354.885011a62.697966 62.697966 0 0 1 0-82.003613 48.415418 48.415418 0 0 1 73.712473 0l395.553961 440.096145a57.553828 57.553828 0 0 1 35.76689 54.830461c0 1.512982 0 2.904925-0.363115 4.357387a61.366542 61.366542 0 0 1-14.645664 45.631531z"  horiz-adv-x="1573" />

    
    <glyph glyph-name="taishifuwu-pingjiahuixing" unicode="&#59110;" d="M533.065156 788.968776l111.474523-226.673575 20.190872-40.969828 44.955728-7.841115 254.052136-44.432987-181.195106-170.609601-35.677075-33.651453 8.95194-48.157517 45.282441-243.662658-227.7844 113.8922-39.989688 19.994844-40.055031-19.602788-230.202077-114.153571 46.981349 243.139918 9.474681 48.810942-36.395843 33.978167L102.587925 467.417705l254.509535 46.262581 44.563672 8.102485 19.929502 40.577772L533.195842 788.968776M533.195842 896a78.411153 78.411153 0 0 1-69.197843-44.106274L340.827146 602.088861l-274.439036-49.98711a76.385532 76.385532 0 0 1-63.317007-53.646298 84.945416 84.945416 0 0 1 21.171012-80.698145l197.661448-184.396895-51.947389-268.884913a79.32595 79.32595 0 0 1 30.776378-76.777587 76.646902 76.646902 0 0 1 80.698145-5.684809l251.765145 124.804419 249.67418-124.804419a87.232408 87.232408 0 0 1 36.461186-9.670709 67.760305 67.760305 0 0 1 44.106274 15.355518 77.757727 77.757727 0 0 1 30.776377 76.777587l-50.24848 268.81957 198.118847 186.48786a78.411153 78.411153 0 0 1 19.210732 80.698145 74.490596 74.490596 0 0 1-61.552755 53.71164l-274.439036 48.026831L602.197656 851.893726A76.320189 76.320189 0 0 1 532.999814 896z"  horiz-adv-x="1065" />

    
    <glyph glyph-name="taishifuwu-jinhangzhong-moren" unicode="&#59111;" d="M627.692733 397.946763l-5.302952-2.297945a136.674745 136.674745 0 0 0-112.210461 0.883825c-78.130157 35.070188-131.230381 137.452512-131.230382 253.092215V850.005731h381.812533v-197.976869c0.176765-116.841706-53.877991-219.931089-133.068738-254.082099zM639.783463 292.488728l-6.434248 1.979768a226.648162 226.648162 0 0 1-135.43739-0.777766 228.062282 228.062282 0 0 1-158.416848-217.421025v-172.098464h461.144692v170.118695a228.062282 228.062282 0 0 1-160.856206 218.198792zM817.008113 660.761056V813.662834h65.403073V896H141.482755v-82.337166h65.438426v-155.16437a300.041015 300.041015 0 0 1 177.366062-274.480787 300.111721 300.111721 0 0 1-177.366062-274.516141v-155.16437H141.482755v-82.337166h741.03449v82.337166h-65.509132v152.901778a299.546073 299.546073 0 0 1-182.38619 276.743379 299.475367 299.475367 0 0 1 182.38619 276.778733zM734.670948 107.274297v-152.901778h-445.447955v155.16437a219.188676 219.188676 0 0 0 283.142275 209.501951l7.38878-2.262593a217.915968 217.915968 0 0 0 155.022959-209.50195z m-154.987606 343.984809l-7.353427-2.262593a219.188676 219.188676 0 0 0-283.177628 209.501951V813.662834h445.447955v-152.901778a217.951321 217.951321 0 0 0-154.810841-209.50195zM401.044571 76.234352h221.946211v-82.337166H401.044571z"  horiz-adv-x="1024" />

    
    <glyph glyph-name="taishifuwu-yiwancheng-xuanzhong" unicode="&#59112;" d="M151.001955 326.530573a421.909018 421.909018 0 1 1 843.818037 0 421.909018 421.909018 0 1 1-843.818037 0ZM512.042746 896a511.992581 511.992581 0 1 1 511.957255-511.957254A512.557812 512.557812 0 0 1 512.042746 896z m0-941.708842a429.71626 429.71626 0 1 0 429.680934 429.716261 430.210837 430.210837 0 0 0-429.680934-429.716261zM498.123953 310.138897l-139.435226 139.435225-58.183383-58.183384 197.618609-197.653936 288.550017 288.726652-58.183384 58.183384z"  horiz-adv-x="1024" />

    
    <glyph glyph-name="dangqianweizhi" unicode="&#59113;" d="M512 384m-512 0a512 512 0 1 1 1024 0 512 512 0 1 1-1024 0ZM416.256 391.710118a88.033882 88.033882 0 1 1 88.033882 88.033882 88.033882 88.033882 0 0 1-88.033882-88.033882zM533.624471 624.429176v60.717177h-58.729412v-60.747294a234.917647 234.917647 0 0 1-203.354353-203.354353H210.823529v-58.729412h60.747295a234.917647 234.917647 0 0 1 203.354352-203.354353v-60.747294h58.729412v60.777412a234.917647 234.917647 0 0 1 203.354353 203.354353h60.747294v58.729412h-60.777411a234.917647 234.917647 0 0 1-203.354353 203.354352z m-29.364706-408.786823a176.067765 176.067765 0 1 0 176.067764 176.067765 176.248471 176.248471 0 0 0-176.067764-176.067765z"  horiz-adv-x="1024" />

    
    <glyph glyph-name="taishifuwu-changyonggongneng" unicode="&#59092;" d="M1023.817062 289.831873a86.804389 86.804389 0 0 1-24.788187 61.924733L515.887904 833.799945a225.654823 225.654823 0 0 1-68.693463 43.905275 202.330145 202.330145 0 0 1-78.846557 18.293865H86.713834a83.511493 83.511493 0 0 1-60.8271-25.885818A83.511493 83.511493 0 0 1 0.000915 809.286166v-280.444948a198.122556 198.122556 0 0 1 18.293865-78.846558 195.378477 195.378477 0 0 1 43.905275-68.693462l482.958033-483.140971a82.322392 82.322392 0 0 1 60.8271-24.788187 86.804389 86.804389 0 0 1 61.924733 24.788187l331.118954 331.118954a86.987327 86.987327 0 0 1 24.788187 60.552692zM277.061498 617.566462a82.322392 82.322392 0 0 0-60.827101-24.788187 85.615288 85.615288 0 1 0 0 171.230575 84.609125 84.609125 0 0 0 85.615288-85.615287 78.297742 78.297742 0 0 0-24.788187-60.735631z m981.008503-265.809856L774.92903 833.891414a225.654823 225.654823 0 0 1-68.693462 43.905276 202.330145 202.330145 0 0 1-78.846558 18.293865H475.275524a198.122556 198.122556 0 0 0 78.846557-18.293865 195.378477 195.378477 0 0 0 68.693463-43.905276l483.140971-482.043339a86.804389 86.804389 0 0 0 24.788187-61.924732 82.322392 82.322392 0 0 0-24.788187-60.827101l-316.483862-317.581494a245.961013 245.961013 0 0 1 36.038913-30.367816 70.614318 70.614318 0 0 1 39.423279-9.146932 86.804389 86.804389 0 0 1 61.924733 24.788187l331.118954 332.216586a82.322392 82.322392 0 0 1 24.788187 60.8271 86.804389 86.804389 0 0 1-24.696718 62.016202z m0 0"  horiz-adv-x="1282" />

    
    <glyph glyph-name="taishifuwu-pingjia" unicode="&#59093;" d="M578.08949 869.322L707.091148 607.891103a47.155196 47.155196 0 0 1 35.522196-25.758785l288.436075-41.546428a47.155196 47.155196 0 0 0 26.17425-80.496204l-208.7708-203.47363a47.155196 47.155196 0 0 1-13.606455-41.546428l49.232517-287.293549a47.155196 47.155196 0 0 0-68.44774-49.751847L557.627874 13.673319a47.155196 47.155196 0 0 1-43.935347 0L255.68921-121.975768a47.155196 47.155196 0 0 0-68.44774 49.751847l49.232517 287.293549a47.155196 47.155196 0 0 1-13.502589 41.546428L14.200598 460.089686a47.155196 47.155196 0 0 0 26.17425 80.496204l288.539941 41.546428a47.155196 47.155196 0 0 1 35.522196 25.758785L493.438643 869.322a47.155196 47.155196 0 0 0 84.650847 0z"  horiz-adv-x="1071" />

    
    <glyph glyph-name="taishifuwu-fuwuzhan" unicode="&#59094;" d="M580.994228 327.012862h-138.011726a8.702813 8.702813 0 0 1-8.633004-8.749352v-17.521975a8.702813 8.702813 0 0 1 8.633004-8.749352h8.609735v-157.581421h120.792256v157.581421h8.609735a8.749352 8.749352 0 0 1 8.633005 8.749352v17.521975a8.749352 8.749352 0 0 1-8.633005 8.749352zM585.136209 896H438.863791A438.840522 438.840522 0 0 1 0.02327 457.159478v-146.295687A438.840522 438.840522 0 0 1 438.863791-127.97673h146.272418a438.840522 438.840522 0 0 1 438.840521 438.840521v146.295687A438.863791 438.863791 0 0 1 585.136209 896z m214.196246-488.939872a26.061901 26.061901 0 0 0-36.5332-4.653911l-1.023861 0.837704-25.596509 21.594147v-290.310958h25.899013a8.702813 8.702813 0 0 0 8.633005-8.726083v-26.294596a8.749352 8.749352 0 0 0-8.633005-8.749352h-500.295414a8.702813 8.702813 0 0 0-8.633004 8.749352v26.294596a8.702813 8.702813 0 0 0 8.633004 8.726083h25.875744V432.656638l-25.596509-20.942599a26.5971 26.5971 0 0 0-37.417443 3.63005l-0.139618 0.186157a26.922874 26.922874 0 0 0 3.839477 37.719947L494.24533 671.425533a26.62037 26.62037 0 0 0 19.592965 5.887197 26.201518 26.201518 0 0 0 15.567332-6.119893l265.971003-225.063127a28.365587 28.365587 0 0 0 3.955825-39.069582z"  horiz-adv-x="1024" />

    
    <glyph glyph-name="xiala" unicode="&#59095;" d="M1562.352712-111.223369L132.610923 495.531458A207.118903 207.118903 0 1 0 294.370786 876.837359L1652.863673 300.011214 3012.288594 876.837359a207.118903 207.118903 0 0 0 161.863423-381.305901L1744.203109-111.223369a206.393987 206.393987 0 0 0-90.510961-16.258834h-10.355945a207.118903 207.118903 0 0 0-80.983491 16.258834z"  horiz-adv-x="3303" />

    
    <glyph glyph-name="taishifuwu-chenmasongche" unicode="&#59096;" d="M281.701223 282.009544m28.412125 0l39.69786 0q28.412126 0 28.412125-28.412125l0-0.02327q0-28.412126-28.412125-28.412126l-39.69786 0q-28.412126 0-28.412125 28.412126l0 0.02327q0 28.412126 28.412125 28.412125ZM585.136209 896H438.863791A438.840522 438.840522 0 0 1 0.02327 457.159478v-146.295687A438.840522 438.840522 0 0 1 438.863791-127.97673h146.272418a438.840522 438.840522 0 0 1 438.840521 438.840521v146.295687A438.863791 438.863791 0 0 1 585.136209 896z m131.775485-214.242785a62.222788 62.222788 0 1 0-62.222788-62.222788 62.222788 62.222788 0 0 0 62.292597 62.222788z m-85.678499-530.220061v-29.598873a35.695496 35.695496 0 0 0-71.367722 0v29.76176h-192.974413v-29.76176a35.695496 35.695496 0 0 0-71.367722 0v29.76176h-29.110213a26.5971 26.5971 0 0 0-26.5971 26.5971V424.675181a26.224788 26.224788 0 0 0 0.232696 3.560241l21.128755 155.906013-45.119666-8.283961v-28.947325a20.36086 20.36086 0 0 0 16.637732-20.011817v-58.173885a20.384129 20.384129 0 0 0-20.38413-20.38413h-5.817388a20.384129 20.384129 0 0 0-20.407399 20.38413v58.173885a20.36086 20.36086 0 0 0 19.82566 20.33759v32.87988a5.096032 5.096032 0 0 0 4.16525 5.026224l53.077853 9.749943a6.817979 6.817979 0 0 0 0.767895 0 26.504022 26.504022 0 0 0 24.083989 15.520793h338.781439a85.678498 85.678498 0 0 1 35.509339-58.778894 141.106576 141.106576 0 0 1-44.514657-27.039222l-1.652138 13.496342a20.779712 20.779712 0 0 1-19.662773 19.29046H321.399082a20.779712 20.779712 0 0 1-19.686043-19.29046l-12.774985-105.43435A21.547607 21.547607 0 0 1 308.600827 407.339363h262.364223v-123.328637c0-0.651548 0.139617-1.233286 0.186157-1.884834h-8.051266a21.431259 21.431259 0 0 1-21.431259-21.431259v-13.961733a21.431259 21.431259 0 0 1 21.431259-21.454529h53.659592a21.38472 21.38472 0 0 1 14.985593 6.143162l7.585874-79.605144h-8.144344z m206.633641 136.987865a15.357906 15.357906 0 0 0-15.334636-15.357905h-45.631596l-15.474253-162.32841a19.616234 19.616234 0 0 0-19.523156-17.7314h-49.959733a19.592965 19.592965 0 0 0-19.523156 17.7314l-15.474253 162.32841h-45.631596a15.357906 15.357906 0 0 0-15.357906 15.357905v127.121575a121.001682 121.001682 0 0 0 121.001682 121.001681 121.001682 121.001682 0 0 0 121.001682-121.001681z"  horiz-adv-x="1024" />

    
    <glyph glyph-name="taishifuwu-fuwuguanjia" unicode="&#59097;" d="M585.136209 896H438.863791A438.863791 438.863791 0 0 1 0.02327 457.159478v-146.295687A438.840522 438.840522 0 0 1 438.863791-127.97673h146.272418a438.840522 438.840522 0 0 1 438.840521 438.840521v146.295687A438.840522 438.840522 0 0 1 585.136209 896z m-56.638095-205.144389a133.61378 133.61378 0 0 0 22.687815-1.931373 132.776076 132.776076 0 0 0 79.279371-45.864292c1.512521-1.791756 2.955233-3.63005 4.351407-5.514884q3.443894-4.653911 6.492205-9.470709a87.004863 87.004863 0 0 0 43.32791-20.500477c4.072172-3.955824 1.675408-12.239785-3.443894-12.239785h-280.165432a132.845885 132.845885 0 0 0 127.470618 95.52152z m-132.450302-124.329228h264.877335c0.186156-2.838886 0.442122-5.654502 0.442121-8.539927a132.869154 132.869154 0 1 0-265.761578 0c0.02327 2.885425 0.255965 5.701041 0.442122 8.539927z m-119.419352-470.487116a24.386493 24.386493 0 0 0-24.130528 26.969414 277.210199 277.210199 0 0 0 382.365314 229.065491c3.816207-1.931373 4.351407-4.444485 3.769668-10.168795-0.5352-3.723129-8.004727-10.401491-8.004727-10.401491l-85.329455-49.261646a44.049266 44.049266 0 0 1-21.966459-38.045721v-107.900923a43.979457 43.979457 0 0 1 20.942599-37.231287c0.442122-0.977321 0.837704-1.977912 1.279825-2.931963z m494.989956 40.326138a17.545244 17.545244 0 0 0-8.772622-15.195019l-74.741808-43.188293v69.94828h-0.302504a59.267554 59.267554 0 0 1 4.909876 103.433168 10.564378 10.564378 0 0 1-11.844204 1.908104c-1.884834-1.070399-1.396173-6.980866-1.396173-6.980866v-16.451575a18.406217 18.406217 0 0 0-16.125801-18.615644 17.871018 17.871018 0 0 0-19.639504 17.77794v18.615643a6.748171 6.748171 0 0 1-9.86629 5.957006 59.314094 59.314094 0 0 1 1.02386-105.667045h-0.186157v-70.739445L558.515839 121.123847a17.521974 17.521974 0 0 0-8.749353 15.14848v107.900922a17.521974 17.521974 0 0 0 8.749353 15.14848l98.61637 56.917329a7.167023 7.167023 0 0 0 3.606781 0.954052 6.980866 6.980866 0 0 0 3.606781-0.954052l98.569831-56.89406a17.475435 17.475435 0 0 0 8.749353-15.148479z"  horiz-adv-x="1024" />

    
    <glyph glyph-name="taishifuwu-jinrongzhuanyuan" unicode="&#59098;" d="M585.136209 896H438.863791A438.863791 438.863791 0 0 1 0.02327 457.159478v-146.295687A438.840522 438.840522 0 0 1 438.863791-127.97673h146.272418a438.840522 438.840522 0 0 1 438.840521 438.840521v146.295687A438.840522 438.840522 0 0 1 585.136209 896z m-73.136209-225.202745a118.674726 118.674726 0 1 0-118.674726-118.674726 118.674726 118.674726 0 0 0 118.674726 118.674726z m231.881107-573.57124H280.095623A62.827796 62.827796 0 0 0 218.733809 175.062673a303.993455 303.993455 0 0 0 187.552606 206.19152l62.222788-166.074808h11.634777l18.871609 107.272644-28.784439 44.421579 23.851293 32.763532c5.957006 0.349043 11.844203 0.907513 17.894287 0.907513s11.937281-0.558469 17.894288-0.907513l23.828023-32.763532-28.784438-44.421579 18.871608-107.272644h11.634777l62.222788 166.074808a303.993455 303.993455 0 0 0 187.552606-206.19152 62.827796 62.827796 0 0 0-61.315275-77.836658z"  horiz-adv-x="1024" />

    
    <glyph glyph-name="taishifuwu-yijianbaoxiu" unicode="&#59099;" d="M603.448128 160.691337l161.868663-161.357576 86.008699-114.994652 45.705811-12.266097 126.968699 126.895687-12.339109 46.508948-114.556577 84.913512-170.703173 170.703173-120.908663-120.470589a120.981676 120.981676 0 0 0-2.117362-19.932406z m281.390089-94.916221a53.737184 53.737184 0 1 0-50.086559-25.481355 53.664171 53.664171 0 0 0 50.086559 25.773405zM533.94025 493.044135l-94.916221 94.551159a157.560927 157.560927 0 0 1 19.494331 69.799929A250.651836 250.651836 0 0 1 220.497683 894.8318c-0.438075 0-14.237433-13.945383-21.903744-21.392656 97.690695-97.25262 89.659323-81.481925 89.659323-141.060107a166.468449 166.468449 0 0 0-125.216399-124.924349c-61.476506 0-41.83615-10.148734-141.571195 89.221248-7.66631-7.66631-21.465668-21.173619-21.53868-21.903743a252.769198 252.769198 0 0 1 238.166702-237.217541 158.145027 158.145027 0 0 1 68.923779 18.691195L393.172193 370.31016a142.228307 142.228307 0 0 0 19.713368 2.190375l121.054689 120.5436z m388.207344-206.990374l64.83508-63.009768s93.528984 258.464171-17.522995 369.151087l-146.024955 145.659893c-10.075722 10.002709-38.258538 0.87615-45.632799 10.513797a181.362995 181.362995 0 0 0-29.204991 55.781533 149.821604 149.821604 0 0 1-45.924848 60.527344L695.808913 871.54082C680.476292 886.727415 672.590945 896 663.31836 896c-7.739323 0-16.50082-6.425098-31.395365-21.173619L543.139822 786.043209c-32.563565-32.41754-24.824242-35.630089 3.212549-63.593869l6.863173-6.79016c20.443494-20.443494 43.807487-46.216898 67.901604-46.216898h0.87615a105.21098 105.21098 0 0 0 73.815615-46.216899 81.92 81.92 0 0 0-18.764207-87.614973l-238.458752-237.290553a75.859964 75.859964 0 0 1-22.414831 3.431587 47.239073 47.239073 0 0 1-34.534902-13.799358l-7.66631-7.301248-247.074225-246.709162-7.301247-7.301248c-48.480285-48.261248 40.010838-152.523066 104.480855-152.523066a47.239073 47.239073 0 0 1 34.680927 13.799358l7.301248 7.301248 247.074224 246.417112 7.666311 7.301248a53.518146 53.518146 0 0 1 10.075721 56.87672l267.006632 266.203494a104.261818 104.261818 0 0 0 42.639286 26.722567 7.301248 7.301248 0 0 0 3.723637-0.87615c96.741533-55.343458 77.685276-211.736185 77.685276-211.736185z"  horiz-adv-x="1024" />

    
    <glyph glyph-name="taishifuwu-dianhua" unicode="&#59100;" d="M790.046117 484.731177a33.272304 33.272304 0 1 1 66.641049 0A200.69468 200.69468 0 0 1 656.764018 684.557884a33.272304 33.272304 0 0 1 0-66.64105 133.764306 133.764306 0 0 0 133.282099-133.185657zM920.242089 478.269599a34.911809 34.911809 0 1 1 69.727176 0 349.118088 349.118088 0 0 1-348.153673 348.153674 34.911809 34.911809 0 1 1 0-69.727177 279.101588 279.101588 0 0 0 278.426497-278.426497z m-609.606474 34.911809a440.737476 440.737476 0 0 1 249.301177-326.454345 26.135636 26.135636 0 0 1 26.907167 2.60392l106.085607 76.092312a65.001545 65.001545 0 0 0 86.797315-0.482207L938.180201 116.51768s23.242392-37.997936 6.847343-58.636408a8308.431847 8308.431847 0 0 0-150.062912-171.183593 51.981947 51.981947 0 0 0-58.636409-9.644146A1239.369213 1239.369213 0 0 0 285.17507 214.116438 1158.069061 1158.069061 0 0 0 38.574255 708.186042c-11.090768 39.63744-4.725632 75.513664 25.364104 89.304792 39.058792 17.938112 207.638465 96.441461 207.638465 96.441461a51.017533 51.017533 0 0 0 56.032489-19.288292c16.877256-30.089736 111.486329-160.092825 123.059304-180.634856a41.276945 41.276945 0 0 0-6.847344-54.392984c-14.755544-12.633831-98.273849-82.939656-126.241872-106.085607a21.79577 21.79577 0 0 1-6.943786-20.44559z"  horiz-adv-x="1024" />

    
    <glyph glyph-name="taishifuwu-chexianzhuanyuan" unicode="&#59101;" d="M784.695905 249.036586a12.030359 12.030359 0 0 1-16.777348 0l-49.773577-49.796846-26.504022 26.480753a11.914012 11.914012 0 0 1-8.493387 3.513702 12.053629 12.053629 0 0 1-8.539927-20.547016l34.904332-34.904331a12.076899 12.076899 0 0 1 17.033313 0l58.360042 58.336772a12.053629 12.053629 0 0 1-0.302504 17.033314zM585.136209 896H438.863791A438.840522 438.840522 0 0 1 0.02327 457.159478v-146.295687A438.840522 438.840522 0 0 1 438.863791-127.97673h146.272418a438.840522 438.840522 0 0 1 438.840521 438.840521v146.295687A438.840522 438.840522 0 0 1 585.136209 896zM239.699677 121.263464h-0.418852a39.418625 39.418625 0 0 0-39.209198 39.558242c0.814434 50.890515 9.028587 80.88497 72.810435 95.614598 77.208381 17.801209 153.369631 33.740854 116.766622 101.199291-108.57574 199.88547-30.948507 313.254738 85.63196 313.254738 114.32332 0 193.858656-109.157479 85.631959-313.254738-21.873381-41.303459-2.326955-63.17684 34.159705-78.139163l7.167023-107.831114a80.466118 80.466118 0 0 1 22.362042-50.425123z m577.340908 56.312321a65.945916 65.945916 0 0 0-28.784438-50.192428 82.769804 82.769804 0 0 0-127.982548 0 65.992456 65.992456 0 0 0-28.807708 50.192428l-6.817979 102.688543a16.474844 16.474844 0 0 0 13.519611 17.312548l68.645184 12.309594a99.058492 99.058492 0 0 0 34.904332 0l68.645184-12.309594a16.451575 16.451575 0 0 0 13.542881-17.335818z"  horiz-adv-x="1024" />

    
    <glyph glyph-name="wodeshoucang-gouwuche" unicode="&#59091;" d="M512 384m-512 0a512 512 0 1 1 1024 0 512 512 0 1 1-1024 0ZM736.784516 272.284903h-408.642064l-49.548387 342.907871h-47.203097v49.548387h89.979871l49.548387-342.907871h322.956387l34.056258 235.189678h-303.004903v49.548387h360.414967zM411.614968 123.012129a65.370839 65.370839 0 1 0 65.370838 65.370839 65.469935 65.469935 0 0 0-65.370838-65.370839z m0 81.19329a15.822452 15.822452 0 1 1 15.822451-15.822451 15.855484 15.855484 0 0 1-15.822451 15.822451zM655.987613 123.012129a65.370839 65.370839 0 1 0 65.370839 65.370839 65.469935 65.469935 0 0 0-65.370839-65.370839z m0 81.19329a15.822452 15.822452 0 1 1 15.822452-15.822451 15.855484 15.855484 0 0 1-15.822452 15.822451zM428.395355 406.528h213.520516v-49.548387h-213.520516z"  horiz-adv-x="1024" />

    
    <glyph glyph-name="huiyuan-shangchuanzhengjian-weixuanzhong" unicode="&#59085;" d="M512 384m-512 0a512 512 0 1 1 1024 0 512 512 0 1 1-1024 0ZM248.373895 410.947368h527.225263v-53.894736H248.373895zM485.052632 647.626105h53.894736v-527.225263h-53.894736z"  horiz-adv-x="1024" />

    
    <glyph glyph-name="huiyuan-wanshanxinxi" unicode="&#59086;" d="M512 384m-512 0a512 512 0 1 1 1024 0 512 512 0 1 1-1024 0ZM222.639158 90.704842l0.943158 190.005895L623.319579 680.421053l189.062737-189.089685L412.672 91.621053z m54.730105 167.585684l-0.565895-113.421473 113.421474 0.538947 345.923369 345.923368-112.855579 112.882527z"  horiz-adv-x="1024" />

    
    <glyph glyph-name="huiyuan-shangchuanzhengjian" unicode="&#59087;" d="M512 384m-512 0a512 512 0 1 1 1024 0 512 512 0 1 1-1024 0ZM248.373895 410.947368h527.225263v-53.894736H248.373895zM485.052632 647.626105h53.894736v-527.225263h-53.894736z"  horiz-adv-x="1024" />

    
    <glyph glyph-name="huiyuan-wancheng" unicode="&#59088;" d="M512.026947 384m-512 0a512 512 0 1 1 1024 0 512 512 0 1 1-1024 0ZM447.676632 178.499368l-225.172211 225.199158 38.103579 38.103579 187.068632-187.095579L763.418947 570.448842l38.103579-38.103579z"  horiz-adv-x="1024" />

    
    <glyph glyph-name="huiyuan-jiantou" unicode="&#59089;" d="M1603.017937 434.005462L1191.704696 879.018429a50.843909 50.843909 0 0 1-75.861172 0 61.365875 61.365875 0 0 1 0-82.041908l328.167631-354.950818H53.345635a58.201927 58.201927 0 0 1 0-116.035954h1373.742077l-328.167631-354.950818a61.365875 61.365875 0 0 1 0-82.041908 50.843909 50.843909 0 0 1 75.861172 0l406.972011 440.156674a57.539706 57.539706 0 0 1 36.790093 54.817239c0 1.471604 0 2.869627-0.367901 4.341231a60.335753 60.335753 0 0 1-15.157519 45.693295z"  horiz-adv-x="1618" />

    
    <glyph glyph-name="huiyuan-jiantoubai" unicode="&#59090;" d="M1603.017937 434.005462L1191.704696 879.018429a50.843909 50.843909 0 0 1-75.861172 0 61.365875 61.365875 0 0 1 0-82.041908l328.167631-354.950818H53.345635a58.201927 58.201927 0 0 1 0-116.035954h1373.742077l-328.167631-354.950818a61.365875 61.365875 0 0 1 0-82.041908 50.843909 50.843909 0 0 1 75.861172 0l406.972011 440.156674a57.539706 57.539706 0 0 1 36.790093 54.817239c0 1.471604 0 2.869627-0.367901 4.341231a60.335753 60.335753 0 0 1-15.157519 45.693295z"  horiz-adv-x="1618" />

    
    <glyph glyph-name="gouwuchedingwei" unicode="&#59081;" d="M595.999986 588.797171a61.425048 61.425048 0 1 1-61.425048-61.425048 61.425048 61.425048 0 0 1 61.425048 61.425048z m81.873123 0a143.298171 143.298171 0 1 0-143.298171 143.298171A143.298171 143.298171 0 0 0 677.953932 588.797171zM207.001624 575.623115a327.654137 327.654137 0 0 0 655.146629 0 318.602025 318.602025 0 0 0-163.827069-276.412715l-129.31589-125.274769a54.070207 54.070207 0 0 0-75.326506 0L358.543683 304.787147A317.389688 317.389688 0 0 0 207.001624 575.623115z m306.721127-342.687109z m40.815328 0z m-20.043963 18.831626l116.303479 111.777423 4.930168 2.424673a237.537126 237.537126 0 0 1 122.850096 207.632826 244.97279 244.97279 0 0 1-489.783935 2.020561 236.728902 236.728902 0 0 1 117.111704-204.723219l4.121944-2.424673 3.717831-3.313719zM887.203206 199.717987H780.355952a40.976973 40.976973 0 1 0 0 81.873123h136.347442a40.976973 40.976973 0 0 0 40.976973-27.883739l109.352749-327.573315a40.976973 40.976973 0 0 0-40.976972-54.070206H43.174556a40.976973 40.976973 0 0 0-40.976973 54.070206l109.352749 327.573315a40.976973 40.976973 0 0 0 40.976973 27.883739h136.347442a40.976973 40.976973 0 0 0 0-81.873123H182.027493l-81.873123-245.700192h868.921959zM411.805665 35.971741a40.976973 40.976973 0 0 0 0 81.873123h245.700191a40.976973 40.976973 0 0 0 0-81.873123z"  horiz-adv-x="1069" />

    
    <glyph glyph-name="dengdaifukuandizhi" unicode="&#59082;" d="M595.611492 587.999729a61.373178 61.373178 0 1 1-61.373178-61.373179 61.373178 61.373178 0 0 1 61.373178 61.373179z m81.85159 0a143.224768 143.224768 0 1 0-143.410936 143.224768 143.224768 143.224768 0 0 0 143.162712-143.224768zM206.707843 574.968012a327.406359 327.406359 0 0 0 654.62655 0 318.284157 318.284157 0 0 0-163.641123-276.148274L568.431055 173.653205a53.988539 53.988539 0 0 0-75.273676 0l-135.033403 130.937721a317.105097 317.105097 0 0 0-151.416133 270.377086z m306.431501-342.485916z m41.080935 0z m-20.044021 18.616738l116.168443 111.700425 4.902407 2.482232a237.301349 237.301349 0 0 1 122.746357 207.452513 244.748044 244.748044 0 0 1-489.30992 2.047841 236.494623 236.494623 0 0 1 117.037223-204.784114l4.095683-2.482232 3.661291-3.288957zM886.280822 199.344303h-106.798018a40.956823 40.956823 0 0 0 0 81.85159h136.522742a40.894767 40.894767 0 0 0 40.894767-27.800995l109.218194-327.282247a40.894767 40.894767 0 0 0-40.894767-53.988539H43.314943a40.894767 40.894767 0 0 0-40.894767 53.988539l109.218194 327.282247a40.894767 40.894767 0 0 0 40.894767 27.800995h136.522742a40.956823 40.956823 0 0 0 0-81.85159H181.761415L99.909825-46.14841h868.036419zM411.30579 35.703179a40.956823 40.956823 0 0 0 0 81.85159h245.492713a40.956823 40.956823 0 0 0 0-81.85159z"  horiz-adv-x="1069" />

    
    <glyph glyph-name="huiyuan-touxianghuizhang" unicode="&#59083;" d="M512 384l-443.398506 256.028536 251.40564 76.534612zM512 896v-512l-191.992866 332.506075zM703.992866 716.506075l-191.992866-332.506075v512zM955.398506 640.028536l-443.398506-255.971463 191.992866 332.563148zM955.398506 639.971464l-59.412774-255.971464h-383.985732zM955.398506 128.028536l-251.120276-76.534611-191.992866 332.506075zM703.992866 51.436852l-191.992866-179.436852v512zM512 384v-512l-191.992866 179.436852zM512 384l-191.992866-332.506075-251.40564 76.534611zM512 384l-443.398506-255.971464 59.412774 255.971464zM512 384h-383.985732l-59.412774 255.971464zM955.398506 128.028536l-443.398506 255.971464h383.985732zM511.954814 383.972515m-242.542907-242.542907a343.007469 343.007469 0 1 1 485.085814 485.085814 343.007469 343.007469 0 1 1-485.085814-485.085814ZM512 384m-276.460595 0a276.460595 276.460595 0 1 1 552.92119 0 276.460595 276.460595 0 1 1-552.92119 0ZM512 384m-227.377996 0a227.377996 227.377996 0 1 1 454.755992 0 227.377996 227.377996 0 1 1-454.755992 0ZM512 384m-227.377996 0a227.377996 227.377996 0 1 1 454.755992 0 227.377996 227.377996 0 1 1-454.755992 0ZM455.098428 331.43596h42.005574v112.433397h-36.41244v29.221268a133.493256 133.493256 0 0 1 48.911381 17.806711h34.814402v-159.461376h35.613421v-38.295842h-124.932338zM455.098428 331.43596h42.005574v112.433397h-36.41244v29.221268a133.493256 133.493256 0 0 1 48.911381 17.806711h34.814402v-159.461376h35.613421v-38.295842h-124.932338z"  horiz-adv-x="1024" />

    
    <glyph glyph-name="xuanzhong" unicode="&#59084;" d="M512 384m-512 0a512 512 0 1 1 1024 0 512 512 0 1 1-1024 0ZM124.288 304.704l40.704 57.6 191.552-147.2 466.368 379.84 39.296-37.632-502.4-493.632z m0 0"  horiz-adv-x="1024" />

    
    <glyph glyph-name="offer" unicode="&#59075;" d="M681.351926 518.727645l-212.663481-212.663481-112.659971 112.659971a22.841541 22.841541 0 1 1-32.302682-32.277719l128.811312-128.811311a22.841541 22.841541 0 0 1 32.277718 0l228.814822 228.814822a22.841541 22.841541 0 1 1-32.277718 32.277718zM512 896a512 512 0 1 1 511.975037-512A511.975037 511.975037 0 0 1 512 896z m6.715163-822.595027a314.539249 314.539249 0 1 0 314.539249 314.539249 314.539249 314.539249 0 0 0-314.564212-314.539249z"  horiz-adv-x="1024" />

    
    <glyph glyph-name="toudijianli" unicode="&#59076;" d="M641.884739 365.302389H381.191614a25.213067 25.213067 0 0 1 0-50.426134h261.566845a25.213067 25.213067 0 1 1-0.87372 50.426134zM642.359044 227.354461H381.665919a25.23803 25.23803 0 0 1 0-50.451097h260.693125a25.23803 25.23803 0 0 1 0 50.451097zM512 896a512 512 0 1 1 512-512A511.975037 511.975037 0 0 1 512 896z m26.411312-346.61726l0.599122 129.809849a23.141102 23.141102 0 0 0 39.092735 16.650609l200.106875-191.020185a23.116138 23.116138 0 0 0-15.976597-39.941492h-139.795222a83.92706 83.92706 0 0 0-84.00195 83.85217z m250.158556-364.141589a111.811214 111.811214 0 0 0-111.686397-111.686397H347.091565a111.836177 111.836177 0 0 0-111.686397 111.686397V594.316919a111.811214 111.811214 0 0 0 111.686397 111.686396h147.009654a26.311458 26.311458 0 0 1-0.449342-4.768015l-0.748903-169.376889v-0.624086a109.389761 109.389761 0 0 1 109.464652-109.364798h182.233057a33.475963 33.475963 0 0 1 3.919258 0.324525z"  horiz-adv-x="1024" />

    
    <glyph glyph-name="jiameng-dianhua" unicode="&#59077;" d="M511.897641 896a511.795282 511.795282 0 1 1 511.795282-511.795282 511.795282 511.795282 0 0 1-511.795282 511.795282z m259.684926-693.994402l-77.792883-77.690524a20.471811 20.471811 0 0 0-14.227909-6.039184h-2.456617a528.377449 528.377449 0 0 0-430.522191 428.986805 20.471811 20.471811 0 0 0 5.42503 18.322271l77.690524 77.792883a19.652939 19.652939 0 0 0 15.558576 5.936825 20.471811 20.471811 0 0 0 14.637345-7.676929l100.004798-127.334666a20.471811 20.471811 0 0 0-1.637745-26.920432l-49.644142-49.644142a381.79928 381.79928 0 0 1 157.223511-157.121152l49.644142 49.644142a20.471811 20.471811 0 0 0 26.818073 1.637745l127.334666-100.004798a20.471811 20.471811 0 0 0 7.676929-14.637345 20.471811 20.471811 0 0 0-5.629748-15.251499z"  horiz-adv-x="1024" />

    
    <glyph glyph-name="zizhishenhe" unicode="&#59078;" d="M512 896a512 512 0 1 1 512-512A512 512 0 0 1 512 896z m230.712043-815.355631H259.295173v65.903461h483.41687z m43.935641 109.839102h-549.195514v77.536422a76.787518 76.787518 0 0 0 76.413066 77.561384h137.298879v74.890298a152.65139 152.65139 0 1 0 122.046221 0v-75.015115h137.298879a77.062116 77.062116 0 0 0 76.36314-77.511458z"  horiz-adv-x="1024" />

    
    <glyph glyph-name="mianshi" unicode="&#59079;" d="M511.975037 896a512 512 0 1 1 512-512A511.975037 511.975037 0 0 1 511.975037 896z m0-196.037835a149.406143 149.406143 0 1 0-149.38118-149.406144 149.406143 149.406143 0 0 0 149.38118 149.406144z m0-637.615992a379.743735 379.743735 0 0 0-278.791614 112.085811 292.94588 292.94588 0 0 0 557.583227 0 379.718771 379.718771 0 0 0-278.791613-112.085811zM528.500829 287.066992h-36.271868c-0.823793 0-1.647587-1.123354-1.647586-2.3216l-23.690297-132.480936c-0.374451-1.198245 0.823793-1.547733 1.647586-2.321599l39.941492-60.835885a2.496343 2.496343 0 0 1 4.094003-0.374451l43.211702 60.086982a4.593272 4.593272 0 0 1 1.198244 4.21882l-26.885616 131.682106c-0.374451 1.223208-0.773866 2.346563-1.59766 2.346563zM547.972306 359.810434l-1.997074-0.224671a232.709118 232.709118 0 0 0-70.247099 0.224671 8.462604 8.462604 0 0 1-7.663774-3.370063 6.365675 6.365675 0 0 1-1.173281-7.039688l24.064748-44.934179 0.973574-1.972111c1.697513-3.569771 3.719551-7.663774 8.038226-7.663774h24.963432c4.168893 0 5.96626 3.794442 7.48903 7.114578a23.989859 23.989859 0 0 0 1.173281 2.496344l23.690298 44.934178a6.315748 6.315748 0 0 1-1.198245 6.815017 8.762165 8.762165 0 0 1-8.113116 3.619698z"  horiz-adv-x="1024" />

    
    <glyph glyph-name="wangshangshenqing" unicode="&#59080;" d="M642.359044 272.238713H381.665919a25.23803 25.23803 0 0 1 0-50.451097h260.693125a25.23803 25.23803 0 0 1 0 50.451097zM381.665919 497.683471h139.021356a25.23803 25.23803 0 0 1 0 50.451098h-138.896539a25.23803 25.23803 0 0 1 0-50.451098zM641.884739 410.161677H381.16665a25.213067 25.213067 0 0 1 0-50.426133h261.566846a25.213067 25.213067 0 1 1-0.87372 50.426133zM512 896a512 512 0 1 1 512-512A512 512 0 0 1 512 896z m276.569868-479.597465v-236.927937c0-1.67255-0.174744-3.295173-0.249634-4.992687 0-2.171819 0-4.343637-0.324525-6.465529-0.174744-1.697513-0.524232-3.320137-0.773866-4.992686s-0.524232-4.094003-0.923647-6.091078c-0.249634-1.198245-0.649049-2.371526-0.923647-3.544807-0.574159-2.496343-1.123354-4.817942-1.847294-7.164505v-0.324525a122.720234 122.720234 0 0 0-3.644661-9.985373c-0.274598-0.674013-0.649049-1.273135-0.923647-1.947148-1.173281-2.646124-2.496343-5.292248-3.769478-7.813554-0.249634-0.449342-0.574159-0.87372-0.823794-1.348025a112.185666 112.185666 0 0 0-18.398049-24.36431l-0.399415-0.374452c-2.496343-2.496343-4.992686-4.668162-7.48903-6.83998-0.823793-0.674013-1.722477-1.273135-2.496343-1.922185-1.972111-1.547733-3.944222-3.095466-6.016188-4.493418-1.198245-0.79883-2.496343-1.472843-3.644661-2.196782-1.847294-1.148318-3.644661-2.346563-5.566845-3.370063-0.848757-0.474305-1.772404-0.848757-2.646124-1.273135-2.346563-1.198245-4.693125-2.496343-7.114578-3.444954h-0.224671c-3.27021-1.372989-6.61531-2.496343-9.985373-3.694588-1.922184-0.599122-3.944222-1.023501-5.916334-1.522769-1.572696-0.399415-3.145392-0.898684-4.768015-1.223208s-3.794442-0.574159-5.691663-0.87372-3.569771-0.649049-5.392101-0.848757-3.020575-0.124817-4.518382-0.224671c-2.296636-0.124817-4.568308-0.349488-6.889907-0.349488H347.116529a111.811214 111.811214 0 0 0-111.686397 111.686397V588.575329c0 1.647587 0.174744 3.295173 0.249634 4.992687 0 2.171819 0 4.343637 0.324525 6.465529 0.174744 1.697513 0.524232 3.320137 0.748903 4.992686s0.524232 4.094003 0.923647 6.091078c0.249634 1.198245 0.649049 2.371526 0.923647 3.56977 0.574159 2.496343 1.123354 4.817942 1.847294 7.139542 0 0.174744 0.124817 0.349488 0.174744 0.524232 1.048464 3.320137 2.221745 6.565383 3.56977 9.735739 0.773866 1.772404 1.67255 3.444954 2.496344 5.16743s1.422916 3.095466 2.221745 4.593272 1.847294 3.020575 2.745978 4.543345 1.822331 3.170356 2.820868 4.668162 2.096928 2.795904 3.145392 4.193856 2.121892 2.995612 3.295173 4.393564c2.071965 2.496343 4.268747 4.992686 6.54042 7.189469l0.674012 0.748903c1.772404 1.772404 3.719551 3.444954 5.616772 4.992686 0.79883 0.674013 1.497806 1.422916 2.3216 2.096929s2.246709 1.67255 3.370063 2.496343c1.74744 1.323062 3.41999 2.696051 5.242321 3.919259 0.649049 0.449342 1.372989 0.79883 2.047001 1.248171 2.346563 1.497806 4.693125 3.020575 7.139542 4.343638 1.67255 0.923647 3.444954 1.67255 5.167431 2.496343s3.020575 1.547733 4.568308 2.221745 2.496343 0.923647 3.869332 1.422916c2.121892 0.79883 4.21882 1.647587 6.390638 2.346563 1.622623 0.499269 3.295173 0.848757 4.992687 1.273135s3.794442 1.073428 5.741589 1.472842 3.619698 0.549196 5.442029 0.848757 3.744515 0.674013 5.666699 0.87372c1.397952 0.124817 2.820868 0 4.243783 0.224671 2.496343 0.149781 4.743052 0.374451 7.164506 0.374452h329.791906a111.811214 111.811214 0 0 0 111.686397-111.686397z"  horiz-adv-x="1024" />

    
    <glyph glyph-name="denglu-shoujihao" unicode="&#59073;" d="M752.944673 896H271.055327A78.41254 78.41254 0 0 1 192.761684 817.706357v-867.353266a78.41254 78.41254 0 0 1 78.293643-78.293643h481.889346a78.41254 78.41254 0 0 1 78.293643 78.293643V817.706357A78.41254 78.41254 0 0 1 752.944673 896z m17.834543-770.987286H252.745196V691.2h518.03402v-566.187286zM270.817533 835.778694h481.889347a17.834543 17.834543 0 0 0 17.834542-17.834543v-66.285051H252.507402V817.706357a17.834543 17.834543 0 0 0 18.547925 18.072337z m481.889347-903.616836H270.817533a17.834543 17.834543 0 0 0-17.834543 17.834543v114.795007h518.03402v-114.438317a17.834543 17.834543 0 0 0-18.072337-18.072336zM512 47.908041a54.21701 54.21701 0 1 1 54.21701-54.217011 54.276459 54.276459 0 0 1-54.21701 54.217011z m0-60.221307a5.944848 5.944848 0 1 0 5.944848 5.944848 5.944848 5.944848 0 0 0-5.944848-5.944848z"  horiz-adv-x="1024" />

    
    <glyph glyph-name="weixin1" unicode="&#59074;" d="M512 896a511.819194 511.819194 0 1 1 511.819194-511.819194 511.819194 511.819194 0 0 1-511.819194 511.819194z m-92.850678-632.541765a382.167604 382.167604 0 0 0-77.468285 11.126504l-77.357021-38.748051 22.253008 66.536495a181.528916 181.528916 0 0 0-88.706055 149.234238c0 105.312362 99.610029 188.177003 221.250537 188.177003 108.789395 0 204.087904-66.230516 223.225491-155.381632a191.403689 191.403689 0 0 1-21.362888 1.335181 181.250754 181.250754 0 0 1-188.093554-175.242442 165.395485 165.395485 0 0 1 6.8428-46.425338 252.849808 252.849808 0 0 0-20.639665-0.862304z m326.312553-77.551735l16.689756-55.298726-60.667264 33.379513a278.691115 278.691115 0 0 0-66.42523-11.126504c-105.25673 0-188.149186 71.849401-188.149187 160.555456s82.836824 160.555456 188.149187 160.555456c99.443132 0 187.982289-72.071931 187.982289-160.555456a167.676419 167.676419 0 0 0-77.551735-127.481922zM502.18086 490.411105a27.649363 27.649363 0 1 1 0 55.27091 28.094423 28.094423 0 1 1 0-55.27091z m-154.79749 55.27091a28.122239 28.122239 0 1 1 0-55.27091 27.649363 27.649363 0 0 1 0 55.27091z m226.758156-160.499824a22.253008 22.253008 0 0 1 0-44.25567 22.670252 22.670252 0 1 1 0 44.25567z m121.723956 0a22.253008 22.253008 0 0 1 0-44.25567 22.670252 22.670252 0 1 1 0 44.25567z"  horiz-adv-x="1024" />

    
    <glyph glyph-name="dingdanbianhao1" unicode="&#59059;" d="M948.450818 895.9991a153.527828 153.527828 0 0 0 154.068102-153.077601v-183.69312h-200.711748v-687.228379H786.818881l-110.305918 108.054777-110.035781-108.054777h-7.65388l-109.945735 108.054777-109.945735-108.054777h-7.743926l-109.945735 108.054777-110.576055-108.054777H-0.270121V666.292654A230.336765 230.336765 0 0 0 230.877055 895.909054zM794.29267 788.844779H223.583358a115.258428 115.258428 0 0 1-115.618611-114.8082v-654.901992l113.637607 111.206375 113.817698-111.476511 113.817698 111.476511 113.817698-111.476511 113.727652 111.476511 117.50957-115.078337V788.844779zM595.742018 447.841914v-107.154321H226.104636v107.154321z m88.694962 218.540785v-107.15432h-458.332344V666.382699z m264.013838 122.46208a46.103371 46.103371 0 0 1-46.193417-45.92328v-76.5388h92.476879V742.921499a46.103371 46.103371 0 0 1-46.283462 45.92328z"  horiz-adv-x="1102" />

    
    <glyph glyph-name="gouwuche" unicode="&#59060;" d="M908.674272-51.53267a41.54475 41.54475 0 1 0 41.544751 41.482276 41.54475 41.54475 0 0 0-41.544751-41.482276zM253.829053 704.14447l715.256909 8.433896-15.243487-76.467329H268.947593l-15.11854 68.033433z m680.521749-138.753219l-67.03386-293.124763H355.535599L288.626685 565.391251z m-605.678726-616.923921a41.54475 41.54475 0 1 0 41.54475 41.482276 41.54475 41.54475 0 0 0-41.54475-41.482276z m-3.123665 253.141846h545.766823A70.594839 70.594839 0 0 1 937.099628 248.776524l103.393325 449.370508a60.911476 60.911476 0 0 1-8.558843 56.225978 65.90934 65.90934 0 0 1-56.225977 28.737721H234.212434L208.286011 896H39.670551C19.928985 896 0 885.379538 0 864.763346a42.419376 42.419376 0 0 1 39.670551-39.670551h108.641083l128.132756-555.450186a135.816973 135.816973 0 0 1-68.720639-115.263254 113.201635 113.201635 0 0 1 32.736014-78.029163 134.44256 134.44256 0 0 1-32.736014-77.841742 123.759624 123.759624 0 0 1 113.826368-126.32103A122.760051 122.760051 0 0 1 443.185651-9.862974a110.640229 110.640229 0 0 1-4.498079 27.17589 131.193948 131.193948 0 0 0-3.935818 19.804038h359.533891a128.070282 128.070282 0 0 1-6.247331-46.979928 117.63724 117.63724 0 1 1 126.258556 117.63724H325.548411a50.97822 50.97822 0 0 0-46.917455 46.105302c4.185712 12.494662 18.741993 47.729608 46.917455 47.729608z"  horiz-adv-x="1044" />

    
    <glyph glyph-name="dengdaifukuan-weizhi" unicode="&#59061;" d="M595.611492 587.999729a61.373178 61.373178 0 1 1-61.373178-61.373179 61.373178 61.373178 0 0 1 61.373178 61.373179z m81.85159 0a143.224768 143.224768 0 1 0-143.410936 143.224768 143.224768 143.224768 0 0 0 143.162712-143.224768zM206.707843 574.968012a327.406359 327.406359 0 0 0 654.62655 0 318.284157 318.284157 0 0 0-163.641123-276.148274L568.431055 173.653205a53.988539 53.988539 0 0 0-75.273676 0l-135.033403 130.937721a317.105097 317.105097 0 0 0-151.416133 270.377086z m306.431501-342.485916z m41.080935 0z m-20.044021 18.616738l116.168443 111.700425 4.902407 2.482232a237.301349 237.301349 0 0 1 122.746357 207.452513 244.748044 244.748044 0 0 1-489.30992 2.047841 236.494623 236.494623 0 0 1 117.037223-204.784114l4.095683-2.482232 3.661291-3.288957zM886.280822 199.344303h-106.798018a40.956823 40.956823 0 0 0 0 81.85159h136.522742a40.894767 40.894767 0 0 0 40.894767-27.800995l109.218194-327.282247a40.894767 40.894767 0 0 0-40.894767-53.988539H43.314943a40.894767 40.894767 0 0 0-40.894767 53.988539l109.218194 327.282247a40.894767 40.894767 0 0 0 40.894767 27.800995h136.522742a40.956823 40.956823 0 0 0 0-81.85159H181.761415L99.909825-46.14841h868.036419zM411.30579 35.703179a40.956823 40.956823 0 0 0 0 81.85159h245.492713a40.956823 40.956823 0 0 0 0-81.85159z"  horiz-adv-x="1069" />

    
    <glyph glyph-name="dengdaifukuan" unicode="&#59062;" d="M554.41915 128.45806H469.30328a42.641219 42.641219 0 1 1 0-85.282438h85.282438a42.641219 42.641219 0 0 1 0 85.282438z m341.129751-170.564876h-42.641218c0 179.115328-102.327821 281.443149-170.564876 358.175135-25.595836 25.595836-59.686602 51.191672-59.686602 68.237054 0 8.550453 25.595836 25.595836 42.641219 34.090766 68.237055 51.191672 187.610259 144.96904 187.610259 392.265901h42.641218a42.641219 42.641219 0 0 1 0 85.282438H128.006961a42.641219 42.641219 0 1 1 0-85.282438h42.641219c0-247.296861 119.373204-341.129751 187.610259-392.265901 17.045383-8.550453 42.641219-25.595836 42.641219-34.090766 0-17.045383-34.090766-42.641219-59.686602-76.731985a471.940574 471.940574 0 0 1-170.564876-349.791248H128.006961a42.641219 42.641219 0 1 1 0-85.282438h767.54194a42.641219 42.641219 0 0 1 0 85.282438z m-639.618283 0c0 144.96904 85.282438 230.251478 144.96904 298.488533 42.641219 42.641219 85.282438 85.282438 85.282438 127.701567 0 51.191672-34.090766 76.731985-76.731985 102.32782-68.237055 51.191672-153.519492 119.373204-153.519493 324.084369h511.694627c0-204.655642-85.282438-272.892696-153.519493-324.084369-42.641219-25.595836-76.731985-51.191672-76.731985-102.32782s42.641219-85.282438 85.282438-127.701567c59.686602-68.237055 144.96904-153.519492 144.96904-298.488533z"  horiz-adv-x="1024" />

    
    <glyph glyph-name="baoyangdingdan" unicode="&#59063;" d="M227.175247 744.873316h185.433123a49.833513 49.833513 0 0 1 38.293121 17.730239 67.039189 67.039189 0 0 1 13.533733 54.134932 31.00169 31.00169 0 0 1-2.15071 7.448798L448.016393 857.444598A52.87598 52.87598 0 0 1 397.343579 896H242.440039a52.928436 52.928436 0 0 1-50.672814-38.555402l-14.268121-33.257313a29.532913 29.532913 0 0 1-1.783516-5.612827 64.993392 64.993392 0 0 1 11.802674-54.344757 50.882639 50.882639 0 0 1 39.656985-19.356385z m21.821833 89.175759h141.632089l11.907586-27.696941H236.932124zM410.667486 310.639824a37.191537 37.191537 0 0 1-33.099943 22.29394 34.516265 34.516265 0 0 1-27.749398-14.320578 30.634496 30.634496 0 0 1-4.930895-7.134061L292.063726 205.727166a199.806157 199.806157 0 0 1-31.473797-101.60791 116.400594 116.400594 0 1 1 232.381538 0 247.436504 247.436504 0 0 1-26.490447 92.480508z m-34.14907-267.999385a58.436351 58.436351 0 0 0-54.502126 61.531274 140.478049 140.478049 0 0 0 21.612008 67.773577 31.054147 31.054147 0 0 1 2.57036 4.196506l31.106603 62.265663 29.847651-60.849342 2.622817-5.927565a207.831976 207.831976 0 0 0 20.982531-67.458839 59.118283 59.118283 0 0 0-54.239844-61.583731zM837.084985 436.954664L624.007377 612.63091 559.013985 667.6576l-0.57702 0.472106-51.72194 41.965064a101.922647 101.922647 0 0 1-64.154091 22.29394h-230.807848A73.806055 73.806055 0 0 1 139.205983 657.533528v-671.965576a110.945136 110.945136 0 0 1 108.060038-113.358127h529.336817a110.89268 110.89268 0 0 1 108.060038 113.358127v342.015266a146.248245 146.248245 0 0 1-47.577891 109.371446z m-13.953383-451.596537a49.256493 49.256493 0 0 0-46.318939-51.617028H247.633216a49.256493 49.256493 0 0 0-46.371395 51.617028V657.323703a12.746888 12.746888 0 0 0 10.806003 13.114082h230.807848a41.125762 41.125762 0 0 0 25.336407-8.550382l51.512115-41.545412 65.045849-55.02669 214.126735-176.568003a87.549613 87.549613 0 0 0 24.602018-61.373905zM520.720865 583.570104a73.438861 73.438861 0 0 1-55.813534 15.736899 74.225706 74.225706 0 0 1-50.358076-30.424671 80.31064 80.31064 0 0 1 13.42882-107.955125l236.053481-194.822807a75.799396 75.799396 0 0 1 46.895958-16.786025 72.494647 72.494647 0 0 1 59.59039 31.473798 80.153271 80.153271 0 0 1-12.589519 107.850212z m200.120895-265.953588l-1.154039-1.626147a10.491266 10.491266 0 0 0-16.733569-2.203165l-235.266636 194.088417a17.940065 17.940065 0 0 0-3.252292 24.339737 12.956713 12.956713 0 0 0 8.70775 5.612827h1.521234a11.592849 11.592849 0 0 0 7.238973-2.57036l236.053481-194.088418a17.992521 17.992521 0 0 0 2.937554-23.552891z"  horiz-adv-x="1024" />

    
    <glyph glyph-name="jiamengsantai-gongyingshangruzhu" unicode="&#59064;" d="M0 384.028132a512 512 0 1 1 512 512A512 512 0 0 1 0 384.028132zM694.041319 252.933626l-108.11077-108.082637v-28.441319h28.441319l51.2 54.041319 17.076044 14.206593 39.834725 39.834726z m62.565274 22.758682l-5.626373 5.626373-8.439561 8.439561a10.69011 10.69011 0 0 1-17.076044 0l-14.206593-19.917363 28.469451-28.441319 17.047912 17.076044a10.661978 10.661978 0 0 1 0 17.047912z m-71.117362 274.848351a26.865934 26.865934 0 0 1-28.441319 28.441319h-307.2a26.865934 26.865934 0 0 1-28.441319-28.441319v-354.461538a26.865934 26.865934 0 0 1 28.441319-28.469451h219.006593l116.606594 116.634726V550.540659z m-295.806594-155.400439h182.041319v-34.123956h-182.041319z m132.951209-133.907693h-132.951209v34.123957h132.951209z m94.579341 199.736264h-227.558682v34.123956h227.558682z"  horiz-adv-x="1024" />

    
    <glyph glyph-name="mendian-dianhua" unicode="&#59065;" d="M622.371557 182.260598c1.900371 1.200234 22.504395 14.102754 28.505567 17.703457a279.154522 279.154522 0 0 0 30.005861 15.903107c64.812659 29.405743 121.823794 8.60168 197.338543-79.315492a139.327212 139.327212 0 0 0 42.508302-145.928501 181.635476 181.635476 0 0 0-85.416683-81.81598c-3.000586-1.700332-30.005861-17.10334-36.307091-21.304161-107.220942-66.012893-353.068959 85.116624-530.103536 343.267044S45.658918 765.574526 154.380152 832.487595L168.682946 841.589373l15.503028 10.001953a180.035163 180.035163 0 0 0 132.025786 42.708342 158.731002 158.731002 0 0 0 107.120922-93.818324c63.212346-118.42313 49.309631-174.634108-32.106271-225.644071-5.801133-3.800742-26.605196-16.303184-28.505567-17.503419-20.003907-12.302403 13.802696-94.7185 92.218011-209.240867S600.767337 168.85798 622.471576 182.260598z"  horiz-adv-x="1024" />

    
    <glyph glyph-name="mendian-dizhi" unicode="&#59066;" d="M508.706378 577.791425a110.179903 110.179903 0 1 1 110.179903-110.179903 108.276796 108.276796 0 0 1-110.179903 110.179903zM903.951739 639.992989a368.802185 368.802185 0 0 1-92.450955 132.616537A447.13008 447.13008 0 0 1 675.979503 862.155739 435.811599 435.811599 0 0 1 509.607849 895.910854a385.629661 385.629661 0 0 1-166.371653-33.755115 408.166459 408.166459 0 0 1-135.521281-89.546213 467.763771 467.763771 0 0 1-93.652918-132.616537 432.506202 432.506202 0 0 1-33.755116-163.466911 557.910964 557.910964 0 0 1 58.69584-240.392516A758.037733 758.037733 0 0 1 268.714516 54.036231a994.023053 994.023053 0 0 1 218.657026-175.686864 36.159041 36.159041 0 0 1 24.439906-6.410467 50.081774 50.081774 0 0 1 24.439905 6.410467 1018.162468 1018.162468 0 0 1 218.556863 175.887191 869.419599 869.419599 0 0 1 129.711795 182.097331 561.917506 561.917506 0 0 1 58.695839 240.392516 505.525428 505.525428 0 0 1-39.564602 163.466911zM509.006868 263.678538A203.53233 203.53233 0 1 0 712.539198 467.210868a201.629223 201.629223 0 0 0-203.53233-203.53233z"  horiz-adv-x="1024" />

    
    <glyph glyph-name="mendian-lijichufa" unicode="&#59067;" d="M34.464287 578.316556L962.20949 889.427239a48.528885 48.528885 0 0 0 51.157989-2.300466 43.16113 43.16113 0 0 0 2.300466-51.157989l-306.728842-930.045669s-13.912344-27.934234-9.311412-23.223756a33.740173 33.740173 0 0 0-48.857522 0c-13.912344 13.912344-13.912344 23.223755-13.912344 23.223756L499.487122 370.945949 34.464287 508.09756s-9.311411 0-23.223755 13.912344a33.740173 33.740173 0 0 0 0 48.857523C6.639599 563.856482 34.464287 578.316556 34.464287 578.316556z"  horiz-adv-x="1024" />

    
    <glyph glyph-name="jiamengsantai-gongsizhaopin" unicode="&#59068;" d="M0 384.014168A511.985832 511.985832 0 1 1 511.985832 896 511.985832 511.985832 0 0 1 0 384.014168zM718.729723 206.513656a61.632122 61.632122 0 0 1-4.165481 20.88408 33.153831 33.153831 0 0 1-16.718599 20.88408 156.163046 156.163046 0 0 1-25.049561 14.62169 152.847663 152.847663 0 0 1-29.24338 8.359299c-10.427872 2.096909-18.787171 6.26239-29.243379 8.3593a226.692863 226.692863 0 0 0-22.952653 12.52478 39.217865 39.217865 0 0 0-12.553117 14.62169 49.220688 49.220688 0 0 0-4.165481 16.718599v16.718598a90.677145 90.677145 0 0 0 2.096909 10.456209c2.068572 2.068572 2.068572 6.26239 4.165481 8.359299l6.26239 6.26239c2.068572 2.096909 6.26239 4.165481 8.3593 6.262391a45.820295 45.820295 0 0 1 8.359299 10.427872l6.26239 12.52478a39.246202 39.246202 0 0 1 4.165482 16.718599c4.165481 0 6.26239 2.096909 10.456208 6.26239a45.763622 45.763622 0 0 1 8.3593 10.427872 39.472895 39.472895 0 0 1 4.165481 16.718599v14.621689a10.881257 10.881257 0 0 1-4.165481 8.3593l-6.262391 6.26239a281.297507 281.297507 0 0 1-2.068572 41.76816 243.694828 243.694828 0 0 1-8.3593 37.574342 158.146609 158.146609 0 0 1-18.815507 37.574342 96.741179 96.741179 0 0 1-14.62169 14.62169 184.754684 184.754684 0 0 1-20.88408 12.524781 117.28522 117.28522 0 0 1-25.049561 8.359299 77.557296 77.557296 0 0 1-25.049562 4.165481 102.011788 102.011788 0 0 1-25.049561-2.068572l-25.049561-6.26239a156.248056 156.248056 0 0 1-25.049562-14.62169 239.245981 239.245981 0 0 1-22.952652-22.980989 165.882503 165.882503 0 0 1-16.718599-33.408861 286.19974 286.19974 0 0 1-8.359299-35.477433 254.009353 254.009353 0 0 1-2.068573-39.671251c-2.096909-4.165481-4.165481-6.26239-6.26239-10.456208a26.579738 26.579738 0 0 1-2.068572-12.524781 52.139359 52.139359 0 0 1 2.068572-16.718599 34.003929 34.003929 0 0 1 6.26239-12.52478c2.068572-2.068572 4.165481-6.26239 6.262391-6.262391 2.096909-2.096909 4.165481-2.096909 6.26239-4.165481a49.419044 49.419044 0 0 0 4.165481-16.718599l6.262391-12.52478a45.905305 45.905305 0 0 1 6.26239-10.456209c6.26239-4.165481 10.456208-10.427872 16.690262-14.621689a26.494728 26.494728 0 0 0 8.359299-18.787172v-14.621689a26.579738 26.579738 0 0 0-2.068572-12.524781 43.865069 43.865069 0 0 0-8.359299-12.524781 116.180092 116.180092 0 0 0-16.718599-12.52478 71.039876 71.039876 0 0 0-31.340288-12.524781 227.372942 227.372942 0 0 1-35.50577-10.427872 127.514736 127.514736 0 0 1-29.243379-14.621689 43.723386 43.723386 0 0 1-14.62169-29.24338v-58.458422c2.068572-14.62169 4.165481-22.980989 8.359299-25.049561h398.837757a211.986164 211.986164 0 0 1 8.359299 20.88408 78.039018 78.039018 0 0 1 2.096909 22.980989 101.275037 101.275037 0 0 1-2.096909 25.049561z m-175.403603-29.243379l-8.359299-8.359299c-4.165481-2.096909-6.26239-6.26239-10.456209-8.500983s-6.26239-4.165481-8.359299-4.165481-4.165481 2.096909-8.359299 4.165481a36.83759 36.83759 0 0 0-10.427872 8.500983c-4.165481 2.068572-6.26239 6.26239-8.359299 8.359299a29.526745 29.526745 0 0 0-4.165482 6.26239 36.83759 36.83759 0 0 0 2.068573 12.524781c2.096909 6.26239 2.096909 12.524781 4.165481 18.787171a60.697014 60.697014 0 0 1 4.165481 18.787171c2.096909 6.26239 2.096909 10.456208 4.165482 12.524781-4.165481 2.096909-6.26239 6.26239-10.427872 10.456208-2.096909 4.165481-4.165481 6.26239-4.165481 8.359299a12.609791 12.609791 0 0 0 2.068572 8.3593l6.26239 6.26239c2.068572 2.096909 6.26239 4.165481 8.3593 6.262391h25.049561c2.068572-2.096909 6.26239-4.165481 8.359299-6.262391a28.704984 28.704984 0 0 0 6.262391-8.359299 12.496444 12.496444 0 0 0 2.096909-8.3593c0-4.165481-2.096909-6.26239-4.165482-10.427871s-6.26239-6.26239-8.359299-8.3593a52.932784 52.932784 0 0 1 4.165481-14.621689c2.068572-6.26239 2.068572-12.524781 4.165482-18.787171s2.068572-12.524781 4.165481-16.718599a91.272214 91.272214 0 0 1 2.068573-10.456208c2.096909-2.068572 0-4.165481-2.068573-6.262391z"  horiz-adv-x="1024" />

    
    <glyph glyph-name="shoucang1" unicode="&#59069;" d="M801.590857-127.554784a108.86756 108.86756 0 0 0-47.364218 12.071785l-222.571218 111.340983-223.974054-111.156399a101.262705 101.262705 0 0 0-106.763304 8.047856 104.105296 104.105296 0 0 0-40.091614 101.373455l45.813714 237.63326-175.465417 163.615133a108.092308 108.092308 0 0 0-27.281494 104.548297l0.369168 1.218254a101.742623 101.742623 0 0 0 82.804319 70.141866l243.946028 44.300126 109.458228 222.608134a103.366961 103.366961 0 0 0 91.184426 57.811665 100.598203 100.598203 0 0 0 91.553594-58.476167l109.125978-221.50063 243.982945-42.638872a99.37995 99.37995 0 0 0 81.216898-71.027869 102.813209 102.813209 0 0 0-25.435656-104.917465l-0.590669-0.590668-175.059331-164.870303 44.300126-238.039345a102.222541 102.222541 0 0 0-39.537863-100.819704 93.916267 93.916267 0 0 0-59.583669-20.710309z m-269.861602 207.287674l233.683165-116.8785a49.985309 49.985309 0 0 1 20.193475-5.648266 33.85268 33.85268 0 0 1 21.743978 7.383355l1.070587 0.886002a42.048203 42.048203 0 0 1 16.834047 41.309868l-47.031967 253.322888 186.023613 175.170082a42.454288 42.454288 0 0 1 10.262863 43.414124l-0.516835 1.587421a38.319609 38.319609 0 0 1-31.785341 27.724495h-1.070586l-257.383733 45.001545-115.84483 235.270587A40.608449 40.608449 0 0 1 531.618505 810.980305a42.380454 42.380454 0 0 1-36.916772-24.106652l-115.106495-233.683165-258.749653-46.99505a40.608449 40.608449 0 0 1-33.557346-28.684332 47.733386 47.733386 0 0 1 11.6657-43.967875l186.208197-173.508828-48.840889-253.507472a43.008039 43.008039 0 0 1 16.797131-41.125283 40.608449 40.608449 0 0 1 42.306621-2.953342l0.812169 0.479918 235.492087 116.841583z"  horiz-adv-x="1063" />

    
    <glyph glyph-name="zixundingdan" unicode="&#59070;" d="M638.030987 406.636189a30.742053 30.742053 0 0 1-30.742052 30.742053H202.675421a30.742053 30.742053 0 0 1 0-61.484106h404.613514a30.742053 30.742053 0 0 1 30.742052 30.742053zM202.623139 575.351502h404.613513a30.742053 30.742053 0 0 1 0 61.484106H202.623139a30.742053 30.742053 0 0 1 0-61.484106zM202.623139 237.764029a30.742053 30.742053 0 0 1 0-61.484106h178.282993a30.742053 30.742053 0 0 1 0 61.484106zM951.516273-2.107634l-91.912463 91.912463a203.90137 203.90137 0 0 1-9.253986 185.968506 30.480641 30.480641 0 0 1 1.72532 9.77681V784.899372A111.152388 111.152388 0 0 1 741.027321 895.947195H158.287661A111.152388 111.152388 0 0 1 47.239838 784.899372v-791.032751a111.152388 111.152388 0 0 1 111.047823-111.047823h582.948789a30.742053 30.742053 0 1 1 0 61.484105H158.287661a49.616 49.616 0 0 0-49.563717 49.563718V784.899372a49.616 49.616 0 0 0 49.563717 49.563717h582.948789a49.616 49.616 0 0 0 49.563718-49.563717v-443.354774a205.940384 205.940384 0 1 1-33.147043-354.840667l91.441922-91.441922a72.567975 72.567975 0 1 1 102.578074 102.578074z m-424.167132 175.82572a144.090302 144.090302 0 1 0 144.403996-144.403996 144.560843 144.560843 0 0 0-144.403996 144.403996z m380.668173-234.957118a11.083869 11.083869 0 0 0-15.68472 0l-82.501632 82.553914 1.51619 1.51619q6.483018 6.012476 12.390929 12.495494c0.522824 0.575106 1.150213 1.09793 1.620755 1.673037l82.606196-82.606196a11.083869 11.083869 0 0 0 0.052282-15.632439z"  horiz-adv-x="1024" />

    
    <glyph glyph-name="shouhuodizhi-bianji" unicode="&#59071;" d="M336.523606 326.991243a8.428261 8.428261 0 0 1-1.685652-2.899322l-52.659775-193.040891a33.713044 33.713044 0 0 1 8.428261-31.825113 32.836505 32.836505 0 0 1 31.757687-8.360835l191.624943 52.322644h0.67426a8.360835 8.360835 0 0 1 6.000922 2.494766l512.43827 512.438269a81.922697 81.922697 0 0 1 23.599131 58.525845 100.127741 100.127741 0 0 1-29.937183 70.257983l-48.344506 48.479358a100.330019 100.330019 0 0 1-70.257983 29.869757 81.855271 81.855271 0 0 1-58.525845-23.599131l-512.438269-512.43827c-0.471983-0.404557 0-1.146243-0.741687-1.685652zM983.072365 707.881214l-50.906697-50.83927L849.56871 740.919997l50.16501 50.16501a23.801409 23.801409 0 0 0 32.431948-2.359913l48.479357-48.479358a26.296174 26.296174 0 0 0 7.888853-18.407322 19.486139 19.486139 0 0 0-5.461513-13.9572zM427.885955 318.900112l369.832093 369.764667 82.529532-83.878054-369.090406-369.090406z m-67.426088-149.95562l26.970435 98.104958 71.269375-71.336801z m627.062619 335.984197a36.54494 36.54494 0 0 1-36.612366-35.466122v-479.466913a44.63607 44.63607 0 0 0-45.377757-44.501218H117.186541a43.220122 43.220122 0 0 0-43.759531 44.501218v788.885231a42.74814 42.74814 0 0 0 43.759531 43.894383h541.026931a36.612366 36.612366 0 0 1 35.263844 36.814644 36.140383 36.140383 0 0 1-35.263844 36.410088h-546.151314A112.534141 112.534141 0 0 1 0.269704 784.342398v-799.875683a113.275828 113.275828 0 0 1 111.859881-112.466715h798.662013a114.62435 114.62435 0 0 1 113.140976 112.466715v485.467834a36.477514 36.477514 0 0 1-36.410088 34.99414z"  horiz-adv-x="1056" />

    
    <glyph glyph-name="xinchedingdan" unicode="&#59072;" d="M452.213794 640.318035h-138.634683a73.146299 73.146299 0 0 1-55.255824-26.010508l-112.228077-113.48239a29.575399 29.575399 0 0 1-2.376594-2.640661A91.300841 91.300841 0 0 1 132.693857 401.536297a75.324844 75.324844 0 0 1 67.600913-44.957247H452.213794A80.870232 80.870232 0 0 1 528.594902 441.146207V555.750878A80.870232 80.870232 0 0 1 452.213794 640.318035zM450.95948 441.146207a13.533386 13.533386 0 0 0-1.650413-6.931735H203.13348a15.183799 15.183799 0 0 0 0 13.797452l111.567911 112.756209 1.71643 1.914479h132.891246a13.929485 13.929485 0 0 0 1.650413-6.601652zM1306.467507 320.798098a39.609909 39.609909 0 0 1-5.479371 0.3961l-654.289687-0.594149V705.938451a77.10729 77.10729 0 0 1-77.041274 77.041274H305.921195a76.513142 76.513142 0 0 1-54.463626-22.577648L22.512293 531.4568a76.513142 76.513142 0 0 1-22.577649-54.463625v-316.879276a77.10729 77.10729 0 0 1 76.975258-77.30534h62.51764a118.103547 118.103547 0 1 1 146.622682 0h520.210144a118.103547 118.103547 0 1 1 146.622681 0h158.439638a118.103547 118.103547 0 1 1 146.622681 0h43.042768a77.10729 77.10729 0 0 1 77.041274 77.041274v11.354841c0 2.310578 0 5.611404 0.528132 9.506378 2.046512 31.951994 8.384097 128.600173-72.090035 140.087046zM212.837908-49.224472a40.468124 40.468124 0 1 0 40.468124 40.468124 40.468124 40.468124 0 0 0-40.468124-40.468124z m666.766808 0a40.468124 40.468124 0 1 0 40.468125 40.468124 40.468124 40.468124 0 0 0-40.402108-40.468124z m304.930287 0a40.468124 40.468124 0 1 0 40.468124 40.468124 40.468124 40.468124 0 0 0-40.402108-40.468124z m116.453133 235.282862a255.351883 255.351883 0 0 1-0.726181-14.58965l0.594148-10.694676-1223.352053-0.594148V476.663092l228.483161 228.747227 263.075815 0.594149v-385.536452a77.10729 77.10729 0 0 1 77.041274-77.041274h650.46073c3.03676-3.564892 7.1958-15.90998 4.489123-57.434369zM885.480186 427.744854a232.378135 232.378135 0 0 1 94.601667 20.135037l99.684939-99.684939a85.425371 85.425371 0 0 1 120.810224 120.810224L1100.363945 569.218247a234.094565 234.094565 0 1 1-214.883759-141.473393z m171.642941 75.060778L1145.849324 414.079435a7.789949 7.789949 0 0 0 0-11.024758 7.855965 7.855965 0 0 0-11.024758 0l-88.66018 88.660181 1.056264 1.056264c2.706677 2.640661 5.413354 5.281321 7.987998 8.054015z m-171.642941 315.558945a156.459142 156.459142 0 1 0-156.459142-156.459142 156.657192 156.657192 0 0 0 156.459142 156.723209z"  horiz-adv-x="1380" />

    
    <glyph glyph-name="tubiao1yihuifu-041" unicode="&#59055;" d="M512.438857 383.853714m-504.978286 0a504.978286 504.978286 0 1 1 1009.956572 0 504.978286 504.978286 0 1 1-1009.956572 0ZM800.475429 266.971429l-5.997715 79.725714a82.797714 82.797714 0 0 1-15.506285 42.130286 88.502857 88.502857 0 0 1-35.254858 29.257142 2.340571 2.340571 0 0 0-1.609142 1.901715l-26.477715 124.196571a105.910857 105.910857 0 0 1-99.035428 80.457143H408.283429a105.910857 105.910857 0 0 1-99.181715-80.310857l-26.477714-124.342857a2.340571 2.340571 0 0 0-1.609143-1.901715 88.502857 88.502857 0 0 1-35.254857-29.257142 83.675429 83.675429 0 0 1-15.506286-42.130286l-5.851428-79.725714a74.313143 74.313143 0 0 1 45.787428-74.898286 2.925714 2.925714 0 0 0 1.609143-1.901714 60.416 60.416 0 0 1 115.565714-5.705143 2.486857 2.486857 0 0 0 2.486858 1.755428h245.174857a2.925714 2.925714 0 0 0 2.633143-1.755428 60.123429 60.123429 0 0 1 56.758857-39.936 60.416 60.416 0 0 1 58.514285 45.641143 3.218286 3.218286 0 0 0 1.609143 1.755428A74.605714 74.605714 0 0 1 800.475429 266.971429zM357.961143 425.691429a2.048 2.048 0 0 0 0 1.024l22.381714 93.622857A31.890286 31.890286 0 0 0 409.6 544.914286h205.824a31.597714 31.597714 0 0 0 29.257143-24.868572l21.504-93.476571a9.362286 9.362286 0 0 1 0-1.024 16.822857 16.822857 0 0 0-17.408-20.333714H375.369143a16.822857 16.822857 0 0 0-17.408 20.333714z m-4.096-161.645715a37.595429 37.595429 0 1 0 37.595428 37.595429 37.595429 37.595429 0 0 0-37.595428-37.595429z m317.001143 0a37.595429 37.595429 0 1 0 37.449143 37.595429 37.595429 37.595429 0 0 0-37.449143-37.595429z"  horiz-adv-x="1024" />

    
    <glyph glyph-name="tubiao1yihuifu-05" unicode="&#59056;" d="M513.609143 384m-506.294857 0a506.294857 506.294857 0 1 1 1012.589714 0 506.294857 506.294857 0 1 1-1012.589714 0ZM585.874286 467.382857a57.636571 57.636571 0 0 1-71.68-38.473143l-3.072-10.093714H406.674286a6.290286 6.290286 0 0 1 0-12.580571h23.990857v-27.062858c0-1.901714 2.633143-4.096 6.290286-4.096s6.290286 2.194286 6.290285 4.096v27.062858H512l2.925714-10.24A58.514286 58.514286 0 0 1 569.344 354.742857a57.344 57.344 0 0 1 16.530286 112.347429zM793.746286 356.352l-26.770286 40.082286a118.052571 118.052571 0 0 0-14.628571 31.305143l-53.394286 176.566857a23.698286 23.698286 0 0 1-22.966857 16.822857H351.085714A23.990857 23.990857 0 0 1 328.265143 603.428571L275.017143 427.885714a118.052571 118.052571 0 0 0-14.628572-31.305143L234.057143 355.766857a23.259429 23.259429 0 0 1-3.510857-17.261714l34.084571-183.734857a9.947429 9.947429 0 0 1 9.654857-7.899429h9.801143a24.283429 24.283429 0 0 1 19.894857 10.532572l26.770286 39.497142a48.128 48.128 0 0 0 39.936 21.065143H658.285714a48.128 48.128 0 0 0 39.789715-20.772571l27.355428-39.936a24.137143 24.137143 0 0 1 19.894857-10.386286h9.216a8.923429 8.923429 0 0 1 8.777143 7.168l33.938286 184.905143a24.283429 24.283429 0 0 1-3.510857 17.408z m-163.693715-4.534857a85.138286 85.138286 0 0 0-60.708571-25.161143 86.308571 86.308571 0 0 0-78.555429 51.2h-19.309714a34.816 34.816 0 0 0-69.193143 0 34.669714 34.669714 0 0 0-30.134857 34.377143 33.645714 33.645714 0 0 0 10.093714 24.429714 34.377143 34.377143 0 0 0 24.429715 10.24h84.114285a86.016 86.016 0 0 0 103.277715 47.250286 85.723429 85.723429 0 0 0 35.986285-142.628572z"  horiz-adv-x="1024" />

    
    <glyph glyph-name="tubiao1yihuifu-03" unicode="&#59057;" d="M511.122286 384.585143m-505.709715 0a505.709714 505.709714 0 1 1 1011.419429 0 505.709714 505.709714 0 1 1-1011.419429 0ZM283.648 209.188571m-37.449143 0a37.449143 37.449143 0 1 1 74.898286 0 37.449143 37.449143 0 1 1-74.898286 0ZM598.162286 209.188571m-37.449143 0a37.449143 37.449143 0 1 1 74.898286 0 37.449143 37.449143 0 1 1-74.898286 0ZM741.961143 209.188571m-37.449143 0a37.449143 37.449143 0 1 1 74.898286 0 37.449143 37.449143 0 1 1-74.898286 0ZM796.818286 350.500571H488.009143a17.993143 17.993143 0 0 0-17.993143 17.993143V550.180571a18.139429 18.139429 0 0 1-18.139429 17.993143h-124.342857a18.139429 18.139429 0 0 1-12.726857-5.266285l-107.958857-107.958858a17.993143 17.993143 0 0 1-5.266286-12.726857v-149.504A17.993143 17.993143 0 0 1 219.428571 274.724571h577.389715a17.993143 17.993143 0 0 1 17.993143 17.993143v5.412572c0 9.947429 6.582857 48.859429-17.993143 52.370285z m-349.037715 117.028572a19.894857 19.894857 0 0 0-17.700571-21.650286h-143.213714c-15.798857 0-23.698286 23.259429-12.580572 36.864l53.540572 54.125714a16.530286 16.530286 0 0 0 12.434285 6.290286h89.819429a19.894857 19.894857 0 0 0 17.700571-21.650286zM610.011429 417.206857a102.4 102.4 0 1 0 102.4 102.4 103.131429 103.131429 0 0 0-102.4-102.4z m0 184.173714a81.188571 81.188571 0 1 1 81.188571-81.042285 81.188571 81.188571 0 0 1-81.188571 81.042285zM727.478857 366.884571a35.84 35.84 0 0 0-25.307428 10.678858L636.781714 442.514286l12.726857 7.168a80.603429 80.603429 0 0 1 31.744 32.036571l7.021715 12.873143 65.097143-65.243429a36.571429 36.571429 0 0 0 0-51.785142 35.986286 35.986286 0 0 0-25.892572-10.678858zM672.914286 438.125714l43.885714-45.056a14.628571 14.628571 0 0 1 20.626286 0 14.628571 14.628571 0 0 1 0 20.772572l-45.056 45.056A102.4 102.4 0 0 0 672.914286 438.125714z"  horiz-adv-x="1024" />

    
    <glyph glyph-name="tubiao1yihuifu-02" unicode="&#59058;" d="M512 384m-506.587429 0a506.587429 506.587429 0 1 1 1013.174858 0 506.587429 506.587429 0 1 1-1013.174858 0ZM272.530286 202.459429m-38.034286 0a38.034286 38.034286 0 1 1 76.068571 0 38.034286 38.034286 0 1 1-76.068571 0ZM592.603429 202.459429m-38.034286 0a38.034286 38.034286 0 1 1 76.068571 0 38.034286 38.034286 0 1 1-76.068571 0ZM739.035429 202.459429m-38.034286 0a38.034286 38.034286 0 1 1 76.068571 0 38.034286 38.034286 0 1 1-76.068571 0ZM801.206857 343.917714H484.498286a18.432 18.432 0 0 0-18.432 18.578286V548.864a18.578286 18.578286 0 0 1-18.578286 18.432h-127.414857a18.432 18.432 0 0 1-13.165714-5.412571l-110.592-110.738286a18.432 18.432 0 0 1-5.412572-13.019429v-153.307428A18.285714 18.285714 0 0 1 209.334857 266.971429h591.872A18.285714 18.285714 0 0 1 819.2 284.818286v5.558857c0 10.093714 7.168 49.737143-17.993143 53.540571zM443.245714 464.603429A20.333714 20.333714 0 0 0 425.106286 442.514286H277.942857c-16.091429 0-24.283429 23.844571-12.726857 37.741714l54.710857 55.442286a16.969143 16.969143 0 0 0 12.873143 6.436571h92.013714a20.333714 20.333714 0 0 0 18.432-22.089143zM830.171429 523.264l-19.456 44.909714a36.571429 36.571429 0 0 1-37.156572 21.650286l-131.657143-14.628571a37.010286 37.010286 0 0 1-19.894857-8.630858l-100.352-86.893714a36.425143 36.425143 0 0 1-9.654857-41.398857l19.456-44.763429a36.278857 36.278857 0 0 1 37.156571-21.650285l131.657143 13.897143a36.278857 36.278857 0 0 1 19.894857 8.777142l100.352 86.893715a36.132571 36.132571 0 0 1 9.654858 41.837714z m-103.424-50.176a13.750857 13.750857 0 0 0 0-27.355429h-37.302858v-29.257142a13.750857 13.750857 0 0 0-27.355428 0v29.257142h-37.302857a13.750857 13.750857 0 0 0 0 27.355429h37.302857v16.822857h-37.302857a13.750857 13.750857 0 0 0 0 27.355429h21.065143l-11.117715 11.117714a13.604571 13.604571 0 1 0 19.309715 19.163429l23.113142-23.113143 23.113143 23.113143a13.604571 13.604571 0 1 0 19.309715-19.163429l-11.117715-11.117714h18.285715a13.750857 13.750857 0 0 0 0-27.355429h-37.302858v-16.822857z"  horiz-adv-x="1024" />

    
    <glyph glyph-name="dingdanbianhao" unicode="&#59054;" d="M948.450818 895.9991a153.527828 153.527828 0 0 0 154.068102-153.077601v-183.69312h-200.711748v-687.228379H786.818881l-110.305918 108.054777-110.035781-108.054777h-7.65388l-109.945735 108.054777-109.945735-108.054777h-7.743926l-109.945735 108.054777-110.576055-108.054777H-0.270121V666.292654A230.336765 230.336765 0 0 0 230.877055 895.909054zM794.29267 788.844779H223.583358a115.258428 115.258428 0 0 1-115.618611-114.8082v-654.901992l113.637607 111.206375 113.817698-111.476511 113.817698 111.476511 113.817698-111.476511 113.727652 111.476511 117.50957-115.078337V788.844779zM595.742018 447.841914v-107.154321H226.104636v107.154321z m88.694962 218.540785v-107.15432h-458.332344V666.382699z m264.013838 122.46208a46.103371 46.103371 0 0 1-46.193417-45.92328v-76.5388h92.476879V742.921499a46.103371 46.103371 0 0 1-46.283462 45.92328z"  horiz-adv-x="1102" />

    
    <glyph glyph-name="gongzuo-03" unicode="&#59053;" d="M520.753405 382.071284m-500.872791 0a500.87279 500.87279 0 1 1 1001.745581 0 500.87279 500.87279 0 1 1-1001.745581 0ZM716.295567 571.085482h-90.649667v21.660968a40.799768 40.799768 0 0 1-40.799768 40.948131h-127.740366a40.948131 40.948131 0 0 1-40.948131-40.948131v-21.660968H326.398145a73.29122 73.29122 0 0 1-74.181396-73.142857v-294.351782a73.29122 73.29122 0 0 1 74.181396-73.29122h390.194147a73.29122 73.29122 0 0 1 73.142857 73.29122v293.758331a72.549406 72.549406 0 0 1-73.439582 73.736308zM452.358157 343.200232a72.846132 72.846132 0 0 1 119.432049-28.782382 70.917415 70.917415 0 0 1 22.551144 52.965517v3.857433l149.846422 0.890177v-169.578673a28.040568 28.040568 0 0 0-25.963489-26.408578h-388.710519a26.408577 26.408577 0 0 0-26.55694 26.408578V375.98840900000005h144.950449a60.977108 60.977108 0 0 1 4.450884-32.788177z m68.395248-4.74761a29.672559 29.672559 0 0 0-30.414373 27.892206 20.770791 20.770791 0 0 0 1.928716 9.643581H548.942336a22.402782 22.402782 0 0 0 1.928716-9.643581 29.672559 29.672559 0 0 0-30.117647-27.892206zM578.614894 587.9988410000001c1.483628 0 1.483628-1.928716 1.483628-7.714865v-9.198494h-118.690235v7.269777c0 5.786149 1.928716 8.159954 5.192698 9.643582z m165.127789-88.127499v-77.593741H302.956824v75.071573A32.639815 32.639815 0 0 0 329.958853 525.0930169999999h385.743262c14.094465-2.67053 28.040568-12.314112 28.040568-25.221675z"  horiz-adv-x="1038" />

    
    <glyph glyph-name="tubiao1yihuifu-04" unicode="&#59052;" d="M517.266286 382.098286m-493.860572 0a493.860571 493.860571 0 1 1 987.721143 0 493.860571 493.860571 0 1 1-987.721143 0ZM665.6 205.824a29.257143 29.257143 0 0 0-4.973714 0L460.214857 252.342857a21.942857 21.942857 0 1 0 9.947429 42.715429l175.542857-40.667429 25.746286 324.754286-358.838858-252.781714 66.121143-14.628572a21.942857 21.942857 0 0 0-9.216-42.861714l-114.980571 24.868571A21.796571 21.796571 0 0 0 237.714286 310.857143a22.089143 22.089143 0 0 0 8.777143 22.381714l437.979428 309.248a21.942857 21.942857 0 0 0 34.523429-19.748571L687.542857 226.011429a21.942857 21.942857 0 0 0-21.942857-20.187429zM459.483429 130.779429a20.772571 20.772571 0 0 0-8.923429 1.901714 22.089143 22.089143 0 0 0-13.019429 20.041143v119.515428a22.235429 22.235429 0 0 0 3.803429 12.434286l95.524571 139.117714A21.942857 21.942857 0 1 0 573.001143 398.628571l-91.574857-133.558857v-63.780571l11.264 10.093714a21.942857 21.942857 0 0 0 29.257143-32.914286l-47.689143-42.422857a21.942857 21.942857 0 0 0-14.774857-5.266285z"  horiz-adv-x="1024" />

    
    <glyph glyph-name="zu308" unicode="&#59050;" d="M1342.526781-127.977245h-841.936846v0.13653a508.939446 508.939446 0 0 0-354.387147 153.573832A509.121486 509.121486 0 0 0-0.021162 384.011378 509.121486 509.121486 0 0 0 146.202788 742.289638 508.939446 508.939446 0 0 0 500.589935 895.886225V896h841.936846v-1023.977245zM472.419184 114.250261a21.685563 21.685563 0 0 0-11.377525 5.711518c-2.867136 2.867136-2.867136 5.711518-2.867137 11.377525v11.377525a40.094398 40.094398 0 0 0 34.314616 40.026132l11.377525 2.867137h5.711517a46.124486 46.124486 0 0 0 25.735961-8.578654l2.867137-2.867137h2.867136a152.75465 152.75465 0 0 1 114.480656 146.041911v122.877269a150.183329 150.183329 0 0 1-151.548632 148.704251 147.065887 147.065887 0 0 1-145.837115-148.704251v-177.284594a18.454345 18.454345 0 0 0-17.157308-17.157307h-37.181751a64.715362 64.715362 0 0 0-65.762094 65.762094v65.762094a66.513011 66.513011 0 0 0 65.762094 65.762094h8.578654v8.533144a198.788116 198.788116 0 0 0 197.309037 180.15173 194.055065 194.055065 0 0 0 194.464657-180.15173v-8.578654h8.578653a67.150152 67.150152 0 0 0 68.629231-65.762094v-62.917713a67.150152 67.150152 0 0 0-68.629231-65.762094h-20.024443l-2.867137-5.711518a190.072932 190.072932 0 0 0-137.258461-117.234017 408.38488 408.38488 0 0 0-80.07502-14.290171z m231.623652 277.384058v-100.122219h8.578654a24.598209 24.598209 0 0 1 22.868825 22.868825v65.762094a24.598209 24.598209 0 0 1-22.868825 22.868825h-8.578654z m-397.485211 8.578654a24.598209 24.598209 0 0 1-22.868825-22.868825v-60.050577a24.598209 24.598209 0 0 1 22.868825-22.868825h8.578654v105.810982z m197.309038-71.496367a180.128975 180.128975 0 0 0-80.075021 22.868825 23.005355 23.005355 0 0 0-8.578654 31.447479 19.136997 19.136997 0 0 0 20.024444 11.377525c5.711518 0 8.578654 0 11.377525-2.867136a127.860625 127.860625 0 0 1 57.18344-17.157308 92.248972 92.248972 0 0 1 51.471923 17.157308 21.844848 21.844848 0 0 0 14.290172 5.711518 25.781472 25.781472 0 0 0 14.290171-2.867137 28.944423 28.944423 0 0 0 11.377525-20.024444 15.678229 15.678229 0 0 0-11.377525-17.157307 125.152774 125.152774 0 0 0-80.075021-28.603098zM976.398028 429.749028a148.089865 148.089865 0 0 0-24.803004-32.994823l-13.425479 17.293838a117.029222 117.029222 0 0 1 30.946868 55.749873l21.389746-2.730606q-2.047954-8.419368-4.77856-16.383636h85.786538v-17.748939a182.290705 182.290705 0 0 0-21.844848-37.773383l-16.156085 12.515277a121.011355 121.011355 0 0 1 14.563232 22.072399h-30.719318q-0.682651-9.557121-2.047954-17.748939a87.197351 87.197351 0 0 1 67.810048-46.192751l-8.874469-20.251995a96.504167 96.504167 0 0 0-66.672296 45.5101 106.721184 106.721184 0 0 0-66.444746-44.144797l-9.10202 19.341793q52.791716 12.970378 62.121286 45.510099a157.009844 157.009844 0 0 1 2.275505 17.97649z m-78.732472 34.587676a251.921157 251.921157 0 0 0 36.863181-29.126464l-15.245884-15.018333a211.781249 211.781249 0 0 1-36.863181 29.354014z m46.420302-67.582499a296.339015 296.339015 0 0 0-52.791716-51.653963l-14.335682 15.928535a259.589609 259.589609 0 0 1 49.83356 48.468256z m111.272194-53.701917v-85.103887h-21.162197v9.784672h-110.589542v-9.784672h-21.162197V343.052288z m-131.751739-54.839671h110.589542v34.587676h-110.589542z m263.275927 106.948735q-5.916313-6.371414-9.10202-9.557121l-13.425479 17.293838a136.166219 136.166219 0 0 1 37.090731 66.217195l21.844848-3.185707q-2.047954-8.191818-6.371414-20.707095h87.379391q0-129.021133-3.413257-159.057799a28.739628 28.739628 0 0 0-32.994822-26.395858l-22.5275 0.910202-5.233661 19.341793q15.928535-1.137752 24.803004-1.137753 13.197929 0 15.245883 16.838737t2.503056 129.021133h-75.091665a163.130953 163.130953 0 0 0-15.245883-22.982601h67.354948v-106.948734h-72.81616z m52.564165-82.14573v26.623408h-31.629519v-26.623408z m-31.629519 44.372347h31.629519v26.168308h-31.629519z m-76.229417 108.996689a279.727828 279.727828 0 0 0 37.318282-33.677474l-14.790783-15.018333a223.295305 223.295305 0 0 1-37.545832 33.905025z m-30.719318-65.989645h52.564166v-95.79876q9.32957 8.646919 19.796893 19.114242l5.916313-22.75505a302.778694 302.778694 0 0 0-43.917246-35.952978l-8.191818 19.341792a15.291394 15.291394 0 0 1 5.688762 11.832626v83.511033h-31.85707z"  horiz-adv-x="1342" />

    
    </font>
</defs>
</svg>
