<?xml version="1.0" standalone="no"?>
<!DOCTYPE svg PUBLIC "-//W3C//DTD SVG 1.1//EN" "http://www.w3.org/Graphics/SVG/1.1/DTD/svg11.dtd" >
<!--
2013-9-30: Created.
-->
<svg>
<metadata>
Created by iconfont
</metadata>
<defs>

<font id="iconfont" horiz-adv-x="1024" >
  <font-face
    font-family="iconfont"
    font-weight="500"
    font-stretch="normal"
    units-per-em="1024"
    ascent="896"
    descent="-128"
  />
    <missing-glyph />
    
    <glyph glyph-name="tubiao2-02" unicode="&#59040;" d="M528.85655-79.98008h-396.624706a64.309863 64.309863 0 0 0-63.743256 70.82584 437.562042 437.562042 0 0 0 634.174574 347.329921 28.330336 28.330336 0 0 0-7.64919-53.11938 18.55637 18.55637 0 0 1-6.657629-2.408079l-145.617928-83.999446a36.687785 36.687785 0 0 1-18.273067-31.588325v-159.358141a36.404482 36.404482 0 0 1 17.423157-30.880066 29.180246 29.180246 0 0 0 11.048831-12.748652l1.69982-3.966247a28.330336 28.330336 0 0 0-1.841472-27.338774 28.330336 28.330336 0 0 0-23.939134-12.748651zM503.784203 329.393277A379.484853 379.484853 0 0 1 124.582653-14.537004a8.215797 8.215797 0 0 1 2.124775-6.515977 7.224236 7.224236 0 0 1 5.241113-2.266427h341.38055a91.648637 91.648637 0 0 0-5.524415 31.021718V167.060451a93.490109 93.490109 0 0 0 46.603403 80.741458l108.505187 62.468391A374.668696 374.668696 0 0 1 503.784203 329.393277zM725.610735-120.917416a28.330336 28.330336 0 0 0-14.165169 3.824595l-112.471434 64.87647a54.252594 54.252594 0 0 0-27.055471 46.886707V154.028496a54.252594 54.252594 0 0 0 27.055471 46.886707l145.617928 83.999446a39.095864 39.095864 0 0 0 38.954212 0l145.476276-83.999446a54.110942 54.110942 0 0 0 27.055471-46.886707v-159.216489a54.252594 54.252594 0 0 0-27.055471-46.886706l-110.346659-63.743256a28.330336 28.330336 0 0 0-42.495504 24.50574v99.156177a28.330336 28.330336 0 0 0 15.298381 28.330336 59.210403 59.210403 0 0 1 32.86319 53.11938 75.358694 75.358694 0 0 1-1.841472 16.85655 49.436437 49.436437 0 0 0-9.349011-12.606999A66.009683 66.009683 0 0 0 766.973025 77.111634a63.17665 63.17665 0 0 0-57.652234 35.696223 67.709503 67.709503 0 0 1-3.682943-22.522617A59.210403 59.210403 0 0 1 738.642689 37.16586a28.330336 28.330336 0 0 0 15.298382-30.171808v-99.156177a28.330336 28.330336 0 0 0-28.330336-28.330336z m-97.031402 117.14594l68.701065-39.662471v39.662471a115.162816 115.162816 0 0 0-48.161571 94.056716 110.913266 110.913266 0 0 0 77.341818 109.213446 28.330336 28.330336 0 0 0 36.829437-27.338775v-37.254392a17.989763 17.989763 0 0 1 6.091022-1.133213 3.682944 3.682944 0 0 1 1.983123 0l-1.133213 37.11274a28.330336 28.330336 0 0 0 36.971089 28.330336 108.930142 108.930142 0 0 0 74.22548-108.646839 115.587771 115.587771 0 0 0-48.161571-94.056716v-38.529257l66.57629 38.529257v155.816849L763.99834 230.237101l-135.419007-78.191728z m272.112879 155.816849zM755.215936 235.903168z m17.70646 0zM729.293678 691.030018h-413.622907a28.330336 28.330336 0 0 0-22.664269 11.332134 28.330336 28.330336 0 0 0-4.532854 24.930696A225.509476 225.509476 0 0 0 503.784203 888.775764a231.458846 231.458846 0 0 0 38.387605-3.257988 219.843408 219.843408 0 0 0 91.082031-37.820999 232.450408 232.450408 0 0 0 42.495504-39.662471c2.54973-2.974685 4.957809-6.091022 7.365887-9.207359s2.833034-4.107899 4.391202-6.091022a150.00913 150.00913 0 0 0 66.151335-34.987965 39.662471 39.662471 0 0 0 8.640753-43.487066 36.121179 36.121179 0 0 0-33.004842-23.230876z m-14.165168 26.063909z m-356.820584 30.596763h292.085766a25.638954 25.638954 0 0 0-3.541292 4.249551l-0.84991 1.416517c-2.691382 4.24955-5.241112 7.932494-7.932494 11.473786s-3.541292 4.674505-5.524416 6.940932a172.390095 172.390095 0 0 1-32.01328 29.746853 167.857242 167.857242 0 0 1-38.670908 20.25619 163.182736 163.182736 0 0 1-29.321898 7.932494 177.631208 177.631208 0 0 1-28.330336 2.408079 168.707152 168.707152 0 0 1-145.901232-84.424402zM503.784203 405.743533a224.801217 224.801217 0 0 0-224.376263 224.517914v14.448471a28.330336 28.330336 0 0 0 28.330336 26.488865h391.666898a28.330336 28.330336 0 0 0 28.330336-26.488865v-14.448471a224.801217 224.801217 0 0 0-223.951307-224.517914zM336.776871 614.53811a167.857242 167.857242 0 0 1 334.156315 0z"  horiz-adv-x="1024" />

    
    <glyph glyph-name="tubiao2-03" unicode="&#59041;" d="M486.644349 7.70231V167.060451a64.593166 64.593166 0 0 0 32.438235 56.660672l145.476276 83.999447a51.844515 51.844515 0 0 0 15.581685 5.807719A409.231706 409.231706 0 0 1 87.044958-11.845622a36.121179 36.121179 0 0 1 35.41292-39.804122h396.624706c0 1.416517-1.133213 2.833034-1.841472 4.24955a65.018121 65.018121 0 0 0-30.596763 55.102504zM519.224236-79.98008H122.457878a63.884908 63.884908 0 0 0-47.311661 20.964449A64.87647 64.87647 0 0 0 58.714622-9.15424a437.562042 437.562042 0 0 0 634.316226 347.329921 28.330336 28.330336 0 0 0-7.649191-53.11938 19.547932 19.547932 0 0 1-6.657629-2.408079L533.247752 198.648776a36.404482 36.404482 0 0 1-18.273067-31.588325v-159.358141a36.546134 36.546134 0 0 1 17.281505-30.880066 28.330336 28.330336 0 0 0 11.048831-12.748652l1.699821-3.824595a28.330336 28.330336 0 0 0-25.780606-40.229077zM494.29354 329.393277A379.484853 379.484853 0 0 1 115.375294-14.537004a8.782404 8.782404 0 0 1 2.124775-6.515977 7.365887 7.365887 0 0 1 5.382764-2.266427h340.813944a91.648637 91.648637 0 0 0-5.382764 31.021718V167.060451a93.490109 93.490109 0 0 0 46.603403 80.741458l108.363536 62.468391a374.385392 374.385392 0 0 1-118.987412 19.122977zM905.225066 176.409462l-145.476276 83.999447a9.773966 9.773966 0 0 1-5.241113 1.416516 10.623876 10.623876 0 0 1-5.382763-1.416516L603.506986 176.409462a26.063909 26.063909 0 0 1-12.890303-22.380966v-159.35814a26.063909 26.063909 0 0 1 12.890303-22.380966l112.471434-64.87647v104.538941a87.399087 87.399087 0 0 0-48.161571 78.333379 82.441278 82.441278 0 0 0 57.510582 82.157975v-42.495504c0-15.440033 17.70646-24.505741 33.571449-24.930696 14.165168 0 31.305021 8.640753 31.305021 22.380965l-1.274865 44.195325a80.316503 80.316503 0 0 0 54.535897-81.73302 87.399087 87.399087 0 0 0-48.586527-78.333379v-102.839121l110.34666 63.743257a25.780606 25.780606 0 0 1 13.031954 22.380965V154.028496a25.780606 25.780606 0 0 1-13.031954 22.380966zM715.97842-120.917416a28.330336 28.330336 0 0 0-14.165168 3.824595l-112.471434 64.87647a54.252594 54.252594 0 0 0-27.055471 46.886707V154.028496a54.252594 54.252594 0 0 0 27.055471 46.886707l145.617927 83.999446a39.237516 39.237516 0 0 0 39.095864 0l145.334625-83.999446a54.252594 54.252594 0 0 0 27.197122-46.886707v-159.216489a54.394245 54.394245 0 0 0-27.197122-46.886706L809.46853-115.817955a28.330336 28.330336 0 0 0-42.495505 24.50574v99.156177a28.330336 28.330336 0 0 0 15.298382 28.330336 59.210403 59.210403 0 0 1 32.86319 53.11938 83.716143 83.716143 0 0 1-1.69982 16.85655 53.544335 53.544335 0 0 0-9.490663-12.606999 65.443076 65.443076 0 0 0-46.036796-17.423157 63.17665 63.17665 0 0 0-57.652234 35.696223 67.709503 67.709503 0 0 1-4.107899-21.531055 59.210403 59.210403 0 0 1 32.86319-53.11938 28.330336 28.330336 0 0 0 15.298381-30.171808v-99.156177a28.330336 28.330336 0 0 0-14.165168-24.505741 28.330336 28.330336 0 0 0-14.165168-4.24955z m-97.031401 117.14594l68.701065-39.662471v39.662471a115.44612 115.44612 0 0 0-48.161571 94.056716 111.054918 111.054918 0 0 0 77.483469 109.213446 28.330336 28.330336 0 0 0 25.355651-4.391202 28.330336 28.330336 0 0 0 11.332134-22.947573v-37.254392a17.989763 17.989763 0 0 1 6.091023-1.133213 3.541292 3.541292 0 0 1 1.983123 0l-1.133213 37.11274a28.330336 28.330336 0 0 0 11.332134 23.514179 28.330336 28.330336 0 0 0 25.638954 4.249551 108.930142 108.930142 0 0 0 74.225481-108.646839 115.162816 115.162816 0 0 0-48.161571-93.773413v-38.529257l66.717941 38.529257v155.816849L754.507677 230.237101l-135.560658-78.191728z m272.25453 155.816849zM745.583622 235.903168z m17.70646 0zM724.477521 737.350118a127.486513 127.486513 0 0 1-63.884908 30.313459c-2.974685 4.816157-6.091022 9.490663-9.490663 14.165168l-6.515977 8.074146a194.346106 194.346106 0 0 1-82.58293 58.502144 186.696915 186.696915 0 0 1-34.421358 9.20736 200.862083 200.862083 0 0 1-33.429797 2.833033 196.187578 196.187578 0 0 1-188.255083-141.651681h413.622907c7.790842 0.566607 11.332134 12.748651 4.957809 18.556371zM719.661364 691.030018h-413.622908a28.330336 28.330336 0 0 0-27.197122 36.26283A225.651127 225.651127 0 0 0 494.29354 888.775764a231.033891 231.033891 0 0 0 38.245954-3.257988 221.118274 221.118274 0 0 0 39.379167-10.482225 225.792779 225.792779 0 0 0 94.623323-67.001245c2.54973-2.974685 4.957809-6.091022 7.365887-9.207359l4.391202-6.091022a151.425647 151.425647 0 0 0 66.292987-34.987965 40.229077 40.229077 0 0 0 8.215797-43.487066 36.404482 36.404482 0 0 0-33.146493-23.230876z m-14.165168 26.063909z m-356.820584 30.596763h292.085766a24.930696 24.930696 0 0 0-3.399641 4.249551 8.640753 8.640753 0 0 0-0.991561 1.416517c-2.691382 4.24955-5.241112 7.932494-7.790843 11.473786l-5.524415 6.940932a168.5655 168.5655 0 0 1-32.154932 29.746853 165.024208 165.024208 0 0 1-38.670909 20.25619 160.066399 160.066399 0 0 1-29.321898 7.932494 174.656522 174.656522 0 0 1-28.330336 2.408079 168.990455 168.990455 0 0 1-145.901231-84.424402zM298.672569 642.868447v-12.607a196.187578 196.187578 0 0 1 392.375155 0c0 4.24955 0 8.499101-0.708258 12.607zM494.29354 405.743533A224.801217 224.801217 0 0 0 269.775626 630.261447v14.448471a28.330336 28.330336 0 0 0 28.330336 26.488865h391.666897a28.330336 28.330336 0 0 0 28.330336-26.488865v-14.448471a224.801217 224.801217 0 0 0-223.809655-224.517914zM327.852815 614.53811a167.857242 167.857242 0 0 1 334.156315 0z"  horiz-adv-x="1024" />

    
    <glyph glyph-name="zu261" unicode="&#59038;" d="M925.731134-127.804202a97.898809 97.898809 0 0 0-69.116559 28.586452L28.586452 728.810373a97.898809 97.898809 0 0 0 0 138.428915 97.898809 97.898809 0 0 0 138.428915 0l758.715767-758.715766L1684.642698 867.239288a97.898809 97.898809 0 0 0 138.428915 0 97.898809 97.898809 0 0 0 0-138.428915L995.04349-99.21775a97.898809 97.898809 0 0 0-69.312356-28.586452z"  horiz-adv-x="1852" />

    
    <glyph glyph-name="juli-xiangxiajiantou" unicode="&#59039;" d="M925.731134-127.804202a97.898809 97.898809 0 0 0-69.116559 28.586452L28.586452 728.810373a97.898809 97.898809 0 0 0 0 138.428915 97.898809 97.898809 0 0 0 138.428915 0l758.715767-758.715766L1684.642698 867.239288a97.898809 97.898809 0 0 0 138.428915 0 97.898809 97.898809 0 0 0 0-138.428915L995.04349-99.21775a97.898809 97.898809 0 0 0-69.312356-28.586452z"  horiz-adv-x="1852" />

    
    <glyph glyph-name="lijichufa" unicode="&#59035;" d="M34.464287 578.316556L962.20949 889.427239a48.528885 48.528885 0 0 0 51.157989-2.300466 43.16113 43.16113 0 0 0 2.300466-51.157989l-306.728842-930.045669s-13.912344-27.934234-9.311412-23.223756a33.740173 33.740173 0 0 0-48.857522 0c-13.912344 13.912344-13.912344 23.223755-13.912344 23.223756L499.487122 370.945949 34.464287 508.09756s-9.311411 0-23.223755 13.912344a33.740173 33.740173 0 0 0 0 48.857523C6.639599 563.856482 34.464287 578.316556 34.464287 578.316556z"  horiz-adv-x="1024" />

    
    <glyph glyph-name="weizhi" unicode="&#59036;" d="M508.706378 577.791425a110.179903 110.179903 0 1 1 110.179903-110.179903 108.276796 108.276796 0 0 1-110.179903 110.179903zM903.951739 639.992989a368.802185 368.802185 0 0 1-92.450955 132.616537A447.13008 447.13008 0 0 1 675.979503 862.155739 435.811599 435.811599 0 0 1 509.607849 895.910854a385.629661 385.629661 0 0 1-166.371653-33.755115 408.166459 408.166459 0 0 1-135.521281-89.546213 467.763771 467.763771 0 0 1-93.652918-132.616537 432.506202 432.506202 0 0 1-33.755116-163.466911 557.910964 557.910964 0 0 1 58.69584-240.392516A758.037733 758.037733 0 0 1 268.714516 54.036231a994.023053 994.023053 0 0 1 218.657026-175.686864 36.159041 36.159041 0 0 1 24.439906-6.410467 50.081774 50.081774 0 0 1 24.439905 6.410467 1018.162468 1018.162468 0 0 1 218.556863 175.887191 869.419599 869.419599 0 0 1 129.711795 182.097331 561.917506 561.917506 0 0 1 58.695839 240.392516 505.525428 505.525428 0 0 1-39.564602 163.466911zM509.006868 263.678538A203.53233 203.53233 0 1 0 712.539198 467.210868a201.629223 201.629223 0 0 0-203.53233-203.53233z"  horiz-adv-x="1024" />

    
    <glyph glyph-name="dianhua" unicode="&#59037;" d="M622.371557 182.260598c1.900371 1.200234 22.504395 14.102754 28.505567 17.703457a279.154522 279.154522 0 0 0 30.005861 15.903107c64.812659 29.405743 121.823794 8.60168 197.338543-79.315492a139.327212 139.327212 0 0 0 42.508302-145.928501 181.635476 181.635476 0 0 0-85.416683-81.81598c-3.000586-1.700332-30.005861-17.10334-36.307091-21.304161-107.220942-66.012893-353.068959 85.116624-530.103536 343.267044S45.658918 765.574526 154.380152 832.487595L168.682946 841.589373l15.503028 10.001953a180.035163 180.035163 0 0 0 132.025786 42.708342 158.731002 158.731002 0 0 0 107.120922-93.818324c63.212346-118.42313 49.309631-174.634108-32.106271-225.644071-5.801133-3.800742-26.605196-16.303184-28.505567-17.503419-20.003907-12.302403 13.802696-94.7185 92.218011-209.240867S600.767337 168.85798 622.471576 182.260598z"  horiz-adv-x="1024" />

    
    <glyph glyph-name="putonghuiyuan" unicode="&#59033;" d="M598.009241 805.512871h2458.613861a659.009901 659.009901 0 0 0 659.009901-659.009901v-184.015841h-3117.623762V805.512871zM512 383.915512m-469.755776 0a469.755776 469.755776 0 1 1 939.511552 0 469.755776 469.755776 0 1 1-939.511552 0ZM511.915512-128a512 512 0 1 0 512 512 512.506931 512.506931 0 0 0-512-512z m0 939.511551a427.511551 427.511551 0 1 1 427.511551-427.511551A427.933993 427.933993 0 0 1 511.915512 811.511551z"  horiz-adv-x="3715" />

    
    <glyph glyph-name="jindutiao" unicode="&#59034;" d="M102.379575 793.620425h6040.394941v-102.379576H102.379575zM153.569363 793.620425m51.189788 0l1842.832354 0q51.189788 0 51.189788-51.189788l0 0q0-51.189788-51.189788-51.189788l-1842.832354 0q-51.189788 0-51.189788 51.189788l0 0q0 51.189788 51.189788 51.189788ZM153.569363 742.430637m-153.569363 0a153.569363 153.569363 0 1 1 307.138726 0 153.569363 153.569363 0 1 1-307.138726 0ZM3122.577046 742.430637m-153.569363 0a153.569363 153.569363 0 1 1 307.138726 0 153.569363 153.569363 0 1 1-307.138726 0ZM6065.989835 742.430637m-153.569363 0a153.569363 153.569363 0 1 1 307.138726 0 153.569363 153.569363 0 1 1-307.138726 0ZM153.569363 742.430637m-102.379575 0a102.379575 102.379575 0 1 1 204.75915 0 102.379575 102.379575 0 1 1-204.75915 0ZM3122.577046 742.430637m-102.379575 0a102.379575 102.379575 0 1 1 204.75915 0 102.379575 102.379575 0 1 1-204.75915 0ZM6065.989835 742.430637m-102.379575 0a102.379575 102.379575 0 1 1 204.75915 0 102.379575 102.379575 0 1 1-204.75915 0Z"  horiz-adv-x="20736" />

    
    <glyph glyph-name="morendenglutouxiang" unicode="&#59031;" d="M512 384m-512 0a512 512 0 1 1 1024 0 512 512 0 1 1-1024 0ZM512.34816 857.94816a476.24192 476.24192 0 1 1 476.2624-476.24192 476.09856 476.09856 0 0 1-476.2624 476.24192z m0-171.39712a190.464 190.464 0 1 0-190.464-190.464 190.464 190.464 0 0 0 190.464 190.464z m0.1024-742.95296a437.08416 437.08416 0 0 0-337.92 159.27296 454.36928 454.36928 0 0 0 337.92 145.408 454.43072 454.43072 0 0 0 337.92-145.408 437.248 437.248 0 0 0-337.92-159.27296z"  horiz-adv-x="1024" />

    
    <glyph glyph-name="shezhi" unicode="&#59032;" d="M511.597718 570.349647a186.10198 186.10198 0 1 1 186.10198-186.10198 186.326877 186.326877 0 0 1-186.10198 186.10198z m0-279.152969a93.05099 93.05099 0 1 0 93.05099 93.050989 93.163438 93.163438 0 0 0-93.05099-93.050989zM980.957032 301.541924a92.882317 92.882317 0 0 0 0 165.411487 46.497383 46.497383 0 0 1 23.557924 53.7503 513.270385 513.270385 0 0 1-128.359764 221.972996 46.497383 46.497383 0 0 1-58.360681 6.578227 92.938542 92.938542 0 0 0-143.14672 83.099313 46.553607 46.553607 0 0 1-34.746532 47.39697 515.744248 515.744248 0 0 1-256.550857 0 46.441159 46.441159 0 0 1-34.746533-47.39697A92.938542 92.938542 0 0 0 205.45715 749.254934a46.497383 46.497383 0 0 1-58.360681-6.578227A513.495282 513.495282 0 0 1 18.736705 520.703711a46.497383 46.497383 0 0 1 23.557924-53.7503 92.882317 92.882317 0 0 0 0-165.411487 46.497383 46.497383 0 0 1-23.557924-53.7503 513.495282 513.495282 0 0 1 128.359764-221.972996 46.553607 46.553607 0 0 1 58.360681-6.578227 92.938542 92.938542 0 0 0 143.146719-83.099313 46.553607 46.553607 0 0 1 34.746533-47.39697 513.495282 513.495282 0 0 1 256.550857 0 46.441159 46.441159 0 0 1 34.746532 47.39697 92.938542 92.938542 0 0 0 142.978047 83.099313 46.609831 46.609831 0 0 1 58.360681 6.578227 513.214161 513.214161 0 0 1 128.359765 221.972996 46.497383 46.497383 0 0 1-23.557925 53.694075z m-76.296189-60.553424a419.938274 419.938274 0 0 0-72.697843-125.436108 185.933307 185.933307 0 0 1-247.94856-143.765185 423.817741 423.817741 0 0 0-144.77722 0 185.933307 185.933307 0 0 1-247.948559 143.765185 419.488481 419.488481 0 0 0-72.697843 125.436108 185.989532 185.989532 0 0 1 0 286.743232 420.275619 420.275619 0 0 0 72.697843 125.436108 185.933307 185.933307 0 0 1 247.948559 143.765185 423.817741 423.817741 0 0 0 144.77722 0 185.933307 185.933307 0 0 1 247.94856-143.765185 420.388068 420.388068 0 0 0 72.697843-125.436108 185.989532 185.989532 0 0 1 0-286.743232z"  horiz-adv-x="1024" />

    
    <glyph glyph-name="dacheshifu" unicode="&#59014;" d="M723.039313 649.779562c-21.124487-17.804021-55.720577-52.874463-55.720577-52.874463H263.58173l-18.120256-132.818629H624.247553c-0.158117-1.676045-0.347858-3.478583-0.347859-5.154627l-61.349557-61.349557H207.355177a33.489268 33.489268 0 0 0-32.920045 37.758438l27.101325 199.227943a33.299528 33.299528 0 0 0 32.920045 28.777369h461.702851a33.14141 33.14141 0 0 0 26.87996-13.566474zM623.899694 459.026713a251.090454 251.090454 0 0 1-1.170069-22.452673v-38.928507h-60.084617zM141.356969 37.801921h61.349556l-66.409314-66.409314h-28.113276a33.14141 33.14141 0 0 0-33.267904 33.267904V432.874093a22.768908 22.768908 0 0 0 0.347858 4.648652l38.422532 270.886754-64.701646-11.795559v-47.21386a33.362774 33.362774 0 0 0 27.101325-32.603811v-95.123436a33.362774 33.362774 0 0 0-33.267904-33.267904h-9.487045a33.236281 33.236281 0 0 0-33.267904 33.267904V616.796269a33.236281 33.236281 0 0 0 32.255953 33.109787V703.444613a8.569964 8.569964 0 0 0 6.830672 8.316976l77.003181 14.135696a33.299528 33.299528 0 0 0 32.603811 26.78509h579.595194a181.582039 181.582039 0 0 1 34.437973-66.409314h-585.034434L141.515086 430.692073zM746.503937-54.317285v-15.463883a58.187209 58.187209 0 1 0-116.40604 0v41.110528H315.286125v-41.110528a58.187209 58.187209 0 1 0-116.406041 0v41.110528H136.202341l66.409314 66.409314h535.069331zM615.108366 244.334888a33.236281 33.236281 0 0 1-33.267904-33.267904v-80.703129a33.236281 33.236281 0 0 1 33.267904-33.267904h117.006887l-2.466632 25.994503h-83.770606a23.116766 23.116766 0 0 0-23.116766 23.14839v98.032797zM262.063803 97.095951h56.922269a33.14141 33.14141 0 0 1 33.267904 33.267904v56.92227zM318.922825 244.334888h-127.758871a33.362774 33.362774 0 0 1-33.267904-33.267904v-80.639882a33.267904 33.267904 0 0 1 33.267904-33.267904H262.158673l90.126927 90.126927v23.780859a33.236281 33.236281 0 0 1-33.362775 33.267904z m-33.267904-80.639882h-61.349557v14.135697h61.349557zM964.642723 656.578611a128.106729 128.106729 0 0 1 64.511905 111.251413 126.082826 126.082826 0 0 1-23.116766 73.334857l-48.542047-48.57367A61.760662 61.760662 0 0 0 901.111145 706.132609a59.230783 59.230783 0 0 0-24.79281 5.312745l-48.542046-48.542047c3.162348-2.340138 6.482814-4.332417 9.803279-6.324696a242.33075 242.33075 0 0 1-24.79281-8.633211l-124.881134-124.881134a228.100182 228.100182 0 0 1-17.456163-87.976529v-232.306106a33.14141 33.14141 0 0 1 33.267904-33.267904h69.192181l25.109045-263.739847a33.267904 33.267904 0 0 1 33.267904-30.105556h139.680924a33.236281 33.236281 0 0 1 33.078163 30.105556l25.109046 263.739847h69.19218a33.14141 33.14141 0 0 1 33.267904 33.267904v232.306106a230.598437 230.598437 0 0 1-166.971989 221.490874z m100.436181-420.592323h-66.187949a33.362774 33.362774 0 0 1-33.078164-30.105555l-25.109045-263.739848h-79.311695l-25.109046 263.739848a33.236281 33.236281 0 0 1-33.078163 30.105555h-66.219573v199.038202a164.062629 164.062629 0 1 0 328.093635 0zM1006.037862 841.164881l-48.542047-48.4788a61.602545 61.602545 0 1 1-81.145857-81.145857l-48.573669-48.510423a128.011859 128.011859 0 1 0 178.261573 178.261574zM812.818381 647.9454l-124.881134-124.881134a231.483895 231.483895 0 0 0 124.881134 124.881134z"  horiz-adv-x="1132" />

    
    <glyph glyph-name="jinrongzhuanyuan" unicode="&#59015;" d="M927.038853 96.949721a478.29533 478.29533 0 0 1-295.087423 324.468422 31.193174 31.193174 0 0 1-40.135217-18.418827l-62.950795-167.938105-11.259251 63.901444 35.649342 54.989109a31.579375 31.579375 0 0 1-0.95065 35.471095l-34.99577 48.126611c-0.148539 0.148539-0.326786 0.297078-0.326785 0.475324l-48.899014-48.899013c2.495454 0 4.842369 0 7.189284-0.148539l13.903243-19.072397-23.58798-36.243497-20.79545 32.17353-45.155832-45.155832 14.051782-21.716391-11.25925-63.901444-24.063306 64.376769-48.572227-48.572228 42.660378-113.869938a31.252589 31.252589 0 0 1 29.202752-20.290417h17.1711a31.312005 31.312005 0 0 1 30.777265 25.786357l15.923372 91.084068 16.101619-91.084068a31.312005 31.312005 0 0 1 30.777265-25.786357h17.02256a31.460544 31.460544 0 0 1 29.380999 20.290417l80.211018 213.896049a415.225704 415.225704 0 0 0 227.621045-269.954638 57.93018 57.93018 0 0 0-10.45714-50.770604 62.08927 62.08927 0 0 0-49.522877-24.360383H124.69101a62.772549 62.772549 0 0 0-31.549667 8.437011L48.312296-30.585798a123.138767 123.138767 0 0 1 76.378714-26.083435h681.882777a124.356786 124.356786 0 0 1 99.045753 48.750475 120.346235 120.346235 0 0 1 21.419313 104.868479zM516.982304 437.965379l-48.899014-48.899013c-4.069966 0.148539-8.110225 0-12.180191-0.148539l-13.754704-19.072398 2.643992-4.069966-45.155832-45.155833-21.567852 33.272719a31.312005 31.312005 0 0 0 0.95065 35.471094l34.99577 48.126611a30.599018 30.599018 0 0 0 23.439442 12.804055l6.862498 0.475325a324.349591 324.349591 0 0 0 42.660378 0l6.71396-0.475325a31.282297 31.282297 0 0 0 23.290903-12.32873zM883.279286 88.483002m-121.504838 0a121.504839 121.504839 0 1 1 243.009677 0 121.504839 121.504839 0 1 1-243.009677 0ZM913.878304 116.14095v32.262653a31.252589 31.252589 0 1 1-62.386347 0v-32.262653h-32.292362a31.252589 31.252589 0 1 1 0-62.386348h32.292362v-32.262654a31.252589 31.252589 0 1 1 62.386347 0v32.262654h32.262654a31.252589 31.252589 0 1 1 0 62.386348zM465.558129 896a205.666992 205.666992 0 1 1 205.726407-205.726408A205.874946 205.874946 0 0 1 465.558129 896z m0-348.828805a143.161813 143.161813 0 1 0 143.250937 143.102397 143.280645 143.280645 0 0 0-143.250937-143.102397zM378.395489 299.497395l-48.572228-48.572227-37.491224 99.966695a415.017749 415.017749 0 0 1-227.769583-269.954638 58.405504 58.405504 0 0 1 10.45714-50.770604 62.921088 62.921088 0 0 1 18.121749-15.923372L48.312296-30.585798a125.337143 125.337143 0 0 0-22.815579 22.66704 120.762144 120.762144 0 0 0-21.241066 104.98731 477.730882 477.730882 0 0 0 295.087424 324.468422 31.312005 31.312005 0 0 0 40.135216-18.418826zM902.975548 296.704864a201.597026 201.597026 0 0 1-40.877912-0.029708c-5.941557-0.564448-11.883114-1.425974-18.50795-2.643993h-0.772402a213.093938 213.093938 0 0 1-173.018137-208.994264c0-7.426946 0.53474-14.289444 0.950649-18.805027a212.113581 212.113581 0 0 1 7.961686-41.769145c1.812175-6.119804 3.951135-12.209899 6.327759-18.181165v-0.386201l0.712986-1.663636a212.767152 212.767152 0 1 1 217.134197 292.59197z m-20.349833-377.793896a166.155639 166.155639 0 0 0-153.618953 103.412798q-2.970778 7.456654-5.377109 15.240094a164.492003 164.492003 0 0 0-6.17922 32.530024 170.879176 170.879176 0 0 0-0.742694 14.675645 166.185346 166.185346 0 0 0 134.724802 162.91749 170.819761 170.819761 0 0 0 31.163466 3.030194c5.347401 0 10.665095-0.297078 15.893665-0.80211a165.947684 165.947684 0 0 0-15.893665-331.122966zM717.420726 70.212715a164.52171 164.52171 0 0 1 6.179219-32.530024q2.317207-7.813147 5.377109-15.240094a165.917976 165.917976 0 1 1 169.542326 227.710168 164.997035 164.997035 0 0 1-31.757622 0 170.819761 170.819761 0 0 1-15.299509-2.228084 166.185346 166.185346 0 0 1-134.724802-162.91749c0-4.9612 0.326786-9.833277 0.742694-14.675645z m165.204989 121.623669a106.948024 106.948024 0 1 0-106.948024-106.948024 106.948024 106.948024 0 0 0 106.977732 106.948024z"  horiz-adv-x="1095" />

    
    <glyph glyph-name="weixiuzhan" unicode="&#59016;" d="M422.04957 85.007515a21.398574 21.398574 0 1 1-21.55142 21.398573 21.398574 21.398574 0 0 1 21.55142-21.398573zM542.859802 106.558935a21.398574 21.398574 0 1 1 21.398574 21.551421 21.398574 21.398574 0 0 1-21.398574-21.551421zM680.94174 317.487731h-132.304323l-86.327959-86.327959v-272.95409H337.739191v148.383822l-64.195721-64.19572v-87.428458H186.084443L130.784415-100.334701a31.486472 31.486472 0 0 1 22.193378-8.987401h502.988755a218.968546 218.968546 0 0 0-44.845296 67.680631H526.719164v294.964051h122.277563v-65.907606a220.527585 220.527585 0 0 0 64.19572 50.16437v47.718819a32.12843 32.12843 0 0 1-32.250707 32.189568z m263.93612 218.448866a5.777615 5.777615 0 0 1-0.641957 1.773025 29.285476 29.285476 0 0 1-3.362633 7.550639c-0.152847 0.152847-0.152847 0.305694-0.336264 0.489111a32.12843 32.12843 0 0 1-5.961031 6.419572 1.589608 1.589608 0 0 1-0.641957 0.794804l-83.271021 66.549563-45.854086-45.854086 17.210567-13.664517h-30.875084l-64.195721-64.195721h154.803395v-64.623692h-219.427087l-64.19572-64.19572h203.347587v-105.617245c3.851743 0.152847 7.703486 0.48911 11.585799 0.48911a219.304809 219.304809 0 0 0 52.732199-6.602988v111.731123h48.238498a32.12843 32.12843 0 0 1 32.159 32.158999v128.91112a33.442913 33.442913 0 0 1-1.314484 7.917473zM493.184542 822.585774L164.288468 560.086416h626.947634l-64.195721-64.195721H104.647586V431.267003h557.646826l-64.195721-64.19572H185.045084v-411.983679h0.917082l-55.300028-55.300028a31.792166 31.792166 0 0 0-9.965622 23.141029V367.071283H72.458018a32.250707 32.250707 0 0 0-32.158999 32.158999v128.911121a33.381775 33.381775 0 0 0 1.131067 8.039749 9.170817 9.170817 0 0 1 0.641957 1.925872 30.783376 30.783376 0 0 0 3.362633 7.397792c0.152847 0.152847 0.152847 0.305694 0.336264 0.489111a32.067291 32.067291 0 0 0 5.961031 6.419572c0.336263 0.305694 0.48911 0.641957 0.794804 0.794804L473.039314 889.01306a31.945013 31.945013 0 0 0 40.198749 0l337.424934-269.255193-45.854086-45.854087zM865.641999 205.084081c-2.690106 0.886512-5.441352 1.589608-8.192597 2.323274a162.231757 162.231757 0 0 1-14.06192 3.209786 197.814527 197.814527 0 0 1-8.865123 1.375623c-1.98701 0.244555-3.974021 0.550249-6.113878 0.733665a164.279906 164.279906 0 0 1-15.590389 0.794804c-3.912882 0-7.734056-0.336263-11.585799-0.580818a170.668908 170.668908 0 0 1-135.422401-83.698992l-0.397402-0.672527a159.419373 159.419373 0 0 1-6.113878-11.52466l-0.794805-1.681316c-1.834163-3.882313-3.546049-7.825764-5.074518-11.860924l-0.55025-1.559039c-1.559039-4.188007-3.056939-8.437152-4.218575-12.808575a167.031151 167.031151 0 0 1 0-92.900378 170.699478 170.699478 0 1 1 217.042674 208.819508z m0-258.89217a111.089166 111.089166 0 0 0-11.371813-5.349643c-0.978221-0.397402-1.956441-0.703096-3.056939-1.069929q-4.371423-1.650747-8.895693-3.056939l-3.943452-1.00879a116.775073 116.775073 0 0 0-8.895692-1.711886c-1.283914-0.183416-2.50669-0.427971-3.790605-0.580818a100.878989 100.878989 0 0 0-29.407754 0.550249l-2.751245 0.427971a106.014647 106.014647 0 0 0-15.651528 3.974021l-1.069929 0.397402a110.661194 110.661194 0 0 0-63.920596 58.081843 112.831621 112.831621 0 0 0-4.249145 10.668717 165.044141 165.044141 0 0 0-3.056939 10.454732c0 0.336263-0.183416 0.672527-0.244555 1.00879a106.289772 106.289772 0 0 0-1.681317 9.904482c0 0.611388-0.213986 1.222776-0.275124 1.864733a106.992868 106.992868 0 0 0 0 23.721847c0 0.641957 0.213986 1.253345 0.275124 1.864733 0.427971 3.332064 0.947651 6.664127 1.681317 9.904483 0 0.336263 0.183416 0.672527 0.244555 1.00879a88.956927 88.956927 0 0 0 3.056939 10.454731v0.152847a113.106746 113.106746 0 0 0 4.249145 10.668718 110.049807 110.049807 0 0 0 88.31497 63.523193 104.302761 104.302761 0 0 0 24.455513-0.183416c1.283914-0.152847 2.537259-0.397402 3.790604-0.580818 3.056939-0.458541 6.113878-1.039359 8.895693-1.711886l3.943451-1.00879q4.52427-1.283914 8.895693-3.056939l3.056939-1.069929a110.049807 110.049807 0 0 0 11.371814-198.456484zM845.068799 74.919616v33.198358a32.158999 32.158999 0 0 1-64.195721 0v-33.198358h-33.198358a32.158999 32.158999 0 1 1 0-64.195721h33.198358v-33.228928a32.158999 32.158999 0 1 1 64.195721 0v33.228928h33.198358a32.158999 32.158999 0 0 1 0 64.195721zM462.340027 231.190341v22.009961H337.739191v-146.733075l-64.195721-64.195721v243.057226a32.036721 32.036721 0 0 0 32.158999 32.158999h243.057226z"  horiz-adv-x="1024" />

    
    <glyph glyph-name="xiaogeruzhu" unicode="&#59017;" d="M564.933176 405.36921a258.183886 258.183886 0 0 1 121.671426 121.671426zM453.969837 896a258.089956 258.089956 0 0 1-255.522519-225.057698H127.654962a32.938327 32.938327 0 1 1 0-65.751414h70.792356a257.651613 257.651613 0 0 1 366.673719-199.727748l121.671427 121.671427A257.808164 257.808164 0 0 1 454.001147 896.093931z m0-449.958844a192.08806 192.08806 0 0 0-189.019661 159.055802h378.008011a192.08806 192.08806 0 0 0-188.98835-159.055802zM264.950176 670.942302a191.806268 191.806268 0 0 0 378.008011 0zM598.372467-40.487999a224.431494 224.431494 0 0 1 41.32946-63.716251c-53.665678-3.945085-114.751873-3.945085-181.442593-3.945085h-8.547684a1315.497936 1315.497936 0 0 0-270.175692 16.312613 230.349121 230.349121 0 0 0-79.183488 32.437364l47.74805 47.748051a183.634307 183.634307 0 0 1 46.088611-15.968201 1303.693992 1303.693992 0 0 1 255.522519-14.653172h8.547684c49.063079-0.03131 96.84244-0.03131 140.113133 1.784681zM712.059793 250.916007a226.654518 226.654518 0 0 1-64.373766-44.303929 538.535392 538.535392 0 0 1-193.77881 34.754319c-18.786118 0-37.384375-0.814065-55.48167-2.630057l68.31885 68.31885a572.037303 572.037303 0 0 0 245.315396-56.139183zM804.988458 221.828834a174.022076 174.022076 0 0 1-108.521144-38.01058 174.397799 174.397799 0 0 1-44.898822-220.7682 175.900688 175.900688 0 0 1 10.050573-16.030821c0.845375-1.221098 1.753371-2.348265 2.630057-3.538053a167.822657 167.822657 0 0 1 12.524078-14.997584q5.322734-5.761076 11.08381-10.989879l2.442196-2.223024a174.804831 174.804831 0 1 1 114.814493 306.558141z m0-287.646782a112.403608 112.403608 0 0 0-85.539459 39.544779 112.403608 112.403608 0 0 0 30.339581 171.329399 112.71671 112.71671 0 1 0 55.199878-210.874178zM837.926786 79.837089v34.002874a32.938327 32.938327 0 0 1-65.751415 0v-34.002874h-34.002874a32.938327 32.938327 0 1 1 0-65.751414h34.002874v-34.002874a32.938327 32.938327 0 0 1 65.751415 0v34.002874h34.034184a32.938327 32.938327 0 0 1 0 65.751414zM466.838328 307.086501l-68.31885-68.318851c-161.184895-15.310686-288.460847-96.153616-288.460847-189.990277a60.992264 60.992264 0 0 1 38.041889-60.42868l-47.74805-47.748051a122.923834 122.923834 0 0 0-56.139184 108.176731c0 144.903593 180.127565 258.496988 409.787861 258.496989 4.258187-0.03131 8.547684-0.03131 12.837181-0.187861z"  horiz-adv-x="1024" />

    
    <glyph glyph-name="wodeshoucang" unicode="&#59018;" d="M1070.41166 507.387341a37.303537 37.303537 0 0 1-30.138241 25.42423l-301.916662 43.808871-64.204824-64.204823a35.449359 35.449359 0 0 1 10.68509-3.456941l269.861391-39.094861-195.31717-190.288893a37.712084 37.712084 0 0 1-10.685091-33.123781l46.008743-268.604321-241.137353 126.964017a37.932072 37.932072 0 0 1-34.852251 0l-241.294487-126.83831 28.566904 166.561706-91.357525-91.357525-23.538626-137.052a37.712084 37.712084 0 0 1 36.737856-43.651738 36.392161 36.392161 0 0 1 17.441839 4.399744l290.854451 152.828222 290.917305-152.922503a36.675002 36.675002 0 0 1 39.251994 2.828407 37.397817 37.397817 0 0 1 14.9277 36.423588l-55.562471 323.883952 235.323407 229.41518a37.397817 37.397817 0 0 1 9.428021 38.057779zM738.356757 576.746149l-64.204824-64.204823a37.209257 37.209257 0 0 0-17.441839 16.970438l-120.58439 244.43716-120.741524-244.43716a37.334964 37.334964 0 0 0-28.095503-20.395953L117.58442 470.02095l195.160037-190.288892a37.303537 37.303537 0 0 0 10.842224-33.123781l-17.598972-102.199749-91.357525-91.357525 32.023845 186.831952-235.323407 229.41518a37.397817 37.397817 0 0 0 20.71022 63.733423l325.141021 47.140106L502.719082 874.860177a37.209257 37.209257 0 0 0 66.876097 0l145.537219-294.688513z"  horiz-adv-x="1072" />

    
    <glyph glyph-name="shouhuodizhi" unicode="&#59019;" d="M835.26899 704.958253l-56.207117-56.207117a269.794163 269.794163 0 0 0 19.76617-101.67243 182.798036 182.798036 0 0 0-34.754735-103.920715c-4.590248-6.682402-50.617632-70.664837-241.97164-266.452962a21462.156924 21462.156924 0 0 1-104.795048 110.134723l-52.553654-52.397523c29.977129-31.226176 65.16903-68.135517 105.700606-111.196414a69.259659 69.259659 0 0 1 102.421859-0.749429c193.446162 197.724148 244.063794 266.452963 252.213826 278.350136a257.303693 257.303693 0 0 1 47.963407 146.232184 345.829903 345.829903 0 0 1-37.783674 157.879547zM835.300217 704.958253l-56.207118-56.207117a274.790352 274.790352 0 0 1-530.2517-101.67243 240.004391 240.004391 0 0 1 31.475986-108.073796 1168.54597 1168.54597 0 0 1 124.561217-139.112616c3.996951-4.309212 8.306163-8.618425 12.490471-13.052542l-52.553655-52.397523c-4.590248 4.90251-9.211722 9.367853-13.520934 14.114231-78.533833 81.781356-117.878816 122.90623-135.396701 153.632788a315.384381 315.384381 0 0 0-41.249779 144.889458A349.233556 349.233556 0 0 0 835.237764 704.895801zM688.59964 558.288903l-180.050132-180.050133c5.027414-0.437166 10.086055-0.718202 15.300826-0.718202a165.186473 165.186473 0 0 1 165.654865 164.468271 145.826243 145.826243 0 0 1-0.905559 16.300064zM333.995182 242.685939a37.127924 37.127924 0 0 0-37.096698-37.096697H166.560424l-74.661787-243.907664-79.564297-79.720428a32.381545 32.381545 0 0 0-4.90251 5.183546 36.971793 36.971793 0 0 0-5.776843 32.974842L103.79581 253.677553a37.065471 37.065471 0 0 0 35.504163 26.261214H296.960937a37.127924 37.127924 0 0 0 37.034245-37.252828zM1040.424969-113.011435a37.190376 37.190376 0 0 0-29.820999-14.988565H37.096697a36.191138 36.191138 0 0 0-24.793584 9.805019l79.564298 79.720429-4.590248-15.300827h873.146342l-79.252035 259.333394h-124.717349a37.096697 37.096697 0 0 0 0 74.224622h152.165158a37.190376 37.190376 0 0 0 35.472936-26.261215l102.140823-333.558015a37.034245 37.034245 0 0 0-5.808069-32.974842zM524.006465 706.582014a164.499497 164.499497 0 0 1-15.456957-328.37447l180.050132 180.050133a165.186473 165.186473 0 0 1-164.593175 148.324337z m91.274113-164.624401a91.367792 91.367792 0 1 0-91.274113 90.39978 90.930625 90.930625 0 0 0 91.274113-90.39978z"  horiz-adv-x="1047" />

    
    <glyph glyph-name="anquanshezhi" unicode="&#59020;" d="M932.132134 566.008681a63.607244 63.607244 0 0 0-54.80952 31.389792l-1.072893 1.992516a69.554139 69.554139 0 0 0 0 68.297321 94.475917 94.475917 0 0 1 6.897171 76.420656l-86.536507-86.505853a143.614429 143.614429 0 0 1 11.648556-84.850531l4.598114-9.196228a135.644365 135.644365 0 0 1 119.550965-70.504416 20.017123 20.017123 0 0 0 19.005538-20.814129v-176.72085a20.201048 20.201048 0 0 0-19.005538-20.66086 135.797635 135.797635 0 0 1-119.550965-70.504415 142.664152 142.664152 0 0 1 0-139.660051 21.457866 21.457866 0 0 0-7.203712-28.937464l-148.549738-88.191828a18.392456 18.392456 0 0 0-25.258973 6.743901 135.766981 135.766981 0 0 1-119.550966 71.209459h-0.15327a135.644365 135.644365 0 0 1-119.550966-70.902918 18.607035 18.607035 0 0 0-25.258973-7.050442l-149.009549 88.191828a21.887023 21.887023 0 0 0-7.203712 28.784194c2.758868 4.904655 5.211196 9.96258 7.510253 15.173776l-71.362731-71.20946a91.962281 91.962281 0 0 1 33.99539-35.374824l148.703009-88.191827a90.82808 90.82808 0 0 1 46.410298-12.87472 91.962281 91.962281 0 0 1 79.945876 47.17665 63.300703 63.300703 0 0 0 111.335668 0.459812l1.379435-2.605598a91.195929 91.195929 0 0 1 124.946086-32.156144l149.009549 88.498368a93.954797 93.954797 0 0 1 33.229038 126.938602 69.554139 69.554139 0 0 0 0 68.297321 62.810238 62.810238 0 0 0 55.882412 33.382308 92.820596 92.820596 0 0 1 91.962282 93.556294v176.72085a92.943212 92.943212 0 0 1-91.931627 93.67891zM645.638974 506.601048l-51.468224-51.468224a108.638108 108.638108 0 0 0-153.270468-153.270468l-51.621494-51.621494a179.908876 179.908876 0 0 1 122.616375-47.943002h0.15327a182.054662 182.054662 0 0 1 181.625506 181.778775 179.387756 179.387756 0 0 1-48.034965 122.524413zM932.132134 566.008681a63.607244 63.607244 0 0 0-54.80952 31.389792l-1.072893 1.992516a69.554139 69.554139 0 0 0 0 68.297321 94.475917 94.475917 0 0 1 6.897171 76.420656l-86.536507-86.505853a143.614429 143.614429 0 0 1 11.648556-84.850531l4.598114-9.196228a135.644365 135.644365 0 0 1 119.550965-70.504416 20.017123 20.017123 0 0 0 19.005538-20.814129v-176.72085a20.201048 20.201048 0 0 0-19.005538-20.66086 135.797635 135.797635 0 0 1-119.550965-70.504415 142.664152 142.664152 0 0 1 0-139.660051 21.457866 21.457866 0 0 0-7.203712-28.937464l-148.549738-88.191828a18.392456 18.392456 0 0 0-25.258973 6.743901 135.766981 135.766981 0 0 1-119.550966 71.209459h-0.15327a135.644365 135.644365 0 0 1-119.550966-70.902918 18.607035 18.607035 0 0 0-25.258973-7.050442l-149.009549 88.191828a21.887023 21.887023 0 0 0-7.203712 28.784194c2.758868 4.904655 5.211196 9.96258 7.510253 15.173776l-71.362731-71.20946a91.962281 91.962281 0 0 1 33.99539-35.374824l148.703009-88.191827a90.82808 90.82808 0 0 1 46.410298-12.87472 91.962281 91.962281 0 0 1 79.945876 47.17665 63.300703 63.300703 0 0 0 111.335668 0.459812l1.379435-2.605598a91.195929 91.195929 0 0 1 124.946086-32.156144l149.009549 88.498368a93.954797 93.954797 0 0 1 33.229038 126.938602 69.554139 69.554139 0 0 0 0 68.297321 62.810238 62.810238 0 0 0 55.882412 33.382308 92.820596 92.820596 0 0 1 91.962282 93.556294v176.72085a92.943212 92.943212 0 0 1-91.931627 93.67891zM812.703784 703.369675a21.457866 21.457866 0 0 1-7.203712 28.784194l-148.703008 88.498369a18.392456 18.392456 0 0 1-25.258973-7.050442 134.878012 134.878012 0 0 0-54.533633-54.656249 136.410717 136.410717 0 0 0-184.598952 54.44167 18.392456 18.392456 0 0 1-25.105703 7.050442L218.443524 732.092561a21.457866 21.457866 0 0 1-7.203712-28.784194 142.940039 142.940039 0 0 0 0-139.813321 135.552402 135.552402 0 0 0-119.305733-70.504416 20.078431 20.078431 0 0 1-19.128154-20.507589v-176.87412a20.109085 20.109085 0 0 1 19.128154-20.660859h0.153271a136.104176 136.104176 0 0 0 119.550965-71.05619 143.215926 143.215926 0 0 0 7.203712-124.179733l-71.36273-71.20946a88.590331 88.590331 0 0 0-8.736417 21.457866 93.403023 93.403023 0 0 0 9.196229 70.289837 69.278252 69.278252 0 0 1 0 68.14405 63.515282 63.515282 0 0 1-55.882413 33.535578 92.820596 92.820596 0 0 0-91.962281 93.556294v176.874121a92.789942 92.789942 0 0 0 91.962281 93.403024 63.484628 63.484628 0 0 1 55.729142 33.382308 69.186289 69.186289 0 0 1 0.153271 68.29732 93.770873 93.770873 0 0 0 33.075767 126.938602L330.177696 883.033318a91.257237 91.257237 0 0 0 124.792815-32.002873 15.848166 15.848166 0 0 0 1.685975-3.06541 63.208741 63.208741 0 0 1 85.616884-24.952432 61.584074 61.584074 0 0 1 25.412244 25.412244A91.349199 91.349199 0 0 0 691.252265 885.025834l3.06541-1.839245L842.867413 794.841491a91.962281 91.962281 0 0 0 40.432749-50.701871l-86.689777-86.536507a142.480228 142.480228 0 0 0 16.093399 45.766562zM645.638974 506.570394l-51.468224-51.468224a108.638108 108.638108 0 0 0-153.270468-153.270468l-51.621494-51.621494a179.908876 179.908876 0 0 1 122.616375-47.943002h0.15327a182.054662 182.054662 0 0 1 181.625506 181.778775 179.387756 179.387756 0 0 1-48.034965 122.524413zM645.638974 506.662356l-51.468224-51.468223a108.699416 108.699416 0 1 1-153.270468-153.270469L389.309442 250.30217a181.441581 181.441581 0 1 0 256.360186 256.360186z"  horiz-adv-x="1024" />

    
    <glyph glyph-name="bangdingcheliang" unicode="&#59021;" d="M1411.985408 629.813863L1197.576992 844.222279l-58.163061-57.98931 214.408416-214.625605a40.961738 40.961738 0 0 0 0-58.206499l-403.970476-403.970476a42.351743 42.351743 0 0 0-58.163061 0l-124.796471 124.970222 78.187834 78.187834a123.363027 123.363027 0 0 1 0 174.532621l-2.25876 2.258759-58.206498-58.206498 2.302197-2.25876a41.222364 41.222364 0 0 0 0-58.163061l-78.187834-78.187834-31.448884 31.448884-58.163061-58.163061 31.448884-31.448884-267.880207-267.880207a41.960804 41.960804 0 0 0-58.163061 0l-2.25876 2.258759L264.101128-89.166709l2.25876-2.475948a123.363027 123.363027 0 0 1 174.532621 0l267.880207 267.880207 125.013659-124.970222a123.580215 123.580215 0 0 1 174.315432 0l403.970476 403.970476a123.319589 123.319589 0 0 1 0 174.532621zM1197.576992 844.222279l-58.163061-57.98931-15.637567 15.637566a41.396114 41.396114 0 0 1-58.163061 0l-267.880207-267.880207 44.827691-44.827691-58.206498-58.206499-44.827692 44.827692-78.187834-78.187834a41.222364 41.222364 0 0 1 0-58.206499l15.637567-15.637567-58.163061-58.163061-15.76788 15.76788a123.363027 123.363027 0 0 0 0 174.315432l78.187834 78.187834-124.796471 124.796471a41.005175 41.005175 0 0 1-58.163061 0l-403.970476-403.970476a41.178926 41.178926 0 0 1 0-58.163061l227.787224-227.787223-58.163061-57.945873-227.787224 227.787223a123.319589 123.319589 0 0 0 0 174.315433l403.970476 403.970476a123.363027 123.363027 0 0 0 174.532621 0l124.796471-125.013659L1007.319929 859.729533a123.363027 123.363027 0 0 0 174.53262 0z"  horiz-adv-x="1448" />

    
    <glyph glyph-name="baoxiugongdan" unicode="&#59022;" d="M986.140573 732.706067a29.439342 29.439342 0 0 1-46.434294 6.438889l-140.479217-140.510173a49.71565 49.71565 0 0 0-70.177695 0 2.383627 2.383627 0 0 0-0.588168 0.742949l-41.450346-41.450346 0.742949-0.742949a108.346685 108.346685 0 0 1 152.954563 0l110.761268 110.761269a260.248738 260.248738 0 0 0-59.621633-273.405121 257.245987 257.245987 0 0 0-183.41546-76.028417 261.053599 261.053599 0 0 0-82.064875 13.496901 30.42994 30.42994 0 0 1-6.191239 3.09562 257.184074 257.184074 0 0 0-95.964207 60.05502l-41.481302-41.326522a2.135978 2.135978 0 0 1 0.433387-0.588168c1.331116-1.30016 2.786058-2.476496 4.240998-3.807612 4.674386-4.550561 9.286859-8.946341 14.363675-13.032558s10.246501-8.358173 15.478098-12.382478c0.742949-0.433387 1.454941-1.021554 2.043109-1.454942a321.603918 321.603918 0 0 1 39.252456-25.353124L204.00133-57.172224 137.786027 9.043079l-41.450346-41.450346 87.017867-87.048823a29.098824 29.098824 0 0 1 20.647782-8.481998 29.37743 29.37743 0 0 1 20.802564 8.481998l392.493606 392.648387a317.951087 317.951087 0 0 1 368.37873 459.606639zM869.683364 809.353608l-140.479216-140.510173a49.529913 49.529913 0 0 1-0.588168-69.434747l-41.450346-41.450346a108.346685 108.346685 0 0 0 0.742948 152.366396l110.606488 110.761268a259.412921 259.412921 0 0 1-330.519302-340.518153 227.187521 227.187521 0 0 1 10.710843-22.659936 61.169443 61.169443 0 0 1 2.940839-5.417334c3.09562-5.850721 6.59367-11.577617 10.246501-17.149732 1.176335-1.764503 2.476496-3.49805 3.807612-5.262554 3.652831-5.262553 7.460443-10.556063 11.577617-15.694791 2.786058-3.09562 5.69594-6.438889 8.636779-9.658333s5.572115-6.438889 8.636778-9.534508l-41.481302-41.326522a1.826416 1.826416 0 0 0-0.588168 0.433387 308.354666 308.354666 0 0 0-19.781009 21.978899 4.179086 4.179086 0 0 0-0.742948 0.866774 285.199432 285.199432 0 0 0-17.892682 24.176789 2.105021 2.105021 0 0 1-0.588167 0.588167 336.184286 336.184286 0 0 0-17.552163 29.439342L70.79682 76.372804l67.391638-67.391638-41.450346-41.450346-88.039421 88.039421a29.37743 29.37743 0 0 0-8.636779 20.802563 28.820218 28.820218 0 0 0 8.636779 20.647783l394.103328 394.103328A317.734393 317.734393 0 0 0 863.213519 855.664077a29.222649 29.222649 0 0 0 6.438889-46.434294zM264.799299 135.561051l-41.450346-41.450346a18.945192 18.945192 0 0 0-0.588168-26.219898 19.254754 19.254754 0 0 0-26.219898-0.588168L155.090541 25.852293a76.523716 76.523716 0 0 1 54.204299-22.257505 77.700051 77.700051 0 0 1 55.535415 131.997219zM264.892167 135.561051l-41.450346-41.450346a2.724145 2.724145 0 0 1-0.588168 0.742948 19.099973 19.099973 0 0 1-26.962846 0 19.007104 19.007104 0 0 1 0-26.962846 2.445539 2.445539 0 0 1 0.711992-0.588168l-41.450346-41.450346a2.693189 2.693189 0 0 0-0.742948 0.588168 77.700051 77.700051 0 0 0 109.894495 109.894495 2.817014 2.817014 0 0 0 0.588167-0.773905z"  horiz-adv-x="1026" />

    
    <glyph glyph-name="danganguanli" unicode="&#59023;" d="M551.397483 475.18307a35.555099 35.555099 0 0 0-35.616295-35.616295H325.001463a35.524501 35.524501 0 0 0 0 71.079599h190.779725a35.524501 35.524501 0 0 0 35.616295-35.463304zM646.190681 298.01954a35.555099 35.555099 0 0 0-35.616295-35.616295H372.887633l71.23259 71.232591h166.454163a35.646893 35.646893 0 0 0 35.616295-35.616296zM693.58728 156.472306H325.093257a35.585697 35.585697 0 1 1 0-71.140796h368.494023a35.585697 35.585697 0 1 1 0 71.140796zM886.47828 775.993892l-68.631744-68.631744v-764.281631h-611.963833v152.409593L134.650112 24.25752v-116.640307a35.646893 35.646893 0 0 1 35.616296-35.616295h683.104628a35.555099 35.555099 0 0 1 35.616295 35.616295V762.224706a37.421588 37.421588 0 0 1-2.509051 13.769186zM886.47828 775.932696a35.922277 35.922277 0 0 1-33.015449 21.847109h-79.18812A128.512405 128.512405 0 0 1 649.556482 895.908205H375.335488A128.512405 128.512405 0 0 1 250.617259 797.779805H170.358202A35.646893 35.646893 0 0 1 134.741907 762.16351v-737.997785l71.23259 71.23259V726.792h47.54959a128.757191 128.757191 0 0 1 121.841999-87.878006h274.220994a128.726592 128.726592 0 0 1 121.811401 87.878006h46.478653v-19.399253z m-236.921798-65.877907H375.335488a57.402208 57.402208 0 0 0 0 114.804415h274.220994a57.402208 57.402208 0 0 0 0-114.804415zM444.089625 333.635836l-71.23259-71.232591H325.001463a35.616295 35.616295 0 0 0 0 71.232591z"  horiz-adv-x="1024" />

    
    <glyph glyph-name="qiuzhiguanli" unicode="&#59024;" d="M443.164829 230.900908L963.143585 729.591055l-813.97624-352.639553 189.987421-77.21146a41.575402 41.575402 0 1 0-31.270999-77.032565l-281.868344 114.493362a41.575402 41.575402 0 0 0-0.894479 76.674772L1129.731426 892.52942a40.967156 40.967156 0 0 0 42.362543-5.724668L430.141209 145.030887v55.99441a41.360727 41.360727 0 0 0 13.02362 29.875611zM1181.539672 824.155416l-216.642907-817.91195a41.253389 41.253389 0 0 0-40.215794-30.913207 39.357093 39.357093 0 0 0-15.563941 3.041229l-276.859259 112.41817a41.611181 41.611181 0 0 0 31.449895 77.032564l232.886653-94.56436 169.271279 639.338085-552.502027-529.531796v-201.436758a41.575402 41.575402 0 1 0-83.115024 0v163.188819L1172.201307 886.590077a6.261356 6.261356 0 0 0 1.431167-0.89448 50.842208 50.842208 0 0 0 4.114605-4.651292c0.536688-0.715584 1.431167-1.073375 1.967855-1.788959a41.324948 41.324948 0 0 0 1.824738-55.09993z"  horiz-adv-x="1191" />

    
    <glyph glyph-name="quanminjingjiren" unicode="&#59025;" d="M795.372002 697.935323l-47.284587-47.440642a242.758755 242.758755 0 1 1-352.683715-269.288061 29.587979 29.587979 0 0 0-5.898869-54.338261 441.135542 441.135542 0 0 1-308.988387-344.038282L14.630132-83.056235a500.561187 500.561187 0 0 0 302.49651 446.691091A301.84108 301.84108 0 1 0 795.434423 697.935323zM14.56771-83.056235l65.855101 65.886312a428.432686 428.432686 0 0 1-6.928831-76.966198 29.556768 29.556768 0 0 0-59.082325 0c0 3.714103 0 7.396995 0.156055 11.079886zM1009.572739-94.136121a29.556768 29.556768 0 1 0-59.082325 0 440.448901 440.448901 0 0 1-315.97964 421.00448 29.681612 29.681612 0 0 0-5.898869 54.338261 242.6027 242.6027 0 0 1 119.506721 269.288061l47.284587 47.440642a299.000884 299.000884 0 0 0 18.44567-103.870036 301.997135 301.997135 0 0 0-106.928709-230.430431 500.373922 500.373922 0 0 0 302.652565-457.770977zM565.846688 292.036941h-107.64656a29.525557 29.525557 0 0 1-29.369502-26.217196l-33.23966-293.726234a29.525557 29.525557 0 0 1 11.298363-26.716572l87.109757-67.197171a29.525557 29.525557 0 0 1 36.079856 0l87.078545 67.197171a29.556768 29.556768 0 0 1 11.329574 26.716572l-33.27087 293.726234a29.525557 29.525557 0 0 1-29.369503 26.217196z m-53.838885-353.18309l-55.867598 43.10232 28.433174 250.998445h54.868847l28.433174-250.998445z"  horiz-adv-x="1024" />

    
    <glyph glyph-name="goucheyixiang" unicode="&#59026;" d="M1357.220411 297.381137l-685.658275 0.382124v75.363394l-80.161175-80.161176a79.736593 79.736593 0 0 1 79.779051-75.533226h675.807961c3.226827-3.821242 7.430194-16.473801 4.627949-59.908591a231.822044 231.822044 0 0 1-0.594415-15.28497l0.382124-11.251436H429.252905l-80.161176-80.161175h455.534562a122.49205 122.49205 0 1 1 218.405236 0h98.24839a122.661883 122.661883 0 1 1 218.405237 0h11.676019a80.033801 80.033801 0 0 1 79.948884 79.991342v11.633561c0 2.42012 0.212291 5.81678 0.424582 9.850314 2.207829 32.735311 8.831316 133.191529-74.514228 145.079839z m-443.476418-344.209031a42.118584 42.118584 0 1 0 42.2035 41.991209 42.161042 42.161042 0 0 0-42.245959-42.033667z m316.865917 0a42.118584 42.118584 0 1 0 42.203501 41.991209 42.161042 42.161042 0 0 0-42.245959-42.033667zM178.834148-119.558875a118.288684 118.288684 0 0 1 42.2035-7.642485 122.237301 122.237301 0 0 1 114.934482 164.780467zM487.972664 628.555485H322.979906a69.673988 69.673988 0 0 1-54.049352-26.324115L187.368256 502.963982a85.553373 85.553373 0 0 1-10.274896-90.648363 71.542151 71.542151 0 0 1 64.536539-42.797916h246.257849a76.764516 76.764516 0 0 1 72.943273 79.948885V548.733975a76.722057 76.722057 0 0 1-72.858357 79.82151z m-7.430194-178.664315H249.060093a3.014536 3.014536 0 0 0 0.636874 1.995538l78.972344 96.252852h151.915618zM1170.319196 871.883714l-62.923126-62.880668a199.553774 199.553774 0 1 0-243.710354-243.752811L800.76259 502.369567a279.92724 279.92724 0 1 1 369.386773 369.386772zM1009.275054 473.158291a40.250421 40.250421 0 0 1 28.404569 11.760935l163.50672 163.50672a40.207962 40.207962 0 0 1-56.851596 56.809138L1009.232596 570.132933l-53.921977 53.921977a40.165504 40.165504 0 0 1-56.809138-56.851596l82.326546-82.326546a40.207962 40.207962 0 0 1 28.447027-11.718477zM591.613252 777.456567H317.715083a79.312011 79.312011 0 0 1-56.469472-23.352038l-237.766199-237.766198a79.481844 79.481844 0 0 1-23.52187-56.469472v-329.136352a80.076259 80.076259 0 0 1 79.991342-79.991343h31.928604a119.732264 119.732264 0 0 1-13.459265-55.450474 122.322217 122.322217 0 0 1 80.373467-114.637274l157.095524 157.095524c-1.783246 4.245825-3.608951 8.831316-5.816781 13.077141h18.893922l80.161175 80.161175H80.28855v328.754228l237.511449 237.766198 273.473587 0.594416v-401.103085a31.801229 31.801229 0 0 1 0-4.245825l80.161175 80.161175V697.677515a79.906426 79.906426 0 0 1-79.821509 79.779052zM221.080106 37.366816a42.118584 42.118584 0 1 0-42.2035-42.203501 42.2035 42.2035 0 0 0 42.161042 42.203501zM1170.319196 871.883714l-62.923126-62.880668a194.119118 194.119118 0 0 1-50.9499 6.623487 199.553774 199.553774 0 0 1-199.553774-199.553773 193.397328 193.397328 0 0 1 6.623487-50.9499l-62.923126-62.880668a279.969699 279.969699 0 0 0 369.386773 369.386773z"  horiz-adv-x="1433" />

    
    <glyph glyph-name="tuijiangouche" unicode="&#59027;" d="M708.936614 659.772985l-41.76696-41.736113a178.913122 178.913122 0 0 0 33.931799-104.880106 180.362935 180.362935 0 0 0-285.551512-146.70876l-41.76696-41.76696A238.818171 238.818171 0 0 1 708.998308 659.865526zM708.905767 659.803832L667.138807 618.067719a180.424629 180.424629 0 1 1-251.681407-251.681407l-41.76696-41.76696A238.849018 238.849018 0 1 0 708.905767 659.803832zM1004.420889 21.670081l-159.417761 297.828654a381.856127 381.856127 0 0 1-37.016508 439.416797l-41.335101-41.458489a324.326304 324.326304 0 0 0-456.228461-456.228461l-41.458489-41.458489a377.537535 377.537535 0 0 1 83.811544-53.581396l-104.232317-194.737679-30.507772 79.708881a29.428124 29.428124 0 0 1-33.746717 18.107242l-83.287143-18.816725 1.449813 2.776238-70.948307-70.948307a28.19424 28.19424 0 0 1 20.14315-2.776238l121.013134 27.299674 44.234727-115.769128a29.428124 29.428124 0 0 1 25.541391-18.693337h1.758284a29.397277 29.397277 0 0 1 25.849861 15.423545l137.979034 257.819978a386.575732 386.575732 0 0 1 107.008555-15.176768 377.9077 377.9077 0 0 1 101.795397 13.881191l137.238704-256.524401a29.36643 29.36643 0 0 1 25.849861-15.423545h1.727437a29.243041 29.243041 0 0 1 25.541391 18.693337l44.234727 115.769128 121.043981-27.299674a29.212194 29.212194 0 0 1 32.111821 42.353054z m-164.970237 47.59706a29.181347 29.181347 0 0 1-33.592481-18.107242l-30.662008-79.708881-103.090974 192.547536a385.311001 385.311001 0 0 1 135.04856 102.196409l115.614893-215.92963zM808.048314 758.915532l-41.458489-41.458489a324.357151 324.357151 0 1 1-456.228461-456.228461l-41.458489-41.458489a383.398482 383.398482 0 0 0-50.219062 50.650922l-116.355224-217.225208-70.948307-70.948307a29.088806 29.088806 0 0 0-11.968671 39.576816l162.193999 302.918424a382.78154 382.78154 0 0 0 626.59694 434.327027z"  horiz-adv-x="1024" />

    
    <glyph glyph-name="ershouguanli" unicode="&#59028;" d="M860.306688 758.738385L809.056982 707.519852a438.989275 438.989275 0 0 1-620.358371-620.358371l-51.405575-51.374402a511.499505 511.499505 0 0 0 722.920131 722.888958zM805.160258 703.623128l-75.222349-75.222349a36.192767 36.192767 0 0 0 1.246952 72.26084zM931.694662 830.251053l-69.922806-69.922805-2.961509 78.308554a36.223941 36.223941 0 0 0 72.416708 2.805641zM937.835898 672.324646a36.816243 36.816243 0 0 0-9.663874-25.998939 36.036898 36.036898 0 0 0-25.219594-11.534301l-168.961928-6.546496h-1.402821a14.277595 14.277595 0 0 0-2.649772 0l75.253523 75.440566 7.793447 0.311738c-1.246951 1.215778-2.493903 2.30686-3.896723 3.584985l51.249706 51.218533c0.623476-0.436433 1.091083-1.059909 1.714559-1.527515v3.117378l69.922805 69.922806zM1023.969073 383.748895a511.437157 511.437157 0 0 0-886.582516-347.899468l51.405575 51.374402a438.833406 438.833406 0 0 1 762.604363 296.525066 444.912295 444.912295 0 0 1-3.896723 59.230196 36.223941 36.223941 0 0 0 71.699711 9.663874 510.159032 510.159032 0 0 0 4.76959-68.89407zM778.537844 575.187124L712.511762 610.974632l-53.556567-53.556567 26.310677-14.152899-88.31534-47.82059-109.482342-109.482342 12.469515-6.702364a35.631639 35.631639 0 0 1 17.301452-4.333157 35.008163 35.008163 0 0 1 17.11441 4.333157l244.184277 132.083337a36.317462 36.317462 0 0 1 0 63.843917zM778.537844 345.779222l-244.184277-132.239206a35.039337 35.039337 0 0 0-17.11441-4.333157 35.631639 35.631639 0 0 0-17.301452 4.333157l-119.894386 64.810304 53.556566 53.556567 83.639272-45.326687 226.913999 122.88707a36.255115 36.255115 0 0 0 34.291167-63.843917zM778.631365 182.553271l-244.184277-132.208033a37.003286 37.003286 0 0 0-17.114409-4.333156 37.626761 37.626761 0 0 0-17.301452 4.333156L274.20831 172.608833l53.431872 53.431871 189.692497-102.468239 226.913999 122.731201a36.192767 36.192767 0 0 0 34.291166-63.719221zM517.207983 634.16793l-168.026714-90.933938 168.026714-90.965112 79.742549 43.144522-109.482342-109.482342-231.714762 125.380973a36.317462 36.317462 0 0 0 0 63.843917l244.184277 132.052164a35.569292 35.569292 0 0 0 34.291166 0l178.158196-96.233482-53.463046-53.463045zM433.568712 332.000408l-53.587741-53.556567-124.258717 67.273033a36.255115 36.255115 0 0 0 34.291166 63.843917zM327.515487 226.009531L274.083615 172.577659l-18.361361 9.944438a36.192767 36.192767 0 0 0 34.291166 63.719222z"  horiz-adv-x="1024" />

    
    <glyph glyph-name="wodejifen" unicode="&#59029;" d="M906.814549 769.945528l-41.819019-41.81902a95.743544 95.743544 0 0 0 29.776399-64.300672c0-66.973317-99.265146-137.656892-257.014032-162.936961L570.627366 433.789787c219.345472 14.589492 383.603034 110.270151 383.603034 230.067492a152.214942 152.214942 0 0 1-47.415851 106.088249zM128.85502 663.857279c0-83.32361 153.881414-172.621365 382.879847-172.621365a792.580465 792.580465 0 0 1 125.771487 9.652961l-66.878988-67.256302c-19.211595-1.477815-38.831946-2.07523-58.766727-2.07523C263.776382 431.557343 69.427992 533.495133 69.427992 663.700064S263.776382 895.842786 511.860639 895.842786c174.853809 0 322.918292-50.59158 394.95391-126.054473l-41.819019-41.819019c-54.899254 59.23837-183.343384 108.320693-353.134891 108.320693C282.925091 836.478644 128.85502 747.180889 128.85502 663.857279zM437.749791 300.880769l-53.452882-53.452882C200.35611 275.569257 69.39655 363.357755 69.39655 470.200633a29.776399 29.776399 0 1 0 59.521355 0c-0.062886-74.079406 121.306599-152.623699 308.831886-169.319864zM954.261843 470.232075c0-130.204931-194.348389-232.142721-442.432647-232.142721a853.07655 853.07655 0 0 0-127.532287 9.432862l53.452882 53.452881c23.645039-2.07523 48.359137-3.144287 74.110848-3.144287 229.029877 0 382.911291 89.140541 382.91129 172.621366a29.776399 29.776399 0 1 0 59.521356 0zM285.503406 148.665827l-45.686492-45.686492C135.489466 144.955569 69.427992 211.300028 69.427992 287.20312a29.776399 29.776399 0 1 0 59.521356 0c-0.094329-51.346209 58.326527-104.89342 156.554058-138.537293zM954.261843 287.360334c0-130.204931-194.348389-232.142721-442.401204-232.142721a735.354439 735.354439 0 0 0-272.012282 47.918936l45.686492 45.686493a710.608899 710.608899 0 0 1 226.388676-34.084073c229.029877 0 382.911291 89.140541 382.91129 172.621365a29.776399 29.776399 0 1 0 59.521356 0zM167.655523 30.66073l-41.661805-41.661805a157.686001 157.686001 0 0 0-56.597168 114.86081 29.776399 29.776399 0 1 0 59.521355 0 103.195505 103.195505 0 0 1 38.737618-73.199005zM954.261843 103.985507c0-130.047717-194.348389-231.985507-442.432647-231.985507-167.559063 0-310.718457 46.566893-385.86692 117.124697l41.661804 41.661805c59.364142-55.213683 183.18617-99.265146 344.205116-99.265146 229.029877 0 382.911291 89.140541 382.911291 172.464151a29.776399 29.776399 0 1 0 59.521356 0z"  horiz-adv-x="1024" />

    
    <glyph glyph-name="zulinguanli" unicode="&#59030;" d="M194.170242 75.595294v-203.559861h133.474325v337.034186z m837.412319-41.420623V871.58699h-41.385191l-133.474325-133.474326h34.865606v-148.497716h-183.398755l-210.823529-210.823529v-102.293703c-18.956401 17.716263-36.460069 34.334118-52.936194 49.392941l-85.675848-85.675847c16.263529-18.956401 32.739654-38.975779 49.392941-59.668374l89.219101 85.85301v-232.224775h-93.293841v-133.474325h692.103529v133.474325z m-139.99391 0h-254.370104v152.74962h254.370104z m0 279.916955h-254.370104v148.426852h254.370104zM327.644567 483.565398v-124.013841l37.16872 36.991557c22.287059-18.779239 48.861453-42.519031 79.652319-70.865052l-85.675848-85.675847c-10.452595 12.401384-20.90519 24.235848-31.145191 35.751418v-66.896609L194.170242 75.382699v205.721246a1627.947405 1627.947405 0 0 0-101.762214-227.972872 1634.537855 1634.537855 0 0 1-50.987405 178.083875 1273.763875 1273.763875 0 0 1 126.210657 252.244152H47.798478V609.776055H194.170242V725.888443c-42.129273-3.897578-84.435709-7.086505-127.273633-10.09827a980.417993 980.417993 0 0 1-19.133564 135.777439A3161.431696 3161.431696 0 0 1 429.406782 896l32.916817-132.588512a3288.138408 3288.138408 0 0 0-134.643599-21.578408v-132.057025h137.903391v-126.210657zM637.218547 738.112664v-148.497716h70.865052l-210.82353-210.823529V871.551557h492.795571l-133.474325-133.474325z"  horiz-adv-x="1096" />

    
    <glyph glyph-name="ziyuan2" unicode="&#59013;" d="M740.356808-125.59624399999996a60.093897 60.093897 0 0 0-39.061033 15.624413L244.58216 344.93896700000005A55.887324 55.887324 0 0 0 228.356808 384a60.093897 60.093897 0 0 0 16.225352 39.061033l456.713615 456.713615a55.286385 55.286385 0 0 0 78.122065 0 54.685446 54.685446 0 0 0 0-77.521127l-420.657277-420.657277 420.657277-420.657277a55.286385 55.286385 0 0 0 0-78.122066 56.488263 56.488263 0 0 0-39.061032-8.413145z"  horiz-adv-x="1024" />

    
    <glyph glyph-name="shouji" unicode="&#59010;" d="M752.944673 896H271.055327A78.41254 78.41254 0 0 1 192.761684 817.706357v-867.353266a78.41254 78.41254 0 0 1 78.293643-78.293643h481.889346a78.41254 78.41254 0 0 1 78.293643 78.293643V817.706357A78.41254 78.41254 0 0 1 752.944673 896z m17.834543-770.987286H252.745196V691.2h518.03402v-566.187286zM270.817533 835.778694h481.889347a17.834543 17.834543 0 0 0 17.834542-17.834543v-66.285051H252.507402V817.706357a17.834543 17.834543 0 0 0 18.547925 18.072337z m481.889347-903.616836H270.817533a17.834543 17.834543 0 0 0-17.834543 17.834543v114.795007h518.03402v-114.438317a17.834543 17.834543 0 0 0-18.072337-18.072336zM512 47.908041a54.21701 54.21701 0 1 1 54.21701-54.217011 54.276459 54.276459 0 0 1-54.21701 54.217011z m0-60.221307a5.944848 5.944848 0 1 0 5.944848 5.944848 5.944848 5.944848 0 0 0-5.944848-5.944848z"  horiz-adv-x="1024" />

    
    <glyph glyph-name="weixin" unicode="&#59011;" d="M512 896a511.819194 511.819194 0 1 1 511.819194-511.819194 511.819194 511.819194 0 0 1-511.819194 511.819194z m-92.850678-632.541765a382.167604 382.167604 0 0 0-77.468285 11.126504l-77.357021-38.748051 22.253008 66.536495a181.528916 181.528916 0 0 0-88.706055 149.234238c0 105.312362 99.610029 188.177003 221.250537 188.177003 108.789395 0 204.087904-66.230516 223.225491-155.381632a191.403689 191.403689 0 0 1-21.362888 1.335181 181.250754 181.250754 0 0 1-188.093554-175.242442 165.395485 165.395485 0 0 1 6.8428-46.425338 252.849808 252.849808 0 0 0-20.639665-0.862304z m326.312553-77.551735l16.689756-55.298726-60.667264 33.379513a278.691115 278.691115 0 0 0-66.42523-11.126504c-105.25673 0-188.149186 71.849401-188.149187 160.555456s82.836824 160.555456 188.149187 160.555456c99.443132 0 187.982289-72.071931 187.982289-160.555456a167.676419 167.676419 0 0 0-77.551735-127.481922zM502.18086 490.411105a27.649363 27.649363 0 1 1 0 55.27091 28.094423 28.094423 0 1 1 0-55.27091z m-154.79749 55.27091a28.122239 28.122239 0 1 1 0-55.27091 27.649363 27.649363 0 0 1 0 55.27091z m226.758156-160.499824a22.253008 22.253008 0 0 1 0-44.25567 22.670252 22.670252 0 1 1 0 44.25567z m121.723956 0a22.253008 22.253008 0 0 1 0-44.25567 22.670252 22.670252 0 1 1 0 44.25567z"  horiz-adv-x="1024" />

    
    <glyph glyph-name="guanbi" unicode="&#59012;" d="M511.962901 896a511.962901 511.962901 0 1 1 511.962901-511.962901A511.962901 511.962901 0 0 1 511.962901 896z m211.017753-713.186581a29.679009 29.679009 0 0 0-40.511847 0L521.385987 343.896239 360.303166 182.813419a28.640243 28.640243 0 0 0-40.511847 40.511847l161.082821 161.08282-160.415043 160.415043a28.640243 28.640243 0 1 0 40.511847 40.511847l160.415043-160.415043 160.415042 160.48924a28.640243 28.640243 0 0 0 40.511847-40.511847L561.897833 384.408086l161.082821-161.08282a29.679009 29.679009 0 0 0 0-40.511847z"  horiz-adv-x="1024" />

    
    <glyph glyph-name="xin-moren" unicode="&#59007;" d="M584.629764-128a82.699725 82.699725 0 0 0-36.391518 9.09788l-3.275237 1.546639a1356.584812 1356.584812 0 0 0-288.766695 185.050869A839.279384 839.279384 0 0 0 80.880176 267.211886a520.034792 520.034792 0 0 0-80.425255 272.936385 356.181982 356.181982 0 0 0 584.538758 272.936385 356.181982 356.181982 0 0 0 584.538758-272.936385 520.034792 520.034792 0 0 0-80.425255-272.936385 839.370363 839.370363 0 0 0-176.043968-199.880413 1356.220897 1356.220897 0 0 0-288.766695-184.95989l-3.275237-1.54664a82.699725 82.699725 0 0 0-36.391518-8.824943z m-228.356775 927.983709a260.563269 260.563269 0 0 1-260.290333-260.290332c0-312.60314 372.376208-514.667043 488.647108-570.07313 116.2709 55.406086 488.647108 257.46999 488.647108 570.07313a260.199354 260.199354 0 0 1-453.074399 174.770265l-35.572709-39.30284-35.48173 39.30284a260.47229 260.47229 0 0 1-192.784067 85.520067z"  horiz-adv-x="1169" />

    
    <glyph glyph-name="xin-xuanzhong" unicode="&#59008;" d="M818.229445 895.970057A347.730611 347.730611 0 0 1 581.482854 803.628261 347.730611 347.730611 0 0 1 344.736264 895.970057 340.486223 340.486223 0 0 1 0 559.733874c0-288.133448 399.020876-580.613528 535.891508-672.568956a75.824591 75.824591 0 0 1 86.25651-3.18753c132.234224 88.188347 540.914283 384.145733 540.914283 676.142854A340.486223 340.486223 0 0 1 818.229445 895.970057z m0 0"  horiz-adv-x="1163" />

    
    <glyph glyph-name="dingwei" unicode="&#59009;" d="M512-106.837333l-27.306667 16.384C469.674667-80.896 112.64 145.066667 112.64 454.314667A405.504 405.504 0 0 0 512 865.962667a405.504 405.504 0 0 0 399.36-409.6c0-314.709333-357.034667-535.210667-372.053333-546.133334zM512 759.466667a301.738667 301.738667 0 0 1-295.594667-307.2c0-208.896 217.770667-382.293333 295.594667-437.589334 77.824 54.613333 295.594667 226.645333 295.594667 437.589334A301.738667 301.738667 0 0 1 512 759.466667zM512 276.821333a186.368 186.368 0 0 0 0 372.053334 186.368 186.368 0 0 0 0-372.053334z m0 267.605334a79.189333 79.189333 0 0 1-77.141333-81.92 77.141333 77.141333 0 1 1 154.282666 0A79.872 79.872 0 0 1 512 544.426667z"  horiz-adv-x="1024" />

    
    <glyph glyph-name="tubiao2-14" unicode="&#59006;" d="M512 13.669903a96.932039 96.932039 0 0 0-69.592233 29.825243L37.281553 448.621359a96.932039 96.932039 0 0 0 0 139.184466 96.932039 96.932039 0 0 0 136.69903 0L512 249.786408l338.019417 338.019417a94.446602 94.446602 0 0 0 136.69903 0 94.446602 94.446602 0 0 0 0-136.699029L581.592233 43.495146a96.932039 96.932039 0 0 0-69.592233-29.825243z"  horiz-adv-x="1024" />

    
    <glyph glyph-name="tubiao2-09" unicode="&#58998;" d="M392.3968 407.3472H117.5552A84.7872 84.7872 0 0 0 32.768 492.1344V766.976a85.1968 85.1968 0 0 0 84.7872 85.1968h274.8416a85.1968 85.1968 0 0 0 84.7872-85.1968v-274.8416a84.7872 84.7872 0 0 0-84.7872-84.7872zM117.5552 795.2384a28.2624 28.2624 0 0 1-28.2624-28.2624v-274.8416a28.2624 28.2624 0 0 1 28.2624-28.2624h274.8416a28.2624 28.2624 0 0 1 28.2624 28.2624V766.976a28.2624 28.2624 0 0 1-28.2624 28.2624zM906.4448 407.3472h-274.8416a84.7872 84.7872 0 0 0-84.7872 84.7872V766.976a85.1968 85.1968 0 0 0 84.7872 85.1968h274.8416a85.1968 85.1968 0 0 0 84.7872-85.1968v-274.8416a84.7872 84.7872 0 0 0-84.7872-84.7872z m-274.8416 387.8912a28.2624 28.2624 0 0 1-28.2624-28.2624v-274.8416a28.2624 28.2624 0 0 1 28.2624-28.2624h274.8416a28.2624 28.2624 0 0 1 28.2624 28.2624V766.976a28.2624 28.2624 0 0 1-28.2624 28.2624zM392.3968-112.0256H117.5552A85.1968 85.1968 0 0 0 32.768-26.8288v274.8416a84.7872 84.7872 0 0 0 84.7872 84.7872h274.8416a84.7872 84.7872 0 0 0 84.7872-84.7872v-274.8416a85.1968 85.1968 0 0 0-84.7872-85.1968z m-274.8416 388.3008a28.2624 28.2624 0 0 1-28.2624-28.2624v-274.8416a28.2624 28.2624 0 0 1 28.2624-28.2624h274.8416a28.2624 28.2624 0 0 1 28.2624 28.2624v274.8416a28.2624 28.2624 0 0 1-28.2624 28.2624zM906.4448-112.0256h-274.8416a85.1968 85.1968 0 0 0-84.7872 85.1968v274.8416a84.7872 84.7872 0 0 0 84.7872 84.7872h274.8416a84.7872 84.7872 0 0 0 84.7872-84.7872v-274.8416a85.1968 85.1968 0 0 0-84.7872-85.1968z m-274.8416 388.3008a28.2624 28.2624 0 0 1-28.2624-28.2624v-274.8416a28.2624 28.2624 0 0 1 28.2624-28.2624h274.8416a28.2624 28.2624 0 0 1 28.2624 28.2624v274.8416a28.2624 28.2624 0 0 1-28.2624 28.2624z"  horiz-adv-x="1024" />

    
    <glyph glyph-name="tubiao2-08" unicode="&#58999;" d="M496.8448 363.52a261.7344 261.7344 0 1 0 261.7344 261.7344A262.144 262.144 0 0 0 496.8448 363.52z m0 466.944a204.8 204.8 0 1 1 204.8-204.8 204.8 204.8 0 0 1-204.8 204.8zM496.8448-118.9888c-299.4176 0-445.2352 56.9344-445.2352 174.4896 0 129.8432 195.7888 231.424 445.2352 231.424S942.08 185.344 942.08 55.5008c0-117.5552-146.2272-174.4896-445.2352-174.4896z m0 349.3888c-232.2432 0-388.3008-90.5216-388.3008-174.8992 0-76.1856 137.6256-117.9648 388.3008-117.9648s387.8912 40.96 387.8912 117.9648c0 84.3776-155.648 174.8992-387.8912 174.8992z"  horiz-adv-x="1024" />

    
    <glyph glyph-name="tubiao2-07" unicode="&#59000;" d="M826.5728-99.328H197.4272A74.5472 74.5472 0 0 0 122.88-23.9616v261.7344a27.8528 27.8528 0 0 0 11.0592 22.1184 26.624 26.624 0 0 0 24.576 4.9152 219.136 219.136 0 0 1 188.8256 34.4064 27.4432 27.4432 0 0 0 33.1776 0 226.5088 226.5088 0 0 1 261.3248 0 27.4432 27.4432 0 0 0 33.1776 0 219.136 219.136 0 0 1 188.8256-34.4064 26.624 26.624 0 0 0 24.576-4.9152 27.8528 27.8528 0 0 0 11.0592-22.1184v-261.7344a74.5472 74.5472 0 0 0-72.9088-75.3664zM180.224 202.9568v-226.9184a18.432 18.432 0 0 1 17.2032-18.8416h629.1456a18.432 18.432 0 0 1 17.2032 18.8416v226.9184a272.7936 272.7936 0 0 0-184.32 40.96 283.8528 283.8528 0 0 0-294.912 0 272.7936 272.7936 0 0 0-184.32-40.96zM806.912 322.56a204.8 204.8 0 0 0-147.456 63.8976 201.9328 201.9328 0 0 0-294.912 0A204.8 204.8 0 0 0 217.088 322.56a208.896 208.896 0 0 0-204.8 211.7632 220.3648 220.3648 0 0 0 8.6016 61.44 33.9968 33.9968 0 0 0 2.4576 8.6016l92.5696 245.76A54.8864 54.8864 0 0 0 167.5264 883.3024h699.5968a53.6576 53.6576 0 0 0 52.8384-34.4064l77.0048-234.7008a220.3648 220.3648 0 0 0 15.5648-81.92A208.896 208.896 0 0 0 806.912 322.56z m-147.456 138.0352a28.672 28.672 0 0 0 23.7568-13.1072 147.456 147.456 0 0 1 122.88-68.4032 152.7808 152.7808 0 0 1 149.0944 155.2384 163.84 163.84 0 0 1-11.8784 61.0304l-75.3664 230.6048H167.5264L76.1856 584.704a14.336 14.336 0 0 0 0-4.5056 166.7072 166.7072 0 0 1-6.9632-47.5136 152.7808 152.7808 0 0 1 147.8656-155.2384 147.456 147.456 0 0 1 122.88 68.4032 28.2624 28.2624 0 0 0 23.7568 12.6976 27.4432 27.4432 0 0 0 23.7568-12.6976 146.2272 146.2272 0 0 1 245.76 0 27.8528 27.8528 0 0 0 26.2144 13.1072z"  horiz-adv-x="1024" />

    
    <glyph glyph-name="tubiao2-13" unicode="&#59001;" d="M61.0304 837.4272m56.5248 0l275.2512 0q56.5248 0 56.5248-56.5248l0-275.2512q0-56.5248-56.5248-56.5248l-275.2512 0q-56.5248 0-56.5248 56.5248l0 275.2512q0 56.5248 56.5248 56.5248ZM392.3968 421.2736H117.5552A84.7872 84.7872 0 0 0 32.768 506.0608V780.9024A85.1968 85.1968 0 0 0 117.5552 866.0992h274.8416a85.1968 85.1968 0 0 0 84.7872-85.1968v-274.8416a84.7872 84.7872 0 0 0-84.7872-84.7872zM117.5552 809.1648a28.2624 28.2624 0 0 1-28.2624-28.2624v-274.8416a28.2624 28.2624 0 0 1 28.2624-28.2624h274.8416a28.2624 28.2624 0 0 1 28.2624 28.2624V780.9024a28.2624 28.2624 0 0 1-28.2624 28.2624zM575.0784 837.4272m56.5248 0l275.2512 0q56.5248 0 56.5248-56.5248l0-275.2512q0-56.5248-56.5248-56.5248l-275.2512 0q-56.5248 0-56.5248 56.5248l0 275.2512q0 56.5248 56.5248 56.5248ZM906.4448 421.2736h-274.8416a84.7872 84.7872 0 0 0-84.7872 84.7872V780.9024A85.1968 85.1968 0 0 0 631.6032 866.0992h274.8416a85.1968 85.1968 0 0 0 84.7872-85.1968v-274.8416a84.7872 84.7872 0 0 0-84.7872-84.7872z m-274.8416 387.8912a28.2624 28.2624 0 0 1-28.2624-28.2624v-274.8416a28.2624 28.2624 0 0 1 28.2624-28.2624h274.8416a28.2624 28.2624 0 0 1 28.2624 28.2624V780.9024a28.2624 28.2624 0 0 1-28.2624 28.2624zM61.0304 318.464m56.5248 0l275.2512 0q56.5248 0 56.5248-56.5248l0-275.2512q0-56.5248-56.5248-56.5248l-275.2512 0q-56.5248 0-56.5248 56.5248l0 275.2512q0 56.5248 56.5248 56.5248ZM392.3968-98.0992H117.5552A85.1968 85.1968 0 0 0 32.768-12.9024v274.8416a84.7872 84.7872 0 0 0 84.7872 84.7872h274.8416a84.7872 84.7872 0 0 0 84.7872-84.7872v-274.8416a85.1968 85.1968 0 0 0-84.7872-85.1968z m-274.8416 388.3008a28.2624 28.2624 0 0 1-28.2624-28.2624v-274.8416a28.2624 28.2624 0 0 1 28.2624-28.2624h274.8416a28.2624 28.2624 0 0 1 28.2624 28.2624v274.8416a28.2624 28.2624 0 0 1-28.2624 28.2624zM575.0784 318.464m56.5248 0l275.2512 0q56.5248 0 56.5248-56.5248l0-275.2512q0-56.5248-56.5248-56.5248l-275.2512 0q-56.5248 0-56.5248 56.5248l0 275.2512q0 56.5248 56.5248 56.5248ZM906.4448-98.0992h-274.8416a85.1968 85.1968 0 0 0-84.7872 85.1968v274.8416a84.7872 84.7872 0 0 0 84.7872 84.7872h274.8416a84.7872 84.7872 0 0 0 84.7872-84.7872v-274.8416a85.1968 85.1968 0 0 0-84.7872-85.1968z m-274.8416 388.3008a28.2624 28.2624 0 0 1-28.2624-28.2624v-274.8416a28.2624 28.2624 0 0 1 28.2624-28.2624h274.8416a28.2624 28.2624 0 0 1 28.2624 28.2624v274.8416a28.2624 28.2624 0 0 1-28.2624 28.2624z"  horiz-adv-x="1024" />

    
    <glyph glyph-name="tubiao2-11" unicode="&#59002;" d="M675.4304 268.4928a250.6752 250.6752 0 0 0-294.912 0 251.4944 251.4944 0 0 0-147.456-47.9232 245.76 245.76 0 0 0-65.1264 9.0112v-261.3248a46.2848 46.2848 0 0 1 45.4656-47.104h629.1456a46.2848 46.2848 0 0 1 45.4656 47.104v261.3248a245.76 245.76 0 0 0-65.1264-9.0112 251.4944 251.4944 0 0 0-147.456 47.9232zM842.5472-107.52H213.4016a74.9568 74.9568 0 0 0-73.728 75.776v261.3248a28.2624 28.2624 0 0 0 11.0592 22.528 27.8528 27.8528 0 0 0 24.576 4.9152 219.136 219.136 0 0 1 188.8256 34.4064 29.0816 29.0816 0 0 0 33.1776 0 225.6896 225.6896 0 0 1 261.3248 0 29.0816 29.0816 0 0 0 33.1776 0 217.9072 217.9072 0 0 1 188.8256-34.4064 27.8528 27.8528 0 0 0 24.576-4.9152 28.2624 28.2624 0 0 0 11.0592-22.528v-261.3248a74.9568 74.9568 0 0 0-73.728-75.776zM196.1984 195.1744v-226.9184a18.0224 18.0224 0 0 1 17.2032-18.8416h629.1456a18.0224 18.0224 0 0 1 17.2032 18.8416v226.9184a272.7936 272.7936 0 0 0-184.32 40.96 283.0336 283.0336 0 0 0-294.912 0 272.7936 272.7936 0 0 0-184.32-40.96zM986.3168 596.5824l-77.4144 235.52a26.2144 26.2144 0 0 1-25.8048 14.7456H183.5008a27.4432 27.4432 0 0 1-25.8048-13.9264L65.1264 584.704a15.5648 15.5648 0 0 1 0-4.096 192.9216 192.9216 0 0 1-8.192-55.7056 180.6336 180.6336 0 0 1 177.3568-183.9104 175.7184 175.7184 0 0 1 147.456 81.92 174.08 174.08 0 0 1 294.912 0 175.7184 175.7184 0 0 1 147.456-81.92 180.6336 180.6336 0 0 1 177.3568 183.9104 189.2352 189.2352 0 0 1-15.1552 71.68zM822.8864 312.7296a201.9328 201.9328 0 0 0-147.456 64.3072 201.1136 201.1136 0 0 0-294.912 0 201.9328 201.9328 0 0 0-147.456-64.3072 209.3056 209.3056 0 0 0-204.8 212.1728 222.4128 222.4128 0 0 0 8.6016 61.44 27.0336 27.0336 0 0 0 2.4576 8.192L131.072 842.752A54.8864 54.8864 0 0 0 183.5008 875.52h699.5968a53.6576 53.6576 0 0 0 52.8384-34.4064l77.0048-234.7008a220.3648 220.3648 0 0 0 15.5648-81.92 209.3056 209.3056 0 0 0-205.6192-211.7632z m-147.456 138.0352a29.0816 29.0816 0 0 0 23.7568-12.6976 147.456 147.456 0 0 1 122.88-68.4032 152.7808 152.7808 0 0 1 149.0944 155.2384 163.84 163.84 0 0 1-11.8784 61.0304v2.048L883.9168 818.176H182.6816l-91.3408-245.76a186.7776 186.7776 0 0 1-7.3728-49.9712 152.7808 152.7808 0 0 1 149.0944-155.2384 147.456 147.456 0 0 1 122.88 68.4032 29.0816 29.0816 0 0 0 23.7568 12.6976 28.672 28.672 0 0 0 23.7568-12.6976 146.2272 146.2272 0 0 1 245.76 0 28.672 28.672 0 0 0 26.2144 15.1552z"  horiz-adv-x="1028" />

    
    <glyph glyph-name="tubiao2-10" unicode="&#59003;" d="M986.3168 404.48L541.9008 847.2576a40.96 40.96 0 0 1-56.5248 0L40.96 404.48a20.0704 20.0704 0 0 1 14.336-34.4064h117.5552v-420.6592a40.96 40.96 0 0 1 40.96-40.96h600.4736a40.96 40.96 0 0 1 40.96 40.96V368.4352h117.9648a20.0704 20.0704 0 0 1 13.1072 36.0448zM814.2848-118.9888H212.992a68.4032 68.4032 0 0 0-68.4032 68.4032v390.7584H55.296a48.3328 48.3328 0 0 0-34.4064 81.92L465.3056 866.9184a69.2224 69.2224 0 0 0 96.6656 0l444.416-444.0064a48.3328 48.3328 0 0 0-33.9968-81.92h-89.7024v-390.7584a68.4032 68.4032 0 0 0-68.4032-69.2224z m-737.28 515.6864h95.8464a28.2624 28.2624 0 0 0 28.672-28.2624v-419.0208a11.8784 11.8784 0 0 1 11.4688-11.8784h601.2928a11.8784 11.8784 0 0 1 11.8784 11.8784V368.4352a28.2624 28.2624 0 0 0 28.2624 28.2624h97.8944L521.8304 827.1872c-5.7344 6.144-10.6496 5.7344-16.384 0z m891.2896-13.9264zM368.2304 140.6976m47.104 0l197.0176 0q47.104 0 47.104-47.104l0 0q0-47.104-47.104-47.104l-197.0176 0q-47.104 0-47.104 47.104l0 0q0 47.104 47.104 47.104ZM614.4 18.2272h-199.0656a75.3664 75.3664 0 1 0 0 150.7328H614.4a75.3664 75.3664 0 0 0 0-150.7328z m-197.0176 94.208a18.8416 18.8416 0 0 1 0-37.6832H614.4a18.8416 18.8416 0 0 1 0 37.6832z"  horiz-adv-x="1024" />

    
    <glyph glyph-name="tubiao2-12" unicode="&#59004;" d="M527.1552 625.2544m-233.472 0a233.472 233.472 0 1 1 466.944 0 233.472 233.472 0 1 1-466.944 0ZM527.1552 363.52a261.7344 261.7344 0 1 0 261.7344 261.7344A262.144 262.144 0 0 0 527.1552 363.52z m0 466.944a204.8 204.8 0 1 1 204.8-204.8 204.8 204.8 0 0 1-204.8 204.8zM942.08 55.5008c0-112.64-186.368-146.2272-416.5632-146.2272S110.592-57.1392 110.592 55.5008s186.368 204.8 416.5632 204.8S942.08 167.7312 942.08 55.5008zM527.1552-118.9888C227.7376-118.9888 81.92-62.0544 81.92 55.5008c0 129.8432 195.3792 231.424 444.8256 231.424s444.8256-101.5808 444.8256-231.424c0.4096-117.5552-144.9984-174.4896-444.416-174.4896z m0 349.3888c-232.2432 0-388.3008-90.5216-388.3008-174.8992 0-76.1856 138.0352-117.9648 388.3008-117.9648s388.3008 40.96 388.3008 117.9648c0 84.3776-156.0576 174.8992-388.3008 174.8992z"  horiz-adv-x="1024" />

    
    <glyph glyph-name="tubiao2-06" unicode="&#59005;" d="M814.2848-119.3984H212.992a68.4032 68.4032 0 0 0-68.4032 68.4032v390.7584H55.296a48.3328 48.3328 0 0 0-34.4064 81.92L465.3056 866.9184a70.0416 70.0416 0 0 0 96.6656 0l444.416-444.416a48.3328 48.3328 0 0 0-33.9968-81.92h-89.7024v-390.7584a68.4032 68.4032 0 0 0-68.4032-69.2224zM74.9568 396.288h97.8944a28.2624 28.2624 0 0 0 28.672-28.2624v-419.0208a11.8784 11.8784 0 0 1 11.4688-11.8784h601.2928a11.8784 11.8784 0 0 1 11.8784 11.8784V368.0256a28.2624 28.2624 0 0 0 28.2624 28.2624h97.8944L521.8304 826.7776c-5.7344 6.144-10.6496 5.7344-16.384 0z m891.2896-13.9264zM368.2304 140.288m47.104 0l197.0176 0q47.104 0 47.104-47.104l0 0q0-47.104-47.104-47.104l-197.0176 0q-47.104 0-47.104 47.104l0 0q0 47.104 47.104 47.104ZM614.4 17.8176h-199.0656a75.3664 75.3664 0 0 0 0 150.7328H614.4a75.3664 75.3664 0 0 0 0-150.7328z m-197.0176 94.208a18.8416 18.8416 0 0 1 0-37.6832H614.4a18.8416 18.8416 0 0 1 0 37.6832z"  horiz-adv-x="1024" />

    
    </font>
</defs>
</svg>
